<svg width="56" height="56" viewBox="0 0 56 56" fill="none" xmlns="http://www.w3.org/2000/svg">
<rect width="56" height="56" fill="#7C3BED"/>
<path d="M8 40.6136V39.4508L8.4788 39.2798C10.1546 38.459 10.2572 38.1854 11.933 33.4658L17.4734 17.3576L23.6294 16.8788L25.1 21.53L30.1958 36.065C30.8798 38.0144 31.3244 38.801 32.3162 39.2456L32.8292 39.4508V40.6136H20.4146V39.4508L21.4748 39.2114C22.706 38.9378 23.1506 38.801 23.5952 38.288L21.68 32.7818L18.26 32.8502C17.234 32.8502 15.9686 32.816 14.498 32.7476L14.2928 33.4658C13.7798 35.1416 13.301 36.7148 12.9248 38.117C13.472 38.6984 13.9508 38.9378 14.9426 39.1772L16.0712 39.4508V40.6136H8ZM14.9768 31.1744L18.26 31.0718C19.457 31.0718 20.3804 31.0718 21.0986 31.106L17.8496 21.8036L17.1314 24.095L14.9768 31.1744ZM33.5674 40.6136V39.4508L34.6276 39.2114C35.209 39.1088 35.4826 38.972 35.6536 38.6984V19.0676C35.4826 18.794 35.2774 18.6914 34.6276 18.5546L33.5674 18.3152V17.1524H44.9218V18.3152L43.8616 18.5546C43.2802 18.6572 43.0066 18.794 42.8356 19.0676V38.6984C43.0066 38.972 43.2118 39.0404 43.8616 39.2114L44.9218 39.4508V40.6136H33.5674Z" fill="white"/>
<mask id="mask0_3_13" style="mask-type:alpha" maskUnits="userSpaceOnUse" x="8" y="16" width="37" height="25">
<path d="M8 40.6136V39.4508L8.4788 39.2798C10.1546 38.459 10.2572 38.1854 11.933 33.4658L17.4734 17.3576L23.6294 16.8788L25.1 21.53L30.1958 36.065C30.8798 38.0144 31.3244 38.801 32.3162 39.2456L32.8292 39.4508V40.6136H20.4146V39.4508L21.4748 39.2114C22.706 38.9378 23.1506 38.801 23.5952 38.288L21.68 32.7818L18.26 32.8502C17.234 32.8502 15.9686 32.816 14.498 32.7476L14.2928 33.4658C13.7798 35.1416 13.301 36.7148 12.9248 38.117C13.472 38.6984 13.9508 38.9378 14.9426 39.1772L16.0712 39.4508V40.6136H8ZM14.9768 31.1744L18.26 31.0718C19.457 31.0718 20.3804 31.0718 21.0986 31.106L17.8496 21.8036L17.1314 24.095L14.9768 31.1744ZM33.5674 40.6136V39.4508L34.6276 39.2114C35.209 39.1088 35.4826 38.972 35.6536 38.6984V19.0676C35.4826 18.794 35.2774 18.6914 34.6276 18.5546L33.5674 18.3152V17.1524H44.9218V18.3152L43.8616 18.5546C43.2802 18.6572 43.0066 18.794 42.8356 19.0676V38.6984C43.0066 38.972 43.2118 39.0404 43.8616 39.2114L44.9218 39.4508V40.6136H33.5674Z" fill="white"/>
</mask>
<g mask="url(#mask0_3_13)">
<path d="M31 45L21 16H28.5L33.5 41L31 45Z" fill="black"/>
<rect x="41" y="16" width="5" height="26" fill="black"/>
</g>
</svg>
