<svg fill="none" xmlns="http://www.w3.org/2000/svg" viewBox="0 0 305 101"><path d="m2.423 18.619 1.187 67.99c.114 6.498 4.692 10.92 9.19 10.84l112.984-1.971c5.599-.098 8.572-5.484 9.359-8.165l7.498-.13c.57 3.99 5.139 7.91 9.139 7.84l46.493-.81c1.199-.022 1.827-.366 1.991-.536.336.187 1.109.558 1.509.55l4-.069c.8-.014 1.167-.182 1.251-.265a7.437 7.437 0 0 0 1.757.213l43.993-.768c.971-.017 1.715-.156 1.966-.223 0 0 .232.108.524.102l4.499-.078c.4-.007.814-.136.971-.2 0 0 1.198.324 2.522.301 2.49-.043 4.219-.718 5.468-1.49 1.088.58 2.691 1.37 5.505 1.32.734-.013 1.327-.146 1.532-.21l17.997-.314c4.499-.079 9.429-4.166 9.324-10.165l-1.222-69.99c-.096-5.498-5.665-9.402-9.664-9.332l-21.997.384c-5.599.098-8.589 4.484-9.385 6.665-1.704-2.137-5.112-6.412-9.612-6.333l-21.996.384c-4.4.076-6.774 3.452-7.412 5.13-1.009-.483-3.529-1.639-5.543-2.404-2.517-.956-9.042-2.342-15.041-2.238l-27.996.489c-5.499.096-9.411 5.165-9.333 9.664l.14 8a1974.972 1974.972 0 0 1-4.691-10.92c-1.044-2.483-4.113-6.43-9.112-6.343l-24.997.437c-4.499.078-6.946 3.121-7.92 4.639-.779 1.213-3.518 8.562-4.79 12.085-.207-2.33-.832-7.587-1.674-9.972-1.052-2.982-5.113-6.412-9.612-6.333l-43.993.767c-3.5.062-9.438 3.666-9.333 9.665l.541 30.995-4 .07-.54-30.995c-.105-6-6.165-9.394-10.664-9.316l-20.997.367c-5 .087-9.929 4.174-9.816 10.673Z" fill="#3B1B89" style="fill:color(display-p3 .2314 .1059 .5373);fill-opacity:1"/><path fill-rule="evenodd" clip-rule="evenodd" d="m291.732 13.142 1.038 59.491-17.422.304L251.77 46.91l.717 26.426-19.024.332-2.223.04-22.423.39-13.146-17.708.313 17.933-21.137.368-.11.002-22.497.393-2.942-7.855-21.757.38-2.666 7.953-21.927.382 22.758-59.906 24.306-.424 24.72 58.802-1.034-59.216 25.582-.446c17.592-.307 26.373 6 26.603 19.173.129 7.394-3.247 13.66-9.556 17.51l14.861 19.278-.987-56.5 20.992-.367 19.939 22.095-.647-22.432 21.247-.37Zm-93.788 17.62-3.06.053.2 11.473 3.06-.053c4.504-.079 7.017-2.248 6.952-5.987-.064-3.655-2.648-5.565-7.152-5.486Zm-65.583 20.782 5.505-15.823 6.054 15.622-11.559.201ZM104.67 58.49l-1.821 17.46-44.023.768-1.039-59.491 43.769-.764 2.428 17.385-25.07.438.09 5.184 20.567-.36.25 14.364-20.567.359.09 5.099 25.326-.442ZM56.87 76.75l-.33-18.952-22.097.385-.708-40.538-21.246.37 1.038 59.491 43.343-.756Z" fill="#FAF9FD" style="fill:color(display-p3 .9804 .9765 .9922);fill-opacity:1"/><path fill-rule="evenodd" clip-rule="evenodd" d="m291.732 13.142 1.038 59.491-17.422.304L251.77 46.91l.717 26.426-19.024.332-2.223.04-22.423.39-13.146-17.708.313 17.933-21.137.368-.11.002-22.497.393-2.942-7.855-21.757.38-2.666 7.953-21.927.382 22.758-59.906 24.306-.424 24.72 58.802-1.034-59.216 25.582-.446c17.592-.307 26.373 6 26.603 19.173.129 7.394-3.247 13.66-9.556 17.51l14.861 19.278-.987-56.5 20.992-.367 19.939 22.095-.647-22.432 21.247-.37Zm-93.788 17.62-3.06.053.2 11.473 3.06-.053c4.504-.079 7.017-2.248 6.952-5.987-.064-3.655-2.648-5.565-7.152-5.486Zm-65.583 20.782 5.505-15.823 6.054 15.622-11.559.201ZM104.67 58.49l-1.821 17.46-44.023.768-1.039-59.491 43.769-.764 2.428 17.385-25.07.438.09 5.184 20.567-.36.25 14.364-20.567.359.09 5.099 25.326-.442ZM56.87 76.75l-.33-18.952-22.097.385-.708-40.538-21.246.37 1.038 59.491 43.343-.756Z" fill="url(#a)" fill-opacity=".2"/><path fill-rule="evenodd" clip-rule="evenodd" d="m291.978 77.332.196 11.198-3.28.058-4.438-4.9.135 4.975-3.999.07-.196-11.199 3.952-.069 3.753 4.16-.122-4.223 3.999-.07Zm-17.916 11.739c-1.776.03-3.242-.504-4.413-1.588-1.171-1.084-1.771-2.45-1.8-4.113-.029-1.648.539-3.05 1.687-4.19 1.149-1.14 2.595-1.726 4.354-1.756 1.76-.031 3.226.503 4.413 1.587 1.171 1.084 1.771 2.465 1.8 4.113.029 1.664-.523 3.066-1.671 4.19-1.149 1.14-2.595 1.726-4.37 1.757Zm-.141-8.08c-1.2.022-2.016.98-1.993 2.276.023 1.296.887 2.257 2.103 2.235 1.2-.02 2.015-.979 1.993-2.275-.023-1.296-.904-2.256-2.103-2.235Zm-14.016 2.614c.538.55 1.458 1.014 2.761 1.376 1.173.315 1.432.455 1.437.727.004.272-.249.404-.777.413-.528.01-1.187-.123-1.976-.413a11.586 11.586 0 0 1-2.195-1.066l-.047.033.431 3.593c1.019.622 2.481.98 3.905.956 2.88-.05 4.614-1.505 4.574-3.825-.017-.944-.286-1.69-.823-2.242-.538-.55-1.49-.998-2.856-1.358-1.046-.286-1.352-.44-1.357-.696-.004-.24.202-.356.65-.364.48-.008 1.073.078 1.781.273a9.637 9.637 0 0 1 1.837.72h.032l-.059-3.376c-1.017-.478-2.301-.744-3.645-.72-1.392.024-2.506.38-3.31 1.066-.82.702-1.22 1.605-1.201 2.725.016.912.301 1.627.838 2.178Zm-7.26-1.842-1.036 2.979 2.175-.038-1.139-2.94Zm2.286-3.784 4.675 11.12-4.255.074-.554-1.478-4.096.071-.502 1.497-4.127.072 4.284-11.276 4.575-.08Zm-12.132 6.564c.015.848-.567 1.45-1.446 1.466-.72.013-1.348-.169-2.107-.603l-.048.032.461 3.497c.888.416 1.787.609 2.859.59 1.344-.023 2.409-.41 3.18-1.16.771-.75 1.138-1.764 1.116-3.027l-.126-7.215-4 .07.111 6.35Zm-6.691-6.236.195 11.199-3.999.07-.067-3.808-3.295.058.066 3.807-3.999.07-.195-11.199 3.999-.07.065 3.744 3.296-.057-.066-3.744 4-.07Zm-11.745.205-10.942.191.062 3.568 3.471-.06.133 7.63 4-.07-.133-7.63 3.471-.061-.062-3.568Zm-11.415.2.195 11.198-3.999.07-.196-11.199 4-.07Zm-14.634 11.537 1.776-3.68 1.887 3.616 3.696-.065 2.97-11.333-4.143.072-1.306 5.864-3.08-5.931-.208.003-2.887 6.035-1.51-5.814-4.255.074 3.364 11.223 3.696-.064Z" fill="#FAF9FD" style="fill:color(display-p3 .9804 .9765 .9922);fill-opacity:1"/><path fill-rule="evenodd" clip-rule="evenodd" d="m291.978 77.332.196 11.198-3.28.058-4.438-4.9.135 4.975-3.999.07-.196-11.199 3.952-.069 3.753 4.16-.122-4.223 3.999-.07Zm-17.916 11.739c-1.776.03-3.242-.504-4.413-1.588-1.171-1.084-1.771-2.45-1.8-4.113-.029-1.648.539-3.05 1.687-4.19 1.149-1.14 2.595-1.726 4.354-1.756 1.76-.031 3.226.503 4.413 1.587 1.171 1.084 1.771 2.465 1.8 4.113.029 1.664-.523 3.066-1.671 4.19-1.149 1.14-2.595 1.726-4.37 1.757Zm-.141-8.08c-1.2.022-2.016.98-1.993 2.276.023 1.296.887 2.257 2.103 2.235 1.2-.02 2.015-.979 1.993-2.275-.023-1.296-.904-2.256-2.103-2.235Zm-14.016 2.614c.538.55 1.458 1.014 2.761 1.376 1.173.315 1.432.455 1.437.727.004.272-.249.404-.777.413-.528.01-1.187-.123-1.976-.413a11.586 11.586 0 0 1-2.195-1.066l-.047.033.431 3.593c1.019.622 2.481.98 3.905.956 2.88-.05 4.614-1.505 4.574-3.825-.017-.944-.286-1.69-.823-2.242-.538-.55-1.49-.998-2.856-1.358-1.046-.286-1.352-.44-1.357-.696-.004-.24.202-.356.65-.364.48-.008 1.073.078 1.781.273a9.637 9.637 0 0 1 1.837.72h.032l-.059-3.376c-1.017-.478-2.301-.744-3.645-.72-1.392.024-2.506.38-3.31 1.066-.82.702-1.22 1.605-1.201 2.725.016.912.301 1.627.838 2.178Zm-7.26-1.842-1.036 2.979 2.175-.038-1.139-2.94Zm2.286-3.784 4.675 11.12-4.255.074-.554-1.478-4.096.071-.502 1.497-4.127.072 4.284-11.276 4.575-.08Zm-12.132 6.564c.015.848-.567 1.45-1.446 1.466-.72.013-1.348-.169-2.107-.603l-.048.032.461 3.497c.888.416 1.787.609 2.859.59 1.344-.023 2.409-.41 3.18-1.16.771-.75 1.138-1.764 1.116-3.027l-.126-7.215-4 .07.111 6.35Zm-6.691-6.236.195 11.199-3.999.07-.067-3.808-3.295.058.066 3.807-3.999.07-.195-11.199 3.999-.07.065 3.744 3.296-.057-.066-3.744 4-.07Zm-11.745.205-10.942.191.062 3.568 3.471-.06.133 7.63 4-.07-.133-7.63 3.471-.061-.062-3.568Zm-11.415.2.195 11.198-3.999.07-.196-11.199 4-.07Zm-14.634 11.537 1.776-3.68 1.887 3.616 3.696-.065 2.97-11.333-4.143.072-1.306 5.864-3.08-5.931-.208.003-2.887 6.035-1.51-5.814-4.255.074 3.364 11.223 3.696-.064Z" fill="url(#b)" fill-opacity=".2"/><defs><linearGradient id="a" x1="150.207" y1="10.112" x2="151.393" y2="78.101" gradientUnits="userSpaceOnUse"><stop stop-color="#FAF9FD" style="stop-color:color(display-p3 .9804 .9765 .9922);stop-opacity:1"/><stop offset="1" stop-color="#DE8E73" style="stop-color:color(display-p3 .8706 .5569 .451);stop-opacity:1"/></linearGradient><linearGradient id="b" x1="241.76" y1="77.409" x2="241.987" y2="90.407" gradientUnits="userSpaceOnUse"><stop stop-color="#FAF9FD" style="stop-color:color(display-p3 .9804 .9765 .9922);stop-opacity:1"/><stop offset="1" stop-color="#DE8E73" style="stop-color:color(display-p3 .8706 .5569 .451);stop-opacity:1"/></linearGradient></defs></svg>