<svg xmlns="http://www.w3.org/2000/svg" width="807" height="807" fill="none"><path stroke="#7B8992" d="m806 403.501-.375-5.551-1.122-5.562-1.868-5.58-2.607-5.61-3.341-5.648-4.065-5.696-4.778-5.752-5.48-5.817-6.165-5.888-6.835-5.966-7.488-6.052-8.119-6.143-8.731-6.237-9.319-6.337-9.883-6.439-10.421-6.542-10.933-6.647-11.417-6.751-11.871-6.855-12.296-6.955-12.689-7.053-13.051-7.145-13.381-7.232-13.677-7.311-13.94-7.383-14.17-7.444-14.365-7.496-14.527-7.536-14.654-7.562-14.748-7.576-14.807-7.573-14.834-7.556-14.827-7.52-14.788-7.469-14.718-7.397-14.616-7.306-14.483-7.196-14.323-7.064-14.133-6.911-13.915-6.737-13.673-6.54-13.405-6.32-13.114-6.078-12.8-5.813-12.465-5.525-12.112-5.214-11.74-4.88-11.352-4.525-10.95-4.146-10.533-3.745-10.105-3.325-9.668-2.883-9.221-2.421-8.769-1.94-8.31-1.442-7.848-.927-7.384-.394-6.919.152-6.455.712-5.994 1.285-5.536 1.868-5.083 2.461-4.637 3.062-4.198 3.668-3.767 4.28-3.347 4.895-2.938 5.51-2.54 6.126-2.155 6.74-1.783 7.349-1.426 7.952-1.083 8.549-.755 9.135-.444 9.71-.148 10.273.131 10.821.394 11.352.64 11.864.871 12.358 1.083 12.83 1.281 13.279 1.461 13.702 1.627 14.101 1.777 14.472 1.913 14.814 2.034 15.126 2.141 15.407 2.236 15.657 2.319 15.874 2.391 16.056 2.452 16.204 2.503 16.317 2.547 16.394 2.582 16.436 2.611 16.44 2.634 16.408 2.653 16.34 2.669 16.234 2.682 16.093 2.694 15.915 2.705 15.7 2.718 15.452 2.732 15.168 2.749 14.85 2.77 14.498 2.796 14.115 2.826 13.701 2.864 13.255 2.909 12.782 2.962 12.28 3.023 11.753 3.095 11.201 3.175 10.624 3.266 10.028 3.368 9.411 3.482 8.775 3.605 8.124 3.742 7.458 3.889 6.778 4.049 6.089 4.22 5.391 4.402 4.684 4.596 3.975 4.8 3.26 5.016 2.546 5.24 1.832 5.475 1.12 5.719.414 5.97-.286 6.229-.978 6.494-1.66 6.765-2.33 7.04-2.986 7.319-3.628 7.6-4.252 7.882-4.859 8.164-5.446 8.445-6.012 8.723-6.556 8.998-7.078 9.268-7.573 9.53-8.046 9.784-8.491 10.031-8.909 10.265-9.3 10.488-9.664 10.698-9.998 10.892-10.304 11.07-10.581 11.233-10.828 11.375-11.047 11.498-11.236 11.6-11.397 11.68-11.528 11.737-11.632 11.77-11.707 11.779-11.756 11.761-11.777 11.717-11.773 11.645-11.745 11.547-11.691 11.419-11.614 11.264-11.516 11.078-11.395 10.866-11.257 10.622-11.097 10.35-10.922 10.049-10.73 9.718-10.522 9.361-10.301 8.973-10.069 8.559-9.825 8.118-9.571 7.651-9.309 7.158-9.042 6.641-8.767 6.1-8.49 5.538-8.209 4.953-7.927 4.35-7.645 3.729-7.363 3.089-7.084 2.435-6.809 1.768-6.537 1.087-6.27.397-6.011-.302-5.758-1.007-5.514-1.719-5.277-2.431-5.051-3.147-4.834-3.861-4.627-4.572-4.433-5.278-4.248-5.978-4.075-6.67-3.914-7.35-3.764-8.019-3.627-8.672-3.5-9.311-3.386-9.931-3.281-10.531-3.189-11.11-3.107-11.667-3.034-12.198-2.971-12.703-2.917-13.182-2.871-13.632-2.832-14.051-2.8-14.439-2.773-14.796-2.752-15.12-2.735-15.408-2.72-15.664-2.707-15.883-2.696-16.067-2.684-16.214-2.671-16.325-2.656-16.4-2.637-16.437-2.616-16.439-2.587-16.403-2.552-16.332-2.511-16.224-2.461-16.082-2.401-15.905-2.331-15.694-2.25-15.449-2.157-15.173-2.052-14.866-1.933-14.528-1.8-14.162-1.652-13.768-1.489-13.347-1.31-12.903-1.116-12.435-.905-11.944-.678-11.435-.435-10.907-.174-10.361.103-9.801.395-9.227.705-8.643 1.03-8.048 1.37-7.445 1.725-6.837 2.095-6.224 2.478-5.609 2.873-4.992 3.282-4.378 3.7-3.766 4.128-3.157 4.566-2.556 5.012-1.962 5.463-1.377 5.921-.803 6.382-.24 6.845.308 7.31.842 7.774 1.361 8.237 1.863 8.696 2.346 9.149 2.81 9.598 3.256 10.036 3.68 10.466 4.083 10.883 4.466 11.289 4.825 11.68 5.162 12.053 5.477 12.411 5.769 12.748 6.037 13.065 6.284 13.36 6.506 13.632 6.707 13.879 6.885 14.1 7.041 14.294 7.176 14.46 7.29 14.597 7.384 14.703 7.458 14.78 7.514 14.823 7.551 14.835 7.572 14.814 7.576 14.759 7.565 14.671 7.541 14.55 7.503 14.393 7.454 14.203 7.393 13.979 7.323 13.722 7.245 13.43 7.159 13.105 7.068 12.75 6.971 12.36 6.871 11.941 6.768 11.491 6.664 11.012 6.558 10.505 6.455 9.97 6.353 9.411 6.253 8.825 6.158 8.219 6.065 7.589 5.98 6.941 5.901 6.273 5.827 5.589 5.761 4.891 5.705 4.18 5.655 3.456 5.615 2.725 5.585 1.986 5.564 1.242 5.552.493 5.55-.255 5.559-1.003 5.577-1.75 5.605-2.49 5.641-3.224 5.688-3.951 5.742-4.665 5.806-5.369 5.876-6.057 5.954-6.73 6.038-7.385 6.128-8.02 6.222-8.635 6.32-9.226 6.422-9.795 6.526-10.338 6.63-10.853 6.735-11.342 6.838-11.8 6.94-12.231 7.037-12.628 7.131-12.996 7.218-13.33 7.3-13.633 7.372-13.9 7.435-14.136 7.488-14.336 7.53-14.503 7.56-14.636 7.574-14.735 7.575-14.801 7.559-14.832 7.528-14.83 7.478-14.797 7.409-14.731 7.322-14.634 7.215-14.506 7.087-14.351 6.937-14.164 6.766-13.952 6.572-13.714 6.357-13.449 6.118-13.162 5.857-12.851 5.572-12.52 5.265-12.17 4.936-11.8 4.582-11.415 4.207-11.014 3.811-10.601 3.393-10.174 2.955-9.738 2.496-9.293 2.018-8.841 1.523-8.383 1.009-7.922.48-7.458-.064-6.993-.622-6.529-1.193-6.068-1.775-5.608-2.365-5.155-2.966-4.707-3.571-4.267-4.182-3.836-4.797-3.413-5.413-3.002-6.028-2.603-6.642-2.215-7.252-1.842-7.857-1.481-8.454-1.137-9.042-.807-9.62-.492-10.184-.194-10.734.088-11.269.353-11.784.602-12.281.835-12.756 1.051-13.209 1.25-13.636 1.434-14.04 1.601-14.414 1.755-14.761 1.891-15.079 2.016-15.365 2.125-15.619 2.222-15.841 2.307-16.03 2.38-16.182 2.442-16.302 2.496-16.384 2.54-16.432 2.577-16.441 2.607-16.416 2.631-16.353 2.65-16.254 2.667-16.117 2.68-15.946 2.692-15.737 2.704-15.494 2.715-15.215 2.73-14.902 2.746-14.557 2.766-14.178 2.791-13.769 2.821-13.328 2.858-12.859 2.901-12.362 2.953-11.839 3.013-11.29 3.083-10.718 3.161-10.124 3.251-9.51 3.351-8.878 3.463-8.229 3.585-7.564 3.719-6.888 3.865-6.2 4.023-5.501 4.192-4.798 4.372-4.087 4.564-3.375 4.767-2.66 4.981-1.944 5.204-1.234 5.437-.526 5.68.175 5.929.869 6.187 1.552 6.452 2.224 6.721 2.883 6.996 3.526 7.274 4.154 7.555 4.764 7.837 5.353 8.12 5.924 8.4 6.47 8.68 6.997 8.954 7.496 9.225 7.972 9.489 8.421 9.745 8.845 9.992 9.24 10.228 9.608 10.454 9.946 10.665 10.258 10.862 10.538 11.043 10.791 11.208 11.014 11.354 11.208 11.479 11.373 11.586 11.509 11.669 11.617 11.729 11.697 11.767 11.75 11.779 11.776 11.765 11.775 11.726 11.751 11.659 11.701 11.564 11.628 11.442 11.533 11.29 11.416 11.11 11.28 10.901 11.124 10.663 10.951 10.396 10.761 10.098 10.556 9.774 10.338 9.419 10.106 9.037 9.864 8.627 9.612 8.19 9.352 7.727 9.084 7.238 8.812 6.725 8.534 6.187 8.254 5.629 7.972 5.048 7.689 4.448 7.408 3.828 7.129 3.192 6.852 2.541 6.58 1.874 6.312 1.197 6.052.507 5.798-.19 5.552-.895 5.314-1.604 5.086-2.318 4.868-3.033 4.66-3.747 4.463-4.459 4.276-5.166 4.102-5.868 3.939-6.56 3.787-7.242 3.648-7.914 3.52-8.569 3.403-9.21 3.297-9.834 3.203-10.437 3.119-11.019 3.045-11.58 2.981-12.115 2.925-12.625 2.877-13.107 2.838-13.562 2.805-13.987 2.777-14.379 2.755-14.742 2.737-15.07 2.722-15.365 2.71-15.625 2.697-15.851 2.686-16.04 2.673-16.193 2.659-16.31 2.641-16.39 2.619-16.434 2.592-16.441 2.558-16.411 2.518-16.346 2.469-16.244 2.412-16.107 2.343-15.935 2.264-15.73 2.173-15.49 2.069-15.22 1.953-14.916 1.822-14.584 1.676-14.222 1.516-13.832 1.34-13.417 1.148-12.975.94-12.511.715-12.024.475-11.517.216-10.992-.057-10.449-.348-9.891-.654-9.32-.978-8.736-1.314-8.143-1.668-7.542-2.035-6.934-2.416-6.322-2.81-5.707-3.215-5.09-3.633-4.476-4.059-3.863-4.496-3.254-4.941-2.651-5.391-2.056-5.847-1.47-6.308-.893-6.772-.33-7.236.222-7.7.759-8.163 1.28-8.623 1.783-9.078 2.27-9.526 2.738-9.967 3.186-10.398 3.614-10.818 4.02-11.226 4.407-11.618 4.769-11.995 5.11-12.355 5.429-12.696 5.723-13.016 5.996-13.314 6.246-13.591 6.472-13.841 6.677-14.066 6.858-14.265 7.018-14.436 7.156-14.577 7.273-14.688 7.37L326.5 182.7l-14.819 7.506-14.835 7.547-14.82 7.569-14.77 7.577-14.687 7.568-14.571 7.545-14.421 7.51-14.235 7.462-14.018 7.404-13.764 7.335-13.479 7.258-13.159 7.173-12.808 7.083-12.425 6.986-12.01 6.887-11.564 6.785-11.09 6.68-10.588 6.576-10.057 6.471-9.501 6.369-8.92 6.269-8.317 6.172-7.691 6.08-7.045 5.994-6.381 5.912-5.7 5.838-5.002 5.772-4.294 5.713-3.572 5.662-2.843 5.621-2.103 5.589-1.36 5.567-.614 5.553.136 5.55.885 5.557 1.63 5.574 2.373 5.599 3.108 5.635 3.835 5.68 4.553 5.733 5.257 5.795 5.949 5.864 6.624 5.941 7.281 6.025 7.92 6.113 8.54 6.206 9.133 6.305 9.706 6.406 10.253 6.509 10.773 6.614 11.266 6.718 11.729 6.822 12.164 6.924 12.568 7.022 12.939 7.116 13.279 7.205 13.586 7.286 13.86 7.361 14.101 7.426 14.306 7.481 14.479 7.524 14.618 7.556 14.721 7.573 14.792 7.575 14.829 7.563 14.833 7.534 14.804 7.487 14.744 7.422 14.651 7.338 14.529 7.233 14.377 7.108 14.196 6.962 13.988 6.795 13.753 6.605 13.493 6.393 13.209 6.157 12.902 5.9 12.575 5.62 12.226 5.315 11.86 4.989 11.478 4.64 11.079 4.269 10.667 3.876 10.243 3.461 9.808 3.025 9.364 2.571 8.913 2.095 8.457 1.603 7.995 1.092 7.532.566 7.068.023 6.603-.532 6.14-1.102 5.681-1.681 5.227-2.271 4.778-2.869 4.337-3.475 3.903-4.085 3.48-4.698 3.067-5.315 2.665-5.93 2.277-6.544 1.9-7.156 1.538-7.76 1.19-8.36.859-8.949.541-9.529.241-10.095-.044-10.648-.313-11.184-.563-11.704-.799-12.203-1.018-12.682-1.219-13.138-1.406-13.57-1.576-13.977-1.731-14.357-1.871-14.708-1.996-15.03-2.109-15.321-2.207-15.581-2.294-15.809-2.369-16.001-2.434-16.161-2.487-16.285-2.534-16.374-2.571-16.426-2.603-16.442-2.627-16.423-2.648-16.365-2.664-16.272-2.678-16.142-2.69-15.975-2.702-15.773-2.714-15.535-2.727-15.262-2.743-14.954-2.763-14.614-2.787-14.241-2.816-13.836-2.851-13.4-2.894-12.936-2.944-12.443-3.003-11.924-3.071-11.379-3.148-10.81-3.236-10.22-3.334-9.61-3.444-8.98-3.565-8.332-3.697-7.672-3.841-6.996-3.997-6.31-4.164-5.613-4.343-4.91-4.533-4.201-4.734-3.488-4.946-2.774-5.168-2.059-5.399-1.346-5.64-.639-5.89.064-6.145.76-6.409 1.443-6.678 2.118-6.952 2.778-7.23 3.425-7.51 4.056-7.792 4.667-8.074 5.261-8.356 5.834-8.635 6.386-8.911 6.914-9.183 7.418-9.447 7.898-9.704 8.352-9.954 8.779-10.191 9.179-10.419 9.551-10.632 9.894-10.832 10.21-11.015 10.496-11.183 10.753-11.332 10.98-11.461 11.179-11.57 11.349-11.657 11.489-11.721 11.602-11.763 11.686-11.779 11.743-11.769 11.773-11.734 11.778-11.671 11.756-11.581 11.71-11.463 11.642-11.316 11.549-11.141 11.436-10.937 11.303-10.702 11.15-10.44 10.98-10.148 10.792-9.827 10.59-9.478 10.373-9.1 10.144-8.693 9.904-8.262 9.653-7.802 9.393-7.318 9.128-6.808 8.855-6.275 8.579-5.719 8.298-5.142 8.017-4.544 7.735-3.928 7.453-3.295 7.172-2.645 6.896-1.982 6.623-1.305 6.355-.618 6.093.079 5.838.782 5.59 1.491 5.352 2.204 5.122 2.92 4.901 3.633 4.693 4.346 4.493 5.054 4.306 5.756 4.129 6.45 3.964 7.135 3.81 7.807 3.67 8.466 3.539 9.11 3.421 9.735 3.313 10.342 3.218 10.928 3.131 11.492 3.056 12.031 2.991 12.546 2.933 13.032 2.884 13.492 2.844 13.921 2.809 14.319 2.782 14.686 2.758 15.02 2.74 15.32 2.724 15.586 2.712 15.817 2.699 16.012 2.688 16.172 2.675 16.293 2.661 16.38 2.644 16.43 2.623 16.442 2.597 16.419 2.564 16.358 2.525 16.263 2.477 16.131 2.421 15.965 2.355 15.764 2.277 15.531 2.189 15.265 2.087 14.966 1.972 14.639 1.843 14.282 1.701 13.896 1.543 13.484 1.369 13.047 1.179 12.586.974 12.103.753 11.6.514 11.076.258 10.537-.012 9.981-.301 9.411-.604 8.83-.925 8.238-1.26 7.638-1.611 7.032-1.975 6.419-2.355 5.805-2.746 5.189-3.15 4.573-3.565 3.961-3.991 3.35-4.426 2.747-4.869 2.15-5.319 1.563-5.775.984-6.234.418-6.698-.135-7.161-.674-7.627-1.197-8.09-1.705-8.55-2.194-9.006-2.664-9.455-3.116-9.897-3.548-10.33-3.957-10.752-4.346-11.162-4.713-11.556-5.057-11.937-5.38-12.299-5.678-12.642-5.954-12.967-6.208-13.269-6.437-13.547-6.646-13.803-6.83-14.033-6.994-14.235-7.136-14.41-7.256-14.557-7.356-14.673-7.436-14.758-7.498-14.813-7.542-14.835-7.567-14.824-7.576-14.78-7.57-14.703-7.551-14.592-7.516-14.447-7.47-14.267-7.414-14.054-7.346-13.807-7.271-13.527-7.187-13.212-7.098-12.867-7.002-12.487-6.903-12.078-6.801-11.638-6.697-11.167-6.592-10.67-6.488-10.143-6.385-9.592-6.285-9.014-6.187-8.415-6.095-7.792-6.006-7.149-5.925-6.488-5.85-5.808-5.782-5.115-5.721-4.408-5.67-3.688-5.627-2.959-5.594-2.222-5.569-1.479-5.555-.732-5.55.017-5.555.765-5.57 1.512-5.595 2.255-5.628 2.992-5.673 3.72-5.724 4.439-5.784 5.146-5.853 5.84-5.928 6.517-6.011 7.178-6.098 7.82-6.192 8.441-6.289 9.041-6.389 9.617-6.493 10.167-6.597 10.692-6.701 11.189-6.806 11.658-6.908 12.097-7.006 12.505-7.102 12.882-7.191 13.228-7.274 13.539-7.35 13.819-7.416 14.064-7.473 14.276-7.518 14.454-7.551 14.598-7.571 14.707-7.577 14.783-7.566 14.825-7.539 14.835-7.496 14.811-7.433 14.755-7.353 14.668-7.251 14.551-7.129 14.403-6.987 14.227-6.823 14.023-6.637 13.792-6.428 13.536-6.196 13.255-5.943 12.953-5.665 12.628-5.366 12.283-5.042 11.92-4.698 11.539-4.329 11.144-3.94 10.733-3.528 10.311-3.096 9.878-2.644 9.436-2.173 8.986-1.683 8.529-1.174 8.07-.65 7.605-.111 7.142.443 6.677 1.01 6.214 1.588 5.754 2.176 5.298 2.774 4.85 3.378 4.406 3.987 3.972 4.6 3.547 5.217 3.132 5.832 2.728 6.447 2.337 7.058 1.959 7.665 1.595 8.265 1.245 8.856.91 9.437.591 10.006.287 10.561.001 11.1-.271 11.622-.525 12.125-.762 12.607-.984 13.067-1.188 13.503-1.377 13.914-1.55 14.298-1.708 14.654-1.849 14.981-1.978 15.277-2.091 15.541-2.193 15.775-2.281 15.973-2.358 16.137-2.423 16.268-2.48 16.362-2.527 16.42-2.566 16.442-2.598 16.428-2.624 16.377-2.645 16.29-2.661 16.165-2.676 16.004-2.689 15.807-2.7 15.575-2.711 15.308-2.725 15.006-2.741 14.67-2.759 14.302-2.783 13.903-2.811 13.472-2.845 13.011-2.886 12.523-2.936 12.008-2.993 11.468-3.059 10.902-3.135 10.316-3.222 9.708-3.318 9.081-3.426 8.437-3.544 7.778-3.676 7.104-3.817 6.42-3.971 5.725-4.137 5.023-4.313 4.314-4.502 3.602-4.702 2.887-4.911 2.172-5.132 1.46-5.362.751-5.601.047-5.849-.648-6.105-1.336-6.366-2.011-6.635-2.674-6.908-3.324-7.185-3.956-7.466-4.571-7.747-5.168-8.029-5.744-8.311-6.299-8.591-6.831-8.868-7.34-9.139-7.823-9.405-8.282-9.665-8.712-9.914-9.117-10.154-9.494-10.384-9.842-10.599-10.161-10.801-10.452-10.987-10.714-11.158-10.946-11.309-11.15-11.442-11.323-11.554-11.469-11.644-11.586-11.713-11.674-11.758-11.736-11.778-11.77-11.772-11.779-11.741-11.761-11.683-11.719-11.598-11.654-11.483-11.565-11.342-11.456-11.171-11.325-10.971-11.176-10.742-11.008-10.484-10.823-10.196-10.623-9.88-10.409-9.535-10.181-9.162-9.943-8.76-9.693-8.332-9.436-7.878-9.17-7.396-8.899-6.891-8.623-6.361-8.343-5.81-8.062-5.235-7.779-4.64-7.498-4.028-7.217-3.397-6.94-2.75-6.666-2.088-6.397-1.413-6.134-.728-5.878-.033-5.629.67-5.389 1.378-5.158 2.09-4.936 2.805-4.725 3.52-4.525 4.233-4.334 4.941-4.157 5.645-3.989 6.34-3.835 7.027-3.691 7.7-3.559 8.363-3.439 9.008-3.33 9.637-3.232 10.246-3.144 10.837-3.068 11.403-3 11.948-2.941 12.465-2.892 12.957-2.85 13.42-2.814 13.855-2.786 14.258-2.762 14.63-2.742 14.969-2.727 15.274-2.713 15.547-2.701 15.782-2.69 15.984-2.677 16.148-2.664 16.277-2.647 16.368-2.626 16.425-2.601 16.442-2.57 16.425-2.532 16.37-2.486 16.281-2.43 16.154-2.366 15.994-2.291 15.798-2.203 15.571-2.104 15.309-1.991 15.016-1.865 14.693-1.724 14.341-1.569 13.959-1.398 13.552-1.211 13.118-1.008 12.661-.788 12.182-.553 11.68-.301 11.161-.032 10.624.254 10.07.555 9.503.873 8.924 1.205 8.333 1.554 7.734 1.917 7.128 2.293 6.518 2.683 5.903 3.085 5.287 3.498 4.671 3.923 4.057 4.356 3.448 4.798 2.843 5.246 2.244 5.702 1.656 6.161 1.075 6.624.508 7.087-.048 7.553-.589 8.016-1.115 8.477-1.625 8.934-2.118 9.384-2.591 9.827-3.045 10.262-3.48 10.686-3.893 11.097-4.286 11.495-4.656 11.877-5.004 12.242-5.33 12.589-5.632 12.916-5.912 13.222-6.168 13.506-6.403 13.764-6.614 13.997-6.802 14.205-6.97 14.384-7.114 14.535-7.238 14.656-7.342 14.747-7.425 14.807-7.489 14.833-7.536 14.828-7.564 14.79-7.576 14.717-7.572 14.612-7.555 14.472-7.522 14.298-7.479 14.091-7.423 13.848-7.358 13.574-7.283 13.264-7.201 12.924-7.112 12.55-7.018 12.145-6.919 11.71-6.818 11.244-6.713 10.751-6.609 10.229-6.505 9.681-6.401 9.108-6.3 8.511-6.203 7.893-6.109 7.253-6.02 6.594-5.938 5.918-5.861 5.226-5.792 4.521-5.73 3.804-5.678 3.075-5.633 2.34-5.598 1.598-5.573.851-5.556.103-5.55-.647-5.554-1.393-5.567-2.137-5.59-2.874-5.623-3.605-5.665-4.326-5.715-5.034-5.774-5.73-5.842-6.41-5.916-7.074-5.997-7.72-6.084-8.343-6.176-8.947-6.274-9.527-6.373-10.081-6.476-10.61-6.58-11.112-6.685-11.585-6.789-12.029-6.892-12.442-6.991-12.825-7.087-13.174-7.177-13.492-7.261-13.777-7.339-14.027-7.406-14.245-7.464-14.427-7.512-14.577-7.547-14.692-7.569-14.774-7.576-14.82-7.569-14.836-7.545-14.816-7.504-14.767-7.445-14.684-7.366-14.571-7.269-14.429-7.15-14.256-7.011-14.058-6.851-13.83-6.668-13.579-6.462-13.302-6.235-13.002-5.985-12.681-5.711-12.339-5.415-11.979-5.095-11.601-4.754-11.208-4.39-10.799-4.003-10.379-3.595-9.948-3.166-9.507-2.718-9.057-2.249-8.603-1.761-8.143-1.257-7.679-.735-7.216-.198-6.75.354-6.288.919-5.827 1.495-5.371 2.083-4.92 2.677-4.477 3.282-4.04 3.89-3.614 4.502-3.197 5.118-2.792 5.735-2.399 6.349-2.018 6.961-1.652 7.569-1.3 8.169-.962 8.763-.641 9.345-.334 9.916-.045 10.474.228 11.015.486 11.54.726 12.047.949 12.531 1.157 12.996 1.348 13.435 1.523 13.85 1.684 14.239 1.828 14.599 1.958 14.931 2.074 15.232 2.177 15.502 2.268 15.739 2.346 15.944 2.414 16.114 2.472 16.249 2.52 16.349 2.56 16.414 2.593 16.441 2.62 16.433 2.642 16.387 2.659 16.306 2.674 16.187 2.687 16.032 2.698 15.842 2.709 15.614 2.723 15.353 2.738 15.056 2.756 14.726 2.779 14.363 2.805 13.968 2.84 13.543 2.879 13.086 2.928 12.603 2.983 12.092 3.048 11.555 3.122 10.994 3.207 10.411 3.302 9.806 3.408 9.182 3.525 8.541 3.654 7.883 3.794 7.213 3.946 6.53 4.109 5.836 4.285 5.135 4.471 4.427 4.669 3.716 4.877 3.001 5.096 2.286 5.325 1.573 5.562.864 5.809.158 6.064-.538 6.324-1.227 6.592-1.904 6.864-2.57 7.141-3.221 7.42-3.856 7.703-4.475 7.984-5.074 8.266-5.654 8.547-6.212 8.824-6.748 9.096-7.26 9.363-7.748 9.624-8.21 9.875-8.646 10.117-9.055 10.347-9.435 10.566-9.788 10.77-10.113 10.959-10.408 11.131-10.674 11.287-10.911 11.422-11.119 11.537-11.298 11.632-11.447 11.703-11.569 11.752-11.663 11.777-11.727 11.775-11.767 11.748-11.779 11.694-11.766 11.613-11.727 11.503-11.666 11.367-11.581 11.199-11.474 11.005-11.348 10.78-11.201 10.527-11.036 10.244-10.853 9.933-10.656 9.592-10.444 9.223-10.218 8.826-9.982 8.402-9.733 7.952-9.477 7.474-9.213 6.973-8.943 6.448-8.667 5.898-8.388 5.328-8.107 4.737-7.824 4.126-7.543 3.499-7.261 2.853-6.984 2.195-6.709 1.521-6.44.838-6.176.145-5.918-.558-5.668-1.265-5.427-1.977-5.194-2.691-4.971-3.406-4.758-4.119-4.555-4.829-4.364-5.533-4.184-6.23-4.016-6.918-3.858-7.595-3.713-8.258-3.579-8.906-3.458-9.538-3.346-10.151-3.247-10.743-3.158-11.315-3.079-11.863-3.01-12.384-2.95-12.881-2.9-13.348-2.856-13.787-2.819-14.196-2.79-14.573-2.765-14.917-2.746-15.228-2.729-15.506-2.715-15.747-2.703-15.954-2.691-16.124-2.68-16.259-2.666-16.357-2.649-16.417-2.63-16.442-2.606-16.43-2.575-16.382-2.539-16.297-2.493-16.177-2.44-16.021-2.377-15.832-2.304-15.609-2.217-15.353-2.121-15.065-2.01-14.746-1.886-14.399-1.748-14.022-1.595-13.618-1.426-13.189-1.241-12.735-1.042-12.26-.824-11.762-.592-11.245-.342-10.71-.076-10.159.207-9.595.506-9.016.821-8.428 1.152-7.83 1.497-7.225 1.858-6.615 2.233-6 2.619-5.386 3.021-4.77 3.432-4.154 3.854-3.545 4.286-2.938 4.727-2.34 5.175-1.748 5.629-1.167 6.088-.598 6.549-.04 7.014.505 7.479 1.032 7.942 1.545 8.404 2.04 8.861 2.517 9.313 2.974 9.758 3.412 10.193 3.83 10.619 4.224 11.032 4.599 11.433 4.95 11.817 5.279 12.185 5.585 12.536 5.869 12.865 6.13 13.175 6.366 13.462 6.582 13.724 6.774 13.962 6.944 14.174 7.093 14.358 7.22 14.513 7.326 14.639 7.413 14.734 7.481 14.799 7.529 14.831 7.561 14.832 7.575 14.797 7.574 14.732 7.558 14.631 7.528 14.496 7.487 14.329 7.433 14.125 7.368 13.89 7.296 13.619 7.215 13.316 7.126 12.98 7.033 12.612 6.936 12.212 6.833 11.781 6.73 11.321 6.626 10.831 6.521 10.314 6.418 9.77 6.316 9.201 6.218 8.608 6.123 7.992 6.034 7.356 5.951 6.7 5.873 6.027 5.802 5.338 5.74 4.634 5.685 3.918 5.64 3.192 5.603 2.458 5.576 1.716 5.558.97 5.551.222 5.552-.527 5.565-1.274 5.586-2.019 5.616-2.758 5.658-3.489 5.706-4.211 5.765-4.922 5.83-5.62 5.904-6.304 5.983-6.969 6.07-7.618 6.162-8.246 6.257-8.852 6.357-9.436 6.46-9.995 6.563-10.527 6.669-11.034 6.772-11.512 6.876-11.96 6.975-12.379 7.072-12.765 7.163-13.121 7.249-13.444 7.326-13.733 7.396-13.99 7.456-14.212 7.505-14.401 7.542-14.556 7.567-14.676 7.576-14.762 7.571-14.816 7.55-14.835 7.511-14.822 7.456-14.776 7.38-14.7 7.285-14.591 7.171-14.453 7.035-14.286 6.877-14.091 6.699-13.869 6.497-13.62 6.272-13.347 6.026-13.052 5.757-12.733 5.463-12.396 5.148-12.037 4.81-11.662 4.448-11.272 4.067-10.865 3.661-10.447 3.236-10.017 2.791-9.577 2.325-9.13 1.84-8.676 1.338-8.216.819-7.754.285-7.289-.266-6.825-.828-6.361-1.402-5.9-1.988-5.443-2.583-4.992-3.185-4.546-3.792-4.11-4.405-3.681-5.02-3.263-5.636-2.855-6.252-2.461-6.864-2.078-7.472-1.709-8.074-1.355-8.669-1.015-9.253-.691-9.826-.382-10.386-.09-10.93.186-11.458.446-11.967.688-12.456.915-12.923 1.125-13.367 1.319-13.786 1.496-14.178 1.659-14.544 1.806-14.88 1.938-15.186 2.057-15.461 2.162-15.704 2.254-15.913 2.335-16.089 2.404-16.23 2.463-16.336 2.512-16.405 2.555-16.44 2.588-16.436 2.616-16.397 2.639-16.322 2.657-16.208 2.671-16.059 2.685-15.874 2.696-15.653 2.708-15.397 2.72-15.105 2.736-14.781 2.752-14.423 2.775-14.034 2.801-13.612 2.834-13.161 2.873-12.682 2.919-12.175 2.973-11.642 3.037-11.085 3.11-10.505 3.193-9.904 3.286-9.282 3.391-8.644 3.505-7.99 3.633-7.32 3.771-6.639 3.921-5.947 4.082-5.247 4.256-4.54 4.441-3.83 4.636-3.114 4.844-2.4 5.06-1.687 5.288-.976 5.524-.271 5.769.428 6.023 1.118 6.282 1.797 6.549 2.465 6.82 3.118 7.097 3.756 7.376 4.377 7.657 4.98 7.94 5.563 8.221 6.125 8.502 6.664 8.78 7.18 9.053 7.673 9.322 8.138 9.582 8.578 9.836 8.991 10.079 9.377 10.312 9.734 10.532 10.063 10.738 10.363 10.93 10.633 11.105 10.875 11.263 11.088 11.401 11.271 11.521 11.426 11.618 11.551 11.694 11.65 11.746 11.719 11.774 11.762 11.777 11.779 11.754 11.769 11.705 11.735 11.627 11.678 11.523 11.596 11.39 11.493 11.229 11.369 11.037 11.225 10.818 11.063 10.57 10.884 10.291 10.688 9.984 10.479 9.648 10.255 9.283 10.02 8.892 9.773 8.471 9.519 8.025 9.255 7.552 8.986 7.055 8.711 6.533 8.433 5.987 8.152 5.42 7.869 4.833 7.587 4.225 7.307 3.599 7.028 2.957 6.752 2.301 6.482 1.63 6.218.947 5.958.255 5.708-.445 5.465-1.152 5.23-1.863 5.006-2.578 4.791-3.292 4.587-4.006 4.394-4.716 4.212-5.421 4.041-6.12 3.883-6.809 3.735-7.488 3.6-8.153 3.476-8.804 3.363-9.438 3.262-10.055 3.172-10.651 3.091-11.225 3.02-11.777 2.959-12.303 2.907-12.804 2.862-13.275 2.825-13.72 2.795-14.133 2.768-14.515 2.749-14.864 2.731-15.181 2.717-15.464 2.705-15.711 2.693-15.923 2.682-16.1 2.668-16.24 2.653-16.343 2.633-16.411 2.61-16.44 2.58-16.435 2.545-16.391 2.501-16.313 2.45-16.199 2.387-16.048 2.316-15.865 2.232-15.646 2.137-15.396 2.029-15.113 1.907-14.799 1.771-14.456 1.62-14.084 1.453-13.684 1.273-13.259 1.074-12.81.86-12.336.63-11.843.383-11.328.119-10.797-.161-10.248-.457-9.685-.77-9.109-1.098-8.523-1.441-7.925-1.8-7.322-2.171-6.713-2.558-6.099-2.955-5.483-3.366-4.867-3.786-4.253-4.217-3.641-4.657-3.035-5.103-2.434-5.556-1.842-6.014-1.26-6.476-.686-6.94-.128-7.405.418-7.868.95-8.331 1.464-8.789 1.963-9.241 2.442-9.687 2.902-10.125 3.344-10.552 3.764-10.967 4.163-11.37 4.54-11.757 4.896-12.128 5.229-12.48 5.538-12.815 5.825-13.127 6.09-13.417 6.33-13.684 6.549-13.926 6.745-14.142 6.919-14.33 7.07-14.491 7.201-14.621 7.311-14.721 7.401-14.791 7.471-14.828 7.522-14.833 7.557-14.806 7.574-14.744 7.575-14.649 7.562-14.52 7.534-14.358 7.494-14.16 7.442-13.929 7.379-13.665 7.308-13.366 7.228-13.036 7.141-12.673 7.049-12.277 6.951-11.852 6.85-11.396 6.747-10.91 6.642-10.399 6.538-9.858 6.434-9.293 6.332-8.704 6.233-8.092 6.138-7.459 6.048-6.806 5.964-6.135 5.884-5.448 5.813-4.747 5.75-4.034 5.693-3.308 5.647-2.575 5.608-1.834 5.58-1.09 5.56L1 403.747l.408 5.552 1.155 5.562 1.901 5.581 2.64 5.612 3.373 5.65 4.098 5.698 4.81 5.755 5.51 5.819 6.195 5.891 6.864 5.971 7.516 6.056 8.147 6.146 8.758 6.242 9.344 6.341 9.907 6.443 10.445 6.547 10.955 6.652 11.438 6.756 11.89 6.859 12.314 6.96 12.706 7.057 13.067 7.149 13.394 7.235 13.69 7.315 13.951 7.385 14.179 7.448 14.373 7.498 14.533 7.537 14.659 7.563 14.751 7.576 14.81 7.573 14.834 7.554 14.826 7.519 14.786 7.465 14.714 7.394 14.61 7.302 14.477 7.19 14.315 7.058 14.123 6.904 13.906 6.728 13.662 6.531 13.392 6.31 13.1 6.067 12.786 5.8 12.45 5.512 12.096 5.2 11.723 4.865 11.334 4.508 10.931 4.128 10.515 3.728 10.086 3.305 9.648 2.863 9.201 2.4 8.749 1.919 8.289 1.419 7.828.903 7.363.371 6.899-.177 6.435-.738 5.973-1.31 5.516-1.894 5.063-2.488 4.617-3.088 4.178-3.695 3.749-4.308 3.329-4.922 2.919-5.538 2.523-6.153 2.138-6.767 1.767-7.376 1.41-7.979 1.068-8.574.742-9.161.43-9.736.136-10.298-.144-10.844-.405-11.375-.651-11.887-.88-12.38-1.093-12.85-1.289-13.298-1.469-13.721-1.634-14.117-1.783-14.488-1.918-14.828-2.039-15.14-2.146-15.419-2.24-15.667-2.323-15.883-2.393-16.063-2.455-16.21-2.505-16.321-2.548-16.397-2.584-16.437-2.612-16.439-2.635-16.406-2.654-16.336-2.67-16.229-2.682-16.085-2.695-15.906-2.706-15.691-2.718-15.439-2.733-15.155-2.75-14.835-2.771-14.482-2.796-14.097-2.828-13.681-2.866-13.235-2.911-12.761-2.965-12.257-3.026-11.729-3.098-11.175-3.179-10.599-3.27-10-3.373-9.384-3.487-8.746-3.611-8.095-3.748-7.428-3.896-6.748-4.056-6.058-4.228-5.36-4.411-4.652-4.604-3.943-4.81-3.229-5.025-2.514-5.251-1.8-5.486-1.089-5.73-.382-5.981.317-6.241 1.009-6.506 1.69-6.776 2.359-7.053 3.015-7.331 3.655-7.612 4.28-7.895 4.885-8.177 5.472-8.457 6.036-8.736 6.58-9.01 7.1-9.279 7.596-9.542 8.065-9.796 8.51-10.041 8.927-10.275 9.318-10.498 9.679-10.706 10.012-10.9 10.317-11.079 10.592-11.239 10.839-11.38 11.056-11.503 11.244-11.605 11.403-11.683 11.533-11.739 11.636-11.771 11.71-11.778 11.757-11.76 11.778-11.714 11.772-11.642 11.743-11.541 11.688-11.413 11.61-11.256 11.511-11.071 11.39-10.855 11.25-10.61 11.09-10.337 10.913-10.035 10.721-9.704 10.513-9.343 10.291-8.956 10.058-8.54 9.814-8.098 9.559-7.63 9.298-7.135 9.03-6.617 8.755-6.076 8.477-5.512 8.197-4.927 7.914-4.323 7.632-3.7 7.351-3.06 7.072-2.407 6.796-1.737 6.525-1.057 6.259-.366 6 .333 5.747 1.039 5.503 1.75 5.267 2.463 5.041 3.179 4.824 3.892 4.619 4.603 4.424 5.31 4.24 6.01 4.068 6.699 3.907 7.38 3.758 8.048 3.621 8.702 3.495 9.338 3.38 9.958 3.278 10.557 3.185 11.136 3.103 11.69 3.031 12.221 2.968 12.726 2.915 13.202 2.869 13.651 2.83 14.069 2.799 14.456 2.772 14.811 2.752 15.133 2.733 15.421 2.72 15.674 2.707 15.892 2.695 16.074 2.683 16.22 2.671 16.329 2.655 16.403 2.637 16.438 2.614 16.438 2.585 16.401 2.551 16.327 2.509 16.219 2.458 16.075 2.398 15.896 2.328 15.684 2.247 15.437 2.153 15.161 2.046 14.851 1.928 14.512 1.793 14.145 1.645 13.75 1.481 13.328 1.302 12.883 1.107 12.413.896 11.922.668 11.412.423 10.883.162 10.336-.115 9.776-.409 9.202-.719 8.616-1.045 8.021-1.385 7.419-1.742 6.809-2.111 6.197-2.495 5.582-2.892 4.965-3.299 4.35-3.719 3.739-4.148 3.131-4.586 2.529-5.031 1.936-5.484 1.351-5.941.778-6.402.215-6.866-.332-7.331-.866-7.795-1.383-8.257-1.885-8.716-2.366-9.17-2.831-9.616-3.275-10.056-3.699-10.485-4.101-10.902-4.481-11.306-4.841-11.697-5.177-12.07-5.49-12.425-5.781-12.763-6.049-13.079-6.294-13.373-6.515-13.643-6.716-13.889-6.892-14.109-7.048-14.302-7.181-14.467-7.295-14.602-7.388-14.708-7.461-14.782-7.515-14.824-7.553-14.835-7.572-14.812-7.576-14.756-7.565-14.667-7.539-14.543-7.501-14.385-7.451-14.194-7.39-13.969-7.32-13.709-7.242-13.416-7.155-13.091-7.063-12.732-6.967-12.343-6.866-11.921-6.764-11.471-6.659-10.99-6.554-10.481-6.45-9.947-6.349-9.384-6.248-8.8-6.154-8.19-6.062-7.562-5.976-6.91-5.897-6.244-5.824-5.559-5.759-4.86-5.702-4.147-5.653-3.424-5.614-2.693-5.583-1.952-5.563-1.209-5.552-.46-5.551.288-5.559 1.037-5.578 1.782-5.606 2.523-5.644 3.257-5.69 3.982-5.745 4.697-5.808 5.4-5.88 6.087-5.957 6.76-6.042 7.413-6.132 8.048-6.226 8.662-6.325 9.252-6.427 9.82-6.53 10.36-6.635 10.876-6.739 11.363-6.843 11.82-6.944 12.249-7.042 12.646-7.135 13.011-7.222 13.344-7.302 13.645-7.375 13.912-7.438 14.145-7.491 14.344-7.531 14.51-7.56 14.642-7.575 14.738-7.575 14.802-7.558 14.833-7.526 14.83-7.475 14.794-7.406 14.727-7.318 14.629-7.209 14.501-7.081 14.342-6.93 14.156-6.758 13.942-6.563 13.702-6.347 13.437-6.107 13.149-5.844 12.837-5.56 12.505-5.251 12.153-4.92 11.784-4.566 11.397-4.19 10.997-3.793 10.581-3.374 10.155-2.934 9.719-2.476 9.273-1.996 8.82-1.5 8.363-.987 7.902-.456 7.437.089 6.973.647 6.508 1.219 6.047 1.8 5.588 2.393 5.135 2.992 4.688 3.598 4.247 4.21 3.817 4.824 3.395 5.44 2.984 6.055 2.585 6.669 2.198 7.279 1.826 7.884 1.466 8.48 1.121 9.068.793 9.645.478 10.209.182 10.759-.1 11.291-.365 11.807-.613 12.303-.845 12.776-1.059 13.229-1.259 13.655-1.442 14.056-1.609 14.431-1.76 14.776-1.898 15.092-2.02 15.376-2.13 15.63-2.226 15.851-2.31 16.036-2.383 16.189-2.446 16.306-2.497 16.387-2.542 16.433-2.579 16.441-2.608 16.414-2.632 16.35-2.651 16.248-2.667 16.111-2.681 15.936-2.692 15.728-2.704 15.482-2.717 15.202-2.73 14.888-2.747 14.54-2.767 14.161-2.792 13.75-2.823 13.308-2.859 12.837-2.904 12.339-2.955 11.815-3.016 11.265-3.086 10.692-3.165 10.098-3.255 9.482-3.356 8.849-3.468 8.2-3.591 7.535-3.725 6.857-3.872 6.168-4.03 5.471-4.199 4.767-4.381 4.056-4.573 3.342-4.776 2.628-4.991 1.913-5.214 1.203-5.448.494-5.69-.206-5.941-.899-6.199-1.582-6.463-2.254-6.733-2.911-7.009-3.555-7.286-4.182-7.568-4.79-7.849-5.379-8.132-5.948-8.413-6.495-8.692-7.019-8.967-7.518-9.236-7.992-9.5-8.441-9.757-8.863-10.002-9.257-10.239-9.623-10.463-9.961-10.674-10.271-10.871-10.55-11.051-10.802-11.215-11.023-11.359-11.216-11.485-11.379-11.59-11.515-11.672-11.621-11.732-11.7-11.767-11.751-11.779-11.777-11.765-11.775-11.723-11.748-11.655-11.699-11.559-11.624-11.436-11.528-11.283-11.411-11.101-11.273-10.892-11.117-10.651-10.942-10.383-10.753-10.085-10.547-9.758-10.327-9.403-10.096-9.02-9.853-8.607-9.601-8.17-9.34-7.706-9.072-7.216-8.799-6.701-8.522-6.164-8.242-5.603-7.959-5.022-7.677-4.42-7.396-3.8-7.116-3.164-6.84-2.512-6.567-1.844-6.301-1.166-6.041-.477-5.786.221-5.542.926-5.304 1.637-5.076 2.35-4.858 3.064-4.651 3.779-4.454 4.49-4.269 5.198-4.094 5.898-3.932 6.59-3.781 7.273-3.642 7.943-3.514 8.598-3.398 9.239-3.293 9.86-3.199 10.463-3.116 11.045-3.042 11.604-2.978 12.138-2.922 12.647-2.876 13.129-2.836 13.581-2.803 14.005-2.777 14.396-2.754 14.757-2.736 15.084-2.722 15.377-2.709 15.636-2.697 15.86-2.685 16.047-2.673 16.199-2.657 16.315-2.64 16.393-2.618 16.435-2.591 16.44-2.557 16.41-2.516 16.341-2.467 16.239-2.408 16.1-2.34 15.927-2.26 15.72-2.169 15.479-2.064 15.206-1.947 14.903-1.816 14.568-1.67 14.205-1.508 13.815-1.332 13.397-1.139 12.955-.93 12.49-.705 12.002-.464 11.494-.204 10.968.069 10.425.362 9.866.668 9.294.992 8.71 1.33 8.117 1.684 7.515 2.052 6.907 2.433 6.294 2.827 5.68 3.234 5.063 3.651 4.448 4.079 3.836 4.516 3.227 4.96 2.625 5.411 2.03 5.868 1.443 6.328.868 6.792.305 7.257-.246 7.721-.782 8.184-1.302 8.643-1.806 9.098-2.291 9.546-2.758 9.986-3.206 10.417-3.632 10.837-4.039 11.243-4.422 11.635-4.785 12.011-5.125 12.371-5.442 12.71-5.736 13.03-6.008 13.327-6.256 13.602-6.482 13.852-6.685 14.076-6.866 14.273-7.024 14.443-7.162 14.582-7.278 14.693-7.374 14.772-7.451 14.82-7.508 14.835-7.548 14.818-7.57 14.767-7.576 14.683-7.568 14.565-7.544 14.413-7.508 14.227-7.46 14.007-7.4 13.752-7.332 13.465-7.254 13.145-7.17 12.792-7.078 12.406-6.983 11.991-6.882 11.544-6.78 11.069-6.676 10.564-6.571 10.033-6.467 9.476-6.364 8.894-6.264 8.29-6.169 7.662-6.076 7.016-5.989 6.351-5.909 5.669-5.835 4.972-5.769 4.261-5.711 3.541-5.66 2.809-5.62 2.071-5.587 1.327-5.566.58-5.553-.169-5.55-.918-5.558-1.664-5.574-2.405-5.601-3.141-5.637-3.867-5.682-4.584-5.735-5.289-5.798-5.979-5.868-6.653-5.945-7.31-6.028-7.949-6.117-8.565-6.211-9.16-6.309-9.731-6.41-10.276-6.514-10.796-6.618-11.287-6.723-11.749-6.827-12.183-6.928-12.584-7.026-12.955-7.12-13.294-7.209-13.599-7.29-13.872-7.364-14.11-7.429-14.315-7.483-14.486-7.526-14.622-7.556-14.725-7.574-14.795-7.575-14.83-7.562-14.832-7.532-14.802-7.485-14.74-7.418-14.647-7.334-14.523-7.228-14.369-7.102-14.188-6.955-13.978-6.787-13.742-6.596-13.481-6.383-13.195-6.146-12.889-5.888-12.559-5.607-12.21-5.301-11.844-4.974-11.46-4.624-11.061-4.252-10.648-3.858-10.224-3.442-9.789-3.006-9.344-2.55-8.893-2.073-8.437-1.58-7.975-1.07-7.511-.542-7.047.001-6.582.558-6.12 1.126-5.661 1.708-5.207 2.297-4.758 2.896-4.317 3.502-3.885 4.112-3.461 4.726-3.049 5.341-2.647 5.958-2.26 6.572-1.883 7.182-1.523 7.788-1.175 8.386-.844 8.975-.528 9.554-.227 10.12.056 10.672.324 11.208.574 11.726.809 12.225 1.027 12.703 1.228 13.157 1.413 13.589 1.584 13.995 1.737 14.372 1.877 14.723 2.002 15.044 2.113 15.334 2.212 15.592 2.297 15.817 2.372 16.009 2.436 16.167 2.49 16.29 2.536 16.377 2.573 16.428 2.603 16.442 2.629 16.421 2.648 16.362 2.665 16.267 2.679 16.135 2.69 15.967 2.703 15.763 2.714 15.523 2.728 15.249 2.744 14.94 2.764 14.599 2.787 14.223 2.818 13.817 2.853 13.38 2.896 12.915 2.946 12.42 3.006 11.9 3.074 11.355 3.152 10.784 3.24 10.194 3.339 9.582 3.449 8.951 3.571 8.304 3.703 7.641 3.848 6.966 4.004 6.279 4.171 5.583 4.351 4.879 4.542 4.169 4.743 3.456 4.956 2.742 5.178 2.027 5.41 1.315 5.651.607 5.9-.095 6.157-.789 6.421-1.474 6.69-2.148 6.965-2.807 7.242-3.454 7.522-4.082 7.805-4.695 8.087-5.287 8.368-5.859 8.647-6.409 8.924-6.937 9.194-7.44 9.458-7.919 9.716-8.371 9.964-8.797 10.202-9.197 10.429-9.566 10.641-9.91 10.84-10.223 11.024-10.508 11.19-10.763 11.337-10.99 11.467-11.187 11.574-11.356 11.66-11.495 11.724-11.606 11.764-11.689 11.779-11.745 11.768-11.774 11.732-11.777 11.667-11.755 11.577-11.707 11.457-11.638 11.309-11.545 11.133-11.431 10.926-11.296 10.692-11.143 10.427-10.972 10.135-10.783 9.812-10.581 9.461-10.363 9.082-10.134 8.676-9.892 8.241-9.642 7.782-9.382 7.295-9.115 6.785-8.843 6.251-8.567 5.694-8.286 5.116-8.004 4.517-7.722 3.9-7.44 3.267-7.161 2.616-6.884 1.951-6.61 1.275-6.343.587-6.082-.109-5.827-.814-5.579-1.523-5.341-2.236-5.112-2.951-4.893-3.665-4.683-4.377-4.485-5.085-4.297-5.787-4.121-6.481-3.957-7.165-3.805-7.837-3.663-8.495-3.534-9.137-3.415-9.763-3.31-10.369-3.213-10.953-3.128-11.517-3.053-12.054-2.987-12.568-2.931-13.054-2.883-13.511-2.842-13.939-2.808-14.336-2.78-14.702-2.758-15.034-2.739-15.333-2.723-15.597-2.711-15.826-2.699-16.02-2.687-16.178-2.675-16.298-2.66-16.383-2.643-16.431-2.622-16.442-2.596-16.416-2.562-16.355-2.523-16.258-2.476-16.124-2.418-15.957-2.351-15.755-2.274-15.519-2.184-15.252-2.082-14.953-1.967-14.624-1.837-14.265-1.694-13.878-1.535-13.466-1.361-13.027-1.171-12.565-.965-12.081-.742-11.577-.503-11.052-.247-10.513.025-9.956.314-9.385.618-8.804.939-8.212 1.276-7.611 1.626-7.005 1.992-6.392 2.372-5.777 2.764-5.162 3.168-4.546 3.584-3.933 4.01-3.324 4.446-2.72 4.888-2.124 5.339-1.536 5.795-.96 6.255-.393 6.718.16 7.183.697 7.647 1.22 8.11 1.727 8.571 2.216 9.025 2.685 9.476 3.135 9.917 3.566 10.349 3.975 10.77 4.363 11.179 4.729 11.574 5.072 11.953 5.393 12.315 5.691 12.657 5.966 12.98 6.218 13.282 6.448 13.56 6.654 13.814 6.838 14.041 7 14.244 7.142 14.418 7.261 14.562 7.36 14.677 7.44 14.761 7.5 14.815 7.542 14.835 7.568 14.823 7.577 14.778 7.57 14.698 7.548 14.587 7.515 14.439 7.468 14.259 7.411 14.043 7.343 13.796 7.267 13.513 7.184 13.198 7.093 12.85 6.998 12.47 6.899 12.059 6.796 11.617 6.692 11.147 6.588 10.646 6.483 10.12 6.381 9.566 6.28 8.989 6.183 8.387 6.09 7.763 6.003 7.121 5.922 6.458 5.846 5.778 5.779 5.084 5.719 4.375 5.668 3.656 5.625 2.927 5.593 2.189 5.568 1.446 5.554.699 5.55-.05 5.556-.799 5.571-1.545 5.596-2.288 5.631-3.024 5.674-3.752 5.726-4.471 5.788-5.177 5.856-5.87 5.932-6.547 6.014-7.207 6.103-7.848 6.195-8.469 6.294-9.067 6.394-9.641 6.497-10.191 6.601-10.715 6.707-11.211 6.81-11.678 6.912-12.115 7.011-12.523 7.105-12.898 7.195-13.242 7.278-13.553 7.353-13.83 7.419-14.074 7.475-14.285 7.52-14.461 7.552-14.603 7.572-14.711 7.576-14.786 7.565-14.827 7.538-14.834 7.494-14.809 7.43-14.752 7.348-14.664 7.246-14.544 7.124-14.396 6.98-14.218 6.815-14.014 6.628-13.781 6.418-13.524 6.186-13.243 5.931-12.938 5.653-12.613 5.351-12.268 5.028-11.903 4.681-11.522 4.313-11.126 3.921-10.715 3.51-10.292 3.077-9.858 2.623-9.416 2.152-8.966 1.66-8.509 1.152-8.049.626-7.585.087-7.121-.468-6.656-1.036-6.193-1.614-5.734-2.203-5.279-2.8-4.829-3.405-4.387-4.014-3.953-4.628-3.528-5.244-3.114-5.859-2.71-6.474-2.321-7.085-1.942-7.692-1.579-8.291-1.23-8.882-.895-9.463-.577-10.031-.275-10.585.012-11.124.283-11.645.535-12.146.773-12.628.993-13.087 1.197-13.522 1.385-13.932 1.558-14.314 1.713-14.669 1.856-14.995 1.983-15.289 2.096-15.553 2.197-15.784 2.285-15.981 2.361-16.144 2.426-16.273 2.482-16.365 2.529-16.422 2.568-16.442 2.599-16.427 2.625-16.374 2.645-16.284 2.663-16.159 2.676-15.996 2.689-15.798 2.7-15.564 2.713-15.295 2.725-14.991 2.741-14.655 2.761-14.285 2.783-13.884 2.813-13.452 2.847-12.991 2.888-12.501 2.938-11.984 2.996-11.443 3.062-10.877 3.139-10.289 3.226-9.68 3.322-9.053 3.431-8.408 3.55-7.748 3.682-7.075 3.824-6.389 3.978-5.694 4.144-4.991 4.322-4.283 4.51-3.57 4.711-2.855 4.921-2.141 5.142-1.428 5.372-.72 5.612-.016 5.86.68 6.116 1.365 6.379 2.041 6.647 2.704 6.92 3.351 7.198 3.984 7.477 4.598 7.76 5.194 8.042 5.77 8.324 6.323 8.603 6.854 8.879 7.362 9.152 7.844 9.417 8.3 9.675 8.732 9.925 9.134 10.165 9.51 10.393 9.857 10.609 10.175 10.809 10.464 10.996 10.725 11.164 10.956 11.316 11.157 11.447 11.331 11.558 11.474 11.649 11.591 11.715 11.677 11.759 11.738 11.778 11.772 11.772 11.778 11.739 11.76 11.68 11.717 11.593 11.65 11.478 11.561 11.335 11.45 11.162 11.319 10.962 11.169 10.731 11 10.471 10.815 10.183 10.614 9.866 10.398 9.519 10.171 9.144 9.932 8.742 9.682 8.313 9.424 7.856 9.158 7.375 8.887 6.868 8.61 6.337 8.331 5.784 8.05 5.209 7.766 4.614 7.486 4 7.204 3.368 6.928 2.721 6.654 2.058 6.385 1.384 6.123.697 5.867.002 5.618-.701 5.378-1.41 5.148-2.122 4.927-2.837 4.716-3.551 4.515-4.264 4.327-4.973 4.148-5.676 3.983-6.371 3.828-7.057 3.685-7.73 3.553-8.392 3.434-9.036 3.325-9.664 3.228-10.274 3.141-10.862 3.064-11.428 2.998-11.971 2.939-12.488 2.89-12.978 2.848-13.44 2.813-13.873 2.784-14.275 2.761-14.646 2.742-14.983 2.726-15.288 2.712-15.557 2.701-15.792 2.689-15.992 2.677-16.155 2.663-16.281 2.646-16.372 2.625-16.426 2.6-16.443 2.569-16.423 2.53-16.367 2.483-16.275 2.428-16.148 2.363-15.986 2.287-15.789 2.199-15.56 2.099-15.297 1.986-15.002 1.859-14.678 1.718-14.324 1.561-13.942 1.39-13.533 1.202-13.098.999-12.641.778-12.159.542-11.659.29-11.137.019-10.6-.267-10.045-.569-9.478-.887-8.897-1.221-8.307-1.569-7.707-1.933-7.101-2.31-6.49-2.701-5.876-3.103-5.26-3.517-4.644-3.942-4.03-4.375-3.42-4.818-2.816-5.267-2.219-5.722-1.629-6.181-1.05-6.644-.483-7.109.072-7.573.613-8.037 1.139-8.497 1.647-8.954 2.138-9.404 2.612-9.847 3.065-10.281 3.499-10.704 3.911-11.115 4.303-11.512 4.672-11.893 5.019-12.258 5.343-12.605 5.645-12.93 5.924-13.235 6.18-13.517 6.412-13.775 6.623-14.007 6.81-14.214 6.976-14.391 7.121-14.542 7.243-14.66 7.346-14.751 7.428-14.808 7.492-14.834 7.537-14.827 7.565-14.787 7.576-14.713 7.572-14.607 7.553-14.465 7.521-14.289 7.476-14.081 7.421-13.837 7.354-13.56 7.28-13.251 7.197-12.907 7.109-12.533 7.013-12.126 6.915-11.69 6.812-11.223 6.709-10.728 6.605-10.205 6.5-9.656 6.396-9.083 6.296-8.484 6.199-7.864 6.105-7.224 6.016-6.565 5.934-5.888 5.858-5.195 5.789-4.49 5.728-3.77 5.676-3.044 5.631-2.307 5.597-1.564 5.572-.818 5.555-.07 5.551.68 5.554 1.426 5.568 2.17 5.591 2.907 5.624 3.637 5.667 4.357 5.718 5.066 5.777 5.76 5.845 6.44 5.919 7.104 6.001 7.747 6.088 8.371 6.18 8.974 6.278 9.551 6.378 10.105 6.481 10.634 6.584 11.133 6.69 11.606 6.794 12.047 6.896 12.46 6.995 12.841 7.091 13.189 7.181 13.505 7.265 13.789 7.342 14.038 7.409 14.253 7.467 14.435 7.513 14.583 7.548 14.696 7.57 14.776 7.576 14.822 7.568 14.835 7.544 14.816 7.502 14.763 7.441 14.68 7.363 14.565 7.263 14.422 7.145 14.248 7.005 14.048 6.843 13.82 6.659 13.567 6.453 13.289 6.224 12.988 5.973 12.666 5.698 12.324 5.402 11.963 5.08 11.583 4.738 11.19 4.373 10.781 3.986 10.361 3.576 9.928 3.147 9.487 2.697 9.037 2.228 8.582 1.74 8.123 1.234 7.659.711 7.195.173 6.73-.378 6.267-.944 5.807-1.522 5.35-2.108 4.901-2.705 4.457-3.308 4.021-3.917 3.595-4.53 3.179-5.145 2.774-5.762 2.382-6.376 2.001-6.989 1.636-7.595 1.285-8.196.947-8.789.627-9.371.322-9.941.032-10.498-.24-11.039-.497-11.563-.736-12.068-.959-12.553-1.166-13.016-1.356-13.454-1.531-13.868-1.69-14.255-1.834-14.615-1.963-14.945-2.079-15.244-2.182-15.513-2.271-15.75-2.35-15.951-2.417-16.121-2.474-16.255-2.521-16.352-2.562-16.416-2.595-16.442-2.621-16.431-2.643-16.385-2.66-16.301-2.674-16.181-2.687-16.025-2.698-15.832-2.711-15.603-2.723-15.34-2.739-15.043-2.757-14.71-2.779-14.346-2.808-13.95-2.841-13.523-2.881-13.066-2.93-12.581-2.985-12.068-3.052-11.531-3.126-10.969-3.211-10.384-3.306-9.779-3.413-9.153-3.53-8.512-3.66-7.855-3.801-7.182-3.952-6.499-4.117-5.805-4.293-5.104-4.48-4.396-4.678-3.683-4.886-2.97-5.106-2.254-5.336-1.542-5.573-.832-5.82-.128-6.075.57-6.336 1.257-6.604 1.934-6.876 2.599-7.153 3.25-7.433 3.883-7.715 4.502-7.997 5.1-8.279 5.68-8.559 6.236-8.836 6.771-9.108 7.283-9.375 7.769-9.635 8.23-9.886 8.664-10.127 9.072-10.358 9.452-10.575 9.803-10.779 10.127-10.966 10.42-11.139 10.685-11.293 10.921-11.427 11.128-11.542 11.305-11.636 11.453-11.706 11.574-11.754 11.666-11.777 11.73-11.774 11.768-11.746 11.778-11.691 11.765-11.609 11.725-11.498 11.663L177.873 302l-11.192 11.47-10.996 11.341-10.769 11.194-10.515 11.028-10.231 10.845-9.918 10.647-9.576 10.434-9.206 10.208-8.808 9.971-8.383 9.722-7.93 9.466-7.454 9.201-6.95 8.93-6.423 8.655-5.874 8.375-5.302 8.095-4.71 7.812-4.099 7.53-3.47 7.249-2.825 6.971-2.164 6.698-1.492 6.427-.807 6.164-.114 5.907.589 5.658 1.296 5.416 2.01 5.184 2.722 4.961 3.438 4.749 4.15 4.546 4.861 4.356 5.564 4.177 6.261 4.008 6.949 3.851 7.624 3.707 8.287 3.574 8.934 3.452 9.566 3.342 10.177 3.243 10.77 3.154 11.34 3.076 11.886 3.007 12.407 2.948 12.902 2.897 13.369 2.854 13.806 2.818 14.213 2.789 14.589 2.764 14.931 2.745 15.242 2.728 15.516 2.715 15.758 2.702 15.962 2.691 16.131 2.679 16.264 2.665 16.36 2.649 16.419 2.629 16.443 2.605 16.428 2.574 16.379 2.536 16.292 2.491 16.171 2.438 16.014 2.374 15.823 2.3 15.598 2.213 15.34 2.116 15.052 2.005 14.732 1.881 14.382 1.741 14.004 1.587 13.6 1.418 13.169 1.234 12.715 1.032 12.238.814 11.739.581 11.222.331 10.686.063 10.135-.22 9.569-.519 8.99-.836 8.401-1.166 7.804-1.514 7.198-1.874 6.588-2.249 5.973-2.637 5.358-3.039 4.742-3.45 4.128-3.873 3.517-4.306 2.912-4.747 2.313-5.195 1.722-5.649 1.142-6.108.572-6.57.015-7.035-.527-7.499-1.056-7.963-1.567-8.424-2.062-8.882-2.537-9.333-2.994-9.777-3.431-10.212-3.848-10.638-4.241-11.05-4.615-11.45-4.965-11.834-5.293-12.201-5.599-12.551-5.881-12.879-6.14-13.189-6.377-13.473-6.591-13.736-6.782-13.972-6.951-14.182-7.099-14.365-7.225-14.52-7.331-14.644-7.416-14.738-7.483-14.801-7.531-14.832-7.562-14.83-7.575-14.796-7.574-14.727-7.557-14.626-7.527-14.49-7.484-14.32-7.43-14.116-7.366-13.878-7.292-13.607-7.211-13.302-7.122-12.964-7.029-12.595-6.931-12.193-6.829-11.761-6.726-11.3-6.621-10.808-6.516-10.29-6.413-9.746-6.312-9.175-6.214-8.581-6.119-7.965-6.03-7.327-5.947-6.67-5.869-5.997-5.8-5.307-5.737-4.603-5.684-3.886-5.637-3.16-5.602-2.424-5.575-1.683-5.558-.937-5.55-.19-5.553.561-5.565 1.308-5.587 2.052-5.619 2.79-5.659 3.521-5.709 4.243-5.767 4.954-5.833 5.65-5.907 6.334-5.988 6.999-6.074 7.646-6.165 8.273-6.262 8.879-6.362 9.46-6.464 10.02-6.568 10.55-6.673 11.056-6.777 11.532-6.88 11.98-6.98 12.396-7.076 12.782-7.167 13.136-7.252 13.457-7.33 13.746-7.399 14-7.458 14.222-7.507 14.408-7.544 14.562-7.567 14.68-7.576 14.766-7.571 14.817-7.548 14.835-7.51 14.821-7.452 14.774-7.376 14.695-7.281 14.586-7.165 14.446-7.028 14.278-6.87 14.081-6.69 13.858-6.488 13.609-6.262 13.335-6.015 13.038-5.743 12.719-5.45 12.379-5.134 12.022-4.794 11.645-4.432 11.253-4.049 10.848-3.643 10.428-3.217 9.997-2.77 9.558-2.303 9.11-1.82 8.655-1.315 8.196-.795 7.733-.26 7.268.29 6.804.853 6.341 1.428 5.88 2.015 5.423 2.609 4.972 3.211 4.527 3.82 4.09 4.432 3.662 5.048 3.245 5.663 2.838 6.279 2.443 6.891 2.061 7.499 1.693 8.101 1.34 8.695 1 9.279.677 9.851.369 10.41.077 10.954-.198 11.481-.457 11.989-.699 12.477-.924 12.944-1.134 13.386-1.327 13.803-1.504 14.196-1.666 14.559-1.812 14.894-1.944 15.199-2.061 15.473-2.167 15.713-2.257 15.922-2.338 16.096-2.407 16.236-2.466 16.339-2.514 16.408-2.556 16.44-2.59 16.436-2.617 16.394-2.64 16.317-2.657 16.203-2.673 16.052-2.685 15.865-2.696 15.642-2.709 15.384-2.721 15.092-2.736 14.766-2.754 14.406-2.775 14.015-2.803 13.593-2.835 13.141-2.875 12.66-2.921 12.152-2.976 11.617-3.04 11.06-3.114 10.479-3.197 9.876-3.29 9.255-3.395 8.615-3.511 7.96-3.639 7.29-3.777 6.609-3.928 5.916-4.09 5.216-4.264 4.509-4.449 3.797-4.645 3.083-4.853 2.369-5.071 1.655-5.298.944-5.535.24-5.78-.459-6.033-1.148-6.295-1.827-6.56-2.494-6.833-3.147-7.109-3.784-7.388-4.405-7.67-5.006-7.952-5.588-8.234-6.149-8.515-6.688-8.792-7.203-9.065-7.693-9.333-8.158-9.594-8.597-9.847-9.009-10.09-9.394-10.321-9.749-10.542-10.077-10.747-10.375-10.938-10.645-11.112-10.885-11.27-11.097-11.407-11.278-11.525-11.432-11.622-11.557-11.697-11.653-11.748-11.721-11.774-11.764-11.777-11.779-11.752-11.768-11.702-11.733-11.624-11.674-11.517-11.592-11.384-11.488-11.22-11.363-11.029-11.219-10.808-11.055-10.557-10.876-10.278-10.679-9.97-10.469-9.632-10.245-9.267-10.009-8.873-9.762-8.453-9.507-8.004-9.244-7.53-8.974-7.033-8.699-6.509-8.42-5.962-8.139-5.395-7.857-4.806-7.575-4.197-7.293-3.571-7.016-2.929-6.741-2.27-6.47-1.6-6.205-.918-5.948-.224-5.697.476-5.454 1.184-5.22 1.895-4.996 2.61-4.782 3.323-4.578 4.038-4.385 4.747-4.204 5.453-4.034 6.15-3.876 6.84-3.729 7.517-3.595 8.183-3.47 8.832-3.359 9.466-3.258 10.082-3.167 10.677-3.088 11.25-3.017 11.801-2.957 12.326-2.905 12.825-2.86 13.296-2.824 13.739-2.793 14.15-2.768 14.531-2.747 14.88-2.731 15.194-2.716 15.475-2.705 15.721-2.693 15.932-2.68 16.107-2.668 16.245-2.652 16.347-2.632 16.413-2.609 16.441-2.579 16.433-2.543 16.389-2.499 16.309-2.447 16.192-2.385 16.041-2.312 15.856-2.228 15.636-2.133 15.384-2.023 15.1-1.901 14.784-1.765 14.44-1.612 14.067-1.447 13.666-1.263 13.239-1.066 12.789-.85 12.315-.619 11.82-.372 11.306-.107 10.772.174 10.224.471 9.66.784 9.083 1.113 8.496 1.457 7.899 1.815 7.295 2.189 6.685 2.575 6.072 2.973 5.456 3.384 4.84 3.806 4.225 4.236 3.614 4.676 3.008 5.123 2.408 5.577 1.816 6.034 1.233 6.497.663 6.96.103 7.425-.443 7.89-.972 8.351-1.487 8.809-1.984 9.261-2.463 9.707-2.923 10.144-3.363 10.57-3.782 10.986-4.18 11.387-4.557 11.774-4.911 12.144-5.243 12.496-5.551 12.828-5.838 13.141-6.1 13.43-6.341 13.695-6.558 13.936-6.753 14.151-6.926 14.338-7.077 14.497-7.206 14.626-7.315 14.725-7.404 14.793-7.474 14.829-7.525 14.833-7.558 14.803-7.574 14.741-7.575 14.644-7.56 14.514-7.533 14.349-7.492 14.151-7.439 13.918-7.377 13.652-7.304 13.353-7.225 13.02-7.137 12.656-7.044 12.259-6.946 11.832-6.846 11.375-6.742 10.889-6.638 10.374-6.533 9.834-6.429 9.268-6.328 8.677-6.229 8.064-6.134 7.43-6.044 6.777-5.96 6.105-5.881 5.417-5.81 4.716-5.747 4.001-5.691 3.276-5.645 2.542-5.607 1.802-5.578 1.056-5.56.308-5.551-.441-5.552-1.189-5.562-1.933-5.583-2.674-5.613-3.405-5.652-4.129-5.701-4.841-5.757-5.541-5.822-6.225-5.895-6.894-5.974-7.545-6.06-8.174-6.151-8.784-6.246-9.37-6.346-9.932-6.447-10.468-6.552-10.977-6.656-11.458-6.761-11.91-6.864-12.332-6.964-12.723-7.061-13.082-7.153-13.408-7.239-13.702-7.318-13.962-7.388-14.188-7.45-14.381-7.5-14.54-7.538-14.663-7.565-14.755-7.576-14.811-7.572-14.834-7.553-14.826-7.517-14.783-7.463-14.71-7.39-14.605-7.297-14.47-7.185-14.307-7.051-14.115-6.897-13.895-6.72-13.65-6.521-13.38-6.3-13.087-6.056-12.771-5.788-12.435-5.498-12.079-5.186-11.707-4.85-11.316-4.49-10.913-4.112-10.496-3.71-10.067-3.285-9.628-2.843-9.181-2.379-8.728-1.897-8.269-1.397-7.807-.88-7.343-.346-6.878.201-6.414.763-5.953 1.337-5.496 1.92-5.043 2.514-4.597 3.115-4.159 3.722-3.73 4.335-3.311 4.95-2.901 5.564-2.506 6.181-2.121 6.794-1.751 7.403-1.395 8.005-1.053 8.601-.727 9.187-.417 9.761-.123 10.322.155 10.869.417 11.398.662 11.909.889 12.401 1.102 12.871 1.297 13.317 1.477 13.739 1.641 14.135 1.79 14.503 1.924 14.843 2.044 15.152 2.15 15.431 2.244 15.678 2.326 15.891 2.396 16.071 2.457 16.215 2.508 16.326 2.55 16.399 2.584 16.437 2.614 16.439 2.636 16.404 2.655 16.332 2.67 16.223 2.683 16.078 2.695 15.897 2.706 15.68 2.719 15.428 2.734 15.141 2.75 14.82 2.772 14.466 2.798 14.079 2.83 13.662 2.868 13.215 2.913 12.738 2.967 12.235 3.029 11.705 3.101 11.15 3.183 10.573 3.275 9.973 3.378 9.355 3.492 8.718 3.617 8.066 3.754 7.397 3.903 6.718 4.064 6.027 4.235 5.328 4.419 4.622 4.614 3.911 4.819 3.197 5.035 2.482 5.261 1.769 5.496 1.057 5.741.352 5.993-.348 6.252-1.04 6.518-1.719 6.789-2.389 7.065-3.044 7.343-3.684 7.625-4.306 7.907-4.912 8.189-5.497 8.47-6.062 8.748-6.603 9.023-7.122 9.29-7.617 9.553-8.086 9.808-8.529 10.051-8.945 10.286-9.334 10.507-9.695 10.715-10.026 10.909-10.33 11.086-10.604 11.245-10.849 11.387-11.065 11.508-11.251 11.608-11.41 11.686-11.538 11.742-11.64 11.772-11.713 11.778-11.758 11.758-11.778 11.711-11.772 11.638-11.74 11.536-11.685 11.407-11.607 11.248-11.506 11.062-11.384 10.844-11.243 10.6-11.083 10.324-10.905 10.021-10.712 9.688-10.503 9.327-10.281 8.937-10.048 8.522-9.802 8.077-9.548 7.608-9.286 7.113-9.018 6.594-8.743 6.051-8.464 5.486-8.184 4.901-7.902 4.296-7.62 3.672-7.338 3.032-7.06 2.376-6.784 1.708-6.513 1.026-6.248.336-5.988-.365-5.736-1.07-5.492-1.782-5.257-2.495-5.031-3.21-4.815-3.924-4.61-4.635-4.415-5.341-4.233-6.04-4.06-6.73-3.9-7.41-3.752-8.078-3.615-8.73-3.489-9.366-3.376-9.985-3.273-10.584-3.181-11.16-3.1-11.715-3.028-12.244-2.966-12.747-2.913-13.223-2.867-13.67-2.829-14.087-2.797-14.473-2.771-14.826-2.751-15.146-2.733-15.433-2.719-15.684-2.706-15.901-2.695-16.081-2.682-16.226-2.67-16.333-2.655-16.405-2.636-16.439-2.613-16.437-2.584-16.398-2.549-16.324-2.507-16.213-2.455-16.068-2.396-15.887-2.324-15.673-2.243-15.427-2.148-15.147-2.042-14.836-1.921-14.497-1.788-14.128-1.638-13.731-1.473-13.31-1.294-12.862-1.098-12.392-.886-11.9-.657-11.389-.412-10.858-.15-10.312.128-9.751.422-9.176.733-8.59 1.06-7.994 1.401-7.392 1.757-6.782 2.129-6.17 2.512-5.554 2.909-4.938 3.318-4.323 3.738-3.711 4.167-3.105 4.605-2.502 5.052-1.91 5.504-1.326 5.961-.752 6.423-.191 6.886.356 7.352.89 7.815 1.406 8.278 1.906 8.736 2.388 9.19 2.85 9.636 3.295 10.075 3.716 10.504 4.119 10.92 4.498 11.324 4.856 11.713 5.191 12.086 5.504 12.442 5.794 12.777 6.06 13.092 6.304 13.385 6.525 13.655 6.723 13.9 6.9 14.118 7.054 14.31 7.187 14.474 7.299 14.607 7.392 14.711 7.464 14.785 7.517 14.825 7.554 14.835 7.573 14.81 7.576 14.753 7.563 14.662 7.538 14.537 7.499 14.378 7.449 14.184 7.387 13.958 7.317 13.697 7.237 13.402 7.152 13.076 7.059 12.715 6.962 12.325 6.862 11.902 6.759 11.45 6.654 10.968 6.55 10.458 6.446 9.922 6.343 9.359 6.245 8.773 6.149 8.164 6.058 7.532 5.973 6.882 5.893 6.213 5.821 5.528 5.756 4.828 5.7 4.116 5.651 3.392 5.612 2.66 5.583 1.92 5.562 1.175 5.552.427 5.551-.322 5.56-1.07 5.579-1.815 5.607-2.556 5.645-3.289 5.693-4.014 5.747-4.729 5.812-5.43 5.883-6.118 5.961-6.788 6.045-7.442 6.136-8.076 6.231-8.688 6.33-9.279 6.431-9.844 6.535-10.384 6.639-10.898 6.744-11.384 6.848-11.84 6.948-12.267 7.046-12.662 7.139-13.027 7.226-13.358 7.306-13.658 7.377-13.923 7.441-14.154 7.493-14.353 7.533-14.516 7.561-14.647 7.575-14.742 7.574-14.804 7.557-14.833 7.524-14.829 7.473-14.792 7.402-14.724 7.314-14.624 7.204-14.494 7.074-14.334 6.923-14.147 6.75-13.932 6.554-13.691 6.336-13.425 6.096-13.135 5.833-12.823 5.546-12.49 5.236-12.137 4.905-11.767 4.55-11.38 4.173-10.978 3.775-10.563 3.355-10.135 2.914-9.699 2.455-9.253 1.975-8.801 1.477-8.342.963-7.881.433-7.417-.113-6.952-.673-6.488-1.244-6.026-1.827-5.568-2.418-5.115-3.019-4.668-3.626-4.228-4.237-3.798-4.851-3.376-5.467-2.966-6.083-2.568-6.696-2.182-7.306-1.809-7.91-1.45-8.507-1.107-9.094-.778-9.671-.465-10.233-.169-10.783.113-11.315.376-11.829.623-12.324.855-12.797 1.069-13.248 1.267-13.673 1.449-14.074 1.616-14.446 1.767-14.791 1.904-15.105 2.025-15.389 2.135-15.641 2.23-15.859 2.313-16.044 2.386-16.195 2.448-16.31 2.5-16.39 2.544-16.434 2.58-16.441 2.609-16.412 2.633-16.345 2.652-16.243 2.667-16.104 2.682-15.928 2.693-15.717 2.704-15.471 2.717-15.189 2.731-14.873 2.748-14.524 2.768-14.143 2.794-13.731 2.824-13.288 2.861-12.816 2.905-12.316 2.958-11.791 3.019-11.24 3.089-10.666 3.169-10.07 3.26-9.455 3.36-8.821 3.473-8.17 3.597-7.505 3.732-6.827 3.878-6.138 4.037-5.44 4.208-4.735 4.388-4.024 4.582-3.31 4.786-2.597 5-1.882 5.224-1.17 5.459-.464 5.701.238 5.952.93 6.211 1.611 6.475 2.284 6.745 2.94 7.021 3.583 7.299 4.209 7.58 4.816 7.862 5.406 8.144 5.972 8.426 6.52 8.704 7.04 8.979 7.54 9.248 8.013 9.512 8.46 9.767 8.881 10.014 9.274 10.249 9.639 10.472 9.975 10.684 10.284 10.879 10.562 11.058 10.812 11.222 11.032 11.365 11.224 11.49 11.386 11.594 11.52 11.675 11.625 11.734 11.703 11.769 11.753 11.779 11.777 11.763 11.774 11.721 11.747 11.651 11.696 11.555 11.62 11.429 11.524 11.275 11.405 11.093 11.266 10.881 11.11 10.641 10.934 10.37 10.744 10.071L374 697.794l10.318 9.386 10.085 9.002 9.842 8.589 9.589 8.15 9.329 7.685 9.06 7.193 8.787 6.678 8.509 6.139 8.229 5.578 7.947 4.996 7.665 4.393 7.383 3.773 7.104 3.134 6.827 2.482 6.556 1.815 6.289 1.136 6.029.446 5.776-.253 5.53-.957 5.294-1.668 5.066-2.382 4.849-3.096 4.642-3.811 4.446-4.522 4.26-5.228 4.087-5.93 3.925-6.621 3.775-7.302 3.636-7.972 3.509-8.627 3.393-9.267 3.289-9.887 3.195-10.49 3.112-11.07 3.038-11.628 2.976-12.162 2.92-12.669 2.874-13.149 2.834-13.601 2.802-14.022 2.776-14.414 2.753-14.772 2.736-15.097 2.721-15.39 2.708-15.646 2.696-15.869 2.685-16.055 2.672-16.205 2.657-16.319 2.639-16.396 2.617-16.436 2.589-16.439 2.556-16.407 2.514-16.338 2.464-16.234 2.406-16.093 2.336-15.918 2.256-15.71 2.165-15.468 2.059-15.193 1.942-14.889 1.81-14.552 1.662-14.189 1.501-13.796 1.324-13.378 1.13-12.935.921-12.469.694-11.98.453-11.471.193-10.944-.083-10.4-.374-9.841-.683-9.268-1.006-8.684-1.346-8.091-1.7-7.488-2.068-6.88-2.451-6.267-2.845-5.652-3.252-5.036-3.67-4.421-4.098-3.809-4.535-3.2-4.98-2.598-5.432-2.004L621 69.997l-6.349-.843-6.812-.28-7.278.27-7.741.805-8.205 1.325-8.663 1.828-9.118 2.313-9.566 2.778-10.005 3.225-10.436 3.65-10.855 4.057-11.261 4.439-11.652 4.8-12.028 5.14-12.386 5.455-12.725 5.749-13.044 6.019-13.34 6.267-13.613 6.491-13.862 6.694-14.086 6.873-14.281 7.031-14.449 7.167-14.588 7.283-14.697 7.378-14.775 7.454-14.821 7.51-14.835 7.549-14.817 7.571-14.764 7.576-14.679 7.567-14.559 7.543-14.405 7.506-14.218 7.457-13.996 7.398-13.74 7.329-13.452 7.25-13.13 7.166-12.775 7.074-12.389 6.978-11.971 6.878-11.524 6.775-11.046 6.672-10.542 6.566-10.009 6.462-9.45 6.36-8.868 6.26-8.262 6.164-7.634 6.072-6.987 5.986-6.321 5.905-5.638 5.833-4.94 5.766-4.23 5.708-3.509 5.658-2.776 5.618-2.038 5.587-1.294 5.564-.547 5.553.203 5.55.95 5.558 1.697 5.576 2.438 5.602 3.173 5.639 3.9 5.684 4.616 5.738 5.319 5.801 6.01 5.871 6.682 5.948 7.34 6.032 7.975 6.121 8.593 6.215 9.185 6.314 9.756 6.415 10.3 6.518 10.818 6.623 11.308 6.728 11.77 6.831 12.201 6.932 12.601 7.031 12.971 7.124 13.308 7.213 13.612 7.293 13.883 7.367 14.12 7.432 14.323 7.485 14.492 7.527 14.628 7.558 14.73 7.574 14.796 7.575 14.831 7.561 14.832 7.53 14.8 7.482 14.736 7.415 14.642 7.329 14.517 7.223 14.362 7.097 14.178 6.948 13.968 6.779 13.731 6.587 13.469 6.372 13.183 6.136 12.874 5.876 12.544 5.593 12.194 5.288 11.827 4.959 11.443 4.608 11.043 4.235 10.63 3.839 10.204 3.423 9.769 2.986 9.325 2.529 8.873 2.053 8.416 1.558 7.954 1.046 7.491.518 7.026-.025 6.562-.583 6.099-1.152 5.641-1.733 5.187-2.324 4.738-2.923 4.298-3.529 3.865-4.139 3.443-4.753 3.031-5.369 2.63-5.985 2.242-6.599 1.868-7.209 1.506-7.815 1.161-8.412.829-9.001.514-9.58.215-10.145-.069-10.696-.335-11.231-.585-11.749-.819-12.246-1.036-12.724-1.237-13.177-1.421-13.608-1.59-14.012-1.744-14.388-1.883-14.738-2.007-15.057-2.118-15.346-2.216-15.603-2.301-15.826-2.375-16.018-2.438-16.173-2.493-16.294-2.537-16.38-2.575-16.429-2.604-16.442-2.63-16.419-2.649-16.359-2.666-16.262-2.679-16.128-2.691-15.959-2.703-15.753-2.715-15.512-2.728-15.236-2.745-14.926-2.765-14.582-2.789-14.206-2.818-13.798-2.855-13.36-2.898-12.894-2.949-12.397-3.009-11.877-3.077-11.329-3.156-10.759-3.244-10.167-3.344-9.554-3.454-8.923-3.576-8.275-3.71-7.612-3.854-6.935-4.011-6.248-4.179-5.552-4.36-4.847-4.55-4.138-4.753-3.425-4.965-2.71-5.188-1.995-5.42-1.284-5.662-.575-5.912.126-6.169.82-6.432 1.504-6.703 2.177-6.976 2.837-7.254 3.481-7.536 4.11-7.817 4.722-8.099 5.313-8.381 5.884-8.66 6.433-8.935 6.96-9.206 7.461-9.47 7.94-9.727 8.39-9.975 8.816-10.213 9.213-10.438 9.583-10.65 9.924-10.849 10.236-11.031 10.52-11.197 10.774-11.344 10.999-11.471 11.196-11.579 11.362-11.664 11.5-11.726 11.611-11.765 11.692-11.779 11.747-11.767 11.775-11.729 11.776-11.664 11.753-11.572 11.705-11.451 11.634-11.302 11.541-11.124 11.425-10.917 11.29-10.681 11.136-10.415 10.963-10.12 10.775-9.797 10.571-9.445 10.354-9.065 10.123-8.657 9.881-8.222 9.631-7.76 9.37-7.273 9.103-6.762 8.831-6.227 8.554-5.668 8.274-5.09 7.992-4.49 7.709-3.873 7.428-3.237 7.148-2.587 6.872-1.922 6.598-1.245 6.332-.556 6.07.14 5.815.845 5.569 1.555 5.331 2.268 5.102 2.982 4.883 3.697 4.674 4.409 4.476 5.117 4.289 5.818 4.114 6.511 3.95 7.195 3.798 7.867 3.657 8.523 3.528 9.166 3.411 9.79 3.305 10.395 3.209 10.979 3.125 11.541 3.049 12.078 2.985 12.59 2.929 13.075 2.88 13.53 2.841 13.958 2.807 14.353 2.779 14.717 2.756 15.048 2.739 15.345 2.723 15.608 2.71 15.836 2.698 16.028 2.687 16.183 2.674 16.303 2.66 16.386 2.642 16.432 2.621 16.442 2.594 16.414 2.561 16.352 2.521 16.252 2.473 16.118 2.415 15.948 2.349 15.745 2.27 15.509 2.179 15.239 2.078 14.939 1.961 14.608 1.831 14.249 1.688 13.86 1.527 13.447 1.353 13.007 1.162 12.544.955 12.059.732 11.554.492 11.029.235 10.488-.037 9.931-.327 9.36-.632 8.778-.954 8.185-1.291 7.585-1.642 6.977-2.009 6.365-2.389 5.75-2.781 5.134-3.187 4.519-3.602 3.906-4.03 3.297-4.465 2.693-4.908 2.098-5.359 1.51-5.816.934-6.275.368-6.739-.183-7.203-.721-7.668-1.243-8.131-1.749-8.59-2.237-9.046-2.705-9.495-3.155-9.936-3.585-10.368-3.993-10.789-4.379-11.197-4.745-11.591-5.087-11.97-5.406-12.33-5.704-12.672-5.978-12.994-6.228-13.295-6.458-13.571-6.662-13.825-6.846-14.051-7.008-14.252-7.146-14.425-7.266-14.568-7.364-14.681-7.443-14.765-7.503-14.816-7.544-14.835-7.568-14.822-7.577-14.775-7.569-14.694-7.548-14.581-7.512-14.432-7.466-14.249-7.408-14.034-7.34-13.784-7.264-13.499-7.179-13.184-7.09-12.833-6.993-12.453-6.894-12.04-6.792-11.597-6.688-11.125-6.583-10.623-6.479-10.096-6.375-9.541-6.276-8.962-6.179-8.36-6.087-7.736-5.999-7.091-5.918-6.428-5.843-5.748-5.776-5.053-5.717-4.344-5.666-3.623-5.623-2.894-5.591-2.156-5.568-1.413-5.554-.666-5.55.084-5.556.831-5.572 1.579-5.597 2.32-5.632 3.057-5.677 3.784-5.729 4.502-5.79 5.209-5.859 5.9-5.936 6.577-6.018 7.236-6.106 7.876-6.2 8.495-6.298 9.093-6.399 9.667-6.502 10.215-6.606 10.737-6.711 11.232-6.814 11.698-6.917 12.134-7.015 12.54-7.11 12.915-7.199 13.256-7.281 13.566-7.356 13.842-7.422 14.084-7.477 14.293-7.521 14.468-7.554 14.609-7.572 14.715-7.576 14.788-7.565 14.828-7.536 14.834-7.491 14.807-7.427 14.749-7.344 14.659-7.241 14.538-7.118 14.389-6.973 14.21-6.807 14.003-6.619 13.771-6.409 13.512-6.175 13.229-5.919 12.925-5.639 12.598-5.338 12.252-5.013 11.886-4.665 11.505-4.296 11.108-3.904 10.696-3.49 10.273-3.058 9.84-2.603 9.395-2.13 8.946-1.638 8.489-1.128 8.028-.603 7.565-.063 7.1.493 6.635 1.061 6.173 1.64 5.714 2.23 5.258 2.826 4.81 3.432 4.367 4.042 3.934 4.655 3.509 5.27 3.096 5.888 2.693 6.501 2.303 7.112 1.927 7.719 1.563 8.318 1.214 8.908.881 9.488.564 10.055.261 10.61-.025 11.147-.294 11.668-.546 12.168-.783 12.649-1.002 13.107-1.206 13.541-1.393 13.949-1.565 14.33-1.72 14.685-1.862 15.008-1.988 15.302-2.101 15.564-2.201 15.793-2.288 15.989-2.364 16.15-2.43 16.278-2.484 16.368-2.531 16.424-2.569 16.443-2.6 16.425-2.626 16.37-2.646 16.28-2.664 16.152-2.677 15.988-2.689 15.788-2.701 15.553-2.713 15.282-2.726 14.978-2.742 14.639-2.761 14.268-2.785 13.865-2.814 13.432-2.848 12.97-2.891 12.478-2.94 11.961-2.999 11.418-3.065 10.852-3.143 10.262-3.229 9.653-3.328 9.025-3.436 8.379-3.555 7.718-3.688 7.044-3.83 6.359-3.986 5.663-4.152 4.96-4.329 4.251-4.52 3.538-4.719 2.824-4.931 2.109-5.152 1.397-5.383.688-5.623-.015-5.871-.71-6.127-1.396-6.391-2.071-6.659-2.733-6.932-3.38-7.21-4.011-7.49-4.625-7.772-5.22-8.055-5.794-8.336-6.348-8.616-6.877-8.892-7.384-9.163-7.865-9.428-8.32-9.687-8.75-9.936-9.152-10.176-9.525-10.402-9.872-10.618-10.188-10.818-10.477-11.004-10.735-11.171-10.966-11.322-11.166-11.453-11.337-11.562-11.481-11.652-11.594-11.718-11.681-11.76-11.74-11.779-11.773-11.771-11.777-11.737-11.759-11.676-11.714-11.589-11.647-11.472-11.557-11.328-11.445-11.154-11.312-10.952-11.162-10.72-10.992-10.459-10.806-10.17-10.605-9.85-10.389-9.503-10.16-9.127-9.921-8.724-9.671-8.293-9.412-7.835-9.146-7.353-8.875-6.845-8.598-6.313-8.318-5.759-8.037-5.183-7.755-4.587-7.472-3.973-7.193-3.34-6.915-2.69-6.642-2.03-6.373-1.353-6.111-.666-5.856.029-5.608.732-5.368 1.441-5.137 2.154-4.917 2.869-4.707 3.583-4.507 4.296-4.318 5.004-4.141 5.707-3.976 6.402-3.821 7.087-3.679 7.76-3.548 8.42-3.429 9.065-3.32 9.691-3.224 10.3-3.138 10.888-3.061 11.453-2.994 11.994-2.937 12.51-2.888 13-2.846 13.46-2.812 13.891-2.783 14.293-2.76 14.661-2.741 14.997-2.725 15.301-2.712 15.568-2.7 15.802-2.689 16-2.676 16.161-2.662 16.286-2.646 16.376-2.624 16.427-2.599 16.442-2.567 16.422-2.528 16.363-2.481 16.271-2.425 16.142-2.36 15.977-2.283 15.78-2.195 15.548-2.094 15.285-1.981 14.989-1.853 14.663-1.711 14.307-1.554 13.924-1.382 13.515-1.194 13.078-.989 12.62-.768 12.137-.532 11.636-.277 11.114-.007 10.575.28 10.021.582 9.452.902 8.871 1.236 8.28 1.585 7.681 1.95 7.074 2.327 6.463 2.718 5.848 3.121 5.232 3.536 4.617 3.961 4.003 4.395 3.394 4.837 2.789 5.287 2.192 5.743 1.603 6.201 1.025 6.665.458 7.129-.097 7.594-.636 8.057-1.161 8.518-1.67 8.974-2.16 9.424-2.632 9.866-3.085 10.3-3.517 10.723-3.929 11.133-4.32 11.529-4.688 11.91-5.034 12.274-5.357 12.619-5.658 12.945-5.935 13.248-6.191 13.529-6.422 13.786-6.632 14.017-6.818 14.222-6.983 14.398-7.126 14.547-7.248 14.666-7.35 14.753-7.432 14.81-7.494 14.835-7.539 14.826-7.565 14.784-7.577 14.71-7.571 14.601-7.552 14.458-7.519 14.281-7.474 14.07-7.418 13.825-7.352 13.548-7.276 13.236-7.193 12.891-7.104 12.516-7.01 12.107-6.91 11.67-6.808 11.202-6.704 10.705-6.6 10.181-6.495 9.631-6.392 9.056-6.292 8.458-6.194 7.836-6.101 7.195-6.013 6.535-5.93 5.858-5.855 5.164-5.786 4.457-5.726 3.739-5.673 3.011-5.63 2.274-5.595 1.532-5.571.784-5.555.037-5.55-.713-5.555-1.46-5.569-2.202-5.592-2.94-5.626-3.669-5.669-4.389-5.72-5.097-5.78-5.791-5.848-6.47-5.923-7.132-6.005-7.776-6.092-8.398-6.185-8.999-6.282-9.577-6.382-10.129-6.485-10.656-6.59-11.155-6.694-11.626-6.798-12.067-6.901-12.477-6.999-12.857-7.095-13.204-7.186-13.519-7.268-13.8-7.345-14.048-7.412-14.262-7.469-14.443-7.515-14.588-7.55-14.701-7.57-14.778-7.576-14.824-7.568-14.835-7.542-14.813-7.499-14.761-7.438-14.675-7.359-14.56-7.259-14.414-7.139-14.24-6.998-14.039-6.835-13.809-6.65-13.555-6.444-13.276-6.213-12.974-5.961-12.652-5.686-12.308-5.388-11.946-5.066-11.567-4.722-11.171-4.356-10.763-3.968-10.341-3.558-9.909-3.127-9.467-2.677-9.018-2.206-8.562-1.718-8.101-1.21-7.639-.689-7.174-.149-6.71.404-6.246.97-5.787 1.546-5.33 2.135-4.881 2.731-4.437 3.335-4.002 3.945-3.577 4.557-3.16 5.173-2.757 5.789-2.364 6.403-1.986 7.016-1.619 7.622-1.27 8.223-.933 8.814-.613 9.397-.308 9.966-.02 10.522.252 11.063.508 11.586.746 12.09.969 12.574 1.174 13.036 1.364 13.473 1.539 13.886 1.696 14.271 1.84 14.63 1.969 14.959 2.084 15.257 2.186 15.525 2.275 15.758 2.353 15.961 2.42 16.127 2.476 16.259 2.524 16.357 2.563 16.417 2.596 16.442 2.622 16.431 2.644 16.381 2.66 16.297 2.675 16.175 2.688 16.017 2.699 15.822 2.711 15.593 2.724 15.327 2.739 15.029 2.758 14.695 2.781 14.329 2.808 13.932 2.843 13.503 2.883 13.045 2.932 12.558 2.989 12.046 3.054 11.506 3.129 10.943 3.215 10.358 3.311 9.751 3.418 9.126 3.536 8.483 3.666 7.824 3.807 7.153 3.96 6.468 4.124 5.774 4.301 5.073 4.488 4.364 4.687 3.652 4.897 2.938 5.116 2.223 5.345 1.51 5.584.8 5.831.097 6.087-.6 6.348-1.288 6.615-1.964 6.889-2.628 7.166-3.278 7.445-3.912 7.727-4.528 8.01-5.127 8.291-5.704 8.571-6.261 8.848-6.794 9.121-7.305 9.387-7.79 9.646-8.25 9.897-8.683 10.138-9.09 10.367-9.468 10.585-9.818 10.787-10.14 10.975-10.432 11.146-10.697 11.299-10.931 11.433-11.135 11.547-11.313 11.639-11.459 11.709-11.579 11.755-11.669 11.777-11.732 11.774-11.769 11.744-11.779 11.688-11.763 11.604-11.723 11.493-11.659 11.352-11.573 11.184-11.464 10.986-11.335 10.759-11.187 10.503-11.02 10.217-10.837 9.904-10.638 9.56-10.424 9.189-10.198 8.79-9.959 8.363-9.711 7.91-9.454 7.431-9.189 6.927-8.919 6.4-8.642 5.849-8.363 5.276-8.082 4.683-7.799 4.072-7.518 3.441-7.237 2.796-6.959 2.135-6.685 1.462-6.416.776-6.152.083-5.896-.62-5.647-1.328-5.405-2.041-5.174-2.755-4.952-3.469-4.739-4.182-4.538-4.892-4.348-5.595-4.168-6.292-4.001-6.979-3.845-7.654-3.701-8.315-3.568-8.964-3.447-9.593-3.337-10.204-3.239-10.796-3.15-11.364-3.073-11.91-3.004-12.43-2.946-12.923-2.895-13.388-2.852-13.825-2.817-14.231-2.788-14.604-2.763-14.947-2.744-15.254-2.727-15.528-2.714-15.767-2.702-15.971-2.691-16.137-2.678-16.269-2.665-16.364-2.648-16.421-2.628-16.443-2.603-16.427-2.572-16.375-2.535-16.288-2.489-16.164-2.435-16.006-2.371-15.814-2.296-15.587-2.21-15.329-2.111-15.038-2-14.717-1.874-14.366-1.735L244.77 147l-13.581-1.411-13.15-1.224-12.694-1.023-12.216-.805-11.716-.57-11.199-.319-10.662-.051-10.11.233-9.543.533-8.964.85-8.375 1.182-7.777 1.529-7.171 1.89-6.561 2.266-5.946 2.655-5.33 3.057-4.715 3.469-4.1 3.892-3.49 4.325-2.886 4.767-2.287 5.215-1.696 5.669-1.116 6.129-.547 6.591.009 7.055.551 7.52 1.079 7.983 1.59 8.445 2.083 8.901 2.558 9.353 3.014 9.797 3.45 10.231 3.865 10.656 4.259 11.069 4.63 11.467 4.981 11.851 5.307 12.217 5.612 12.565 5.892 12.894 6.152 13.202 6.387 13.485 6.599 13.747 6.79 13.982 6.959 14.191 7.104 14.373 7.231 14.525 7.334 14.649 7.42 14.741 7.486 14.803 7.533 14.833 7.562 14.83 7.576 14.793 7.573 14.724 7.556 14.62 7.525 14.483 7.482 14.312 7.428 14.106 7.362 13.867 7.289 13.594L269.373 647l7.119 12.949 7.024 12.577 6.927 12.175 6.824 11.742 6.721 11.278 6.617 10.786 6.511 10.267 6.409 9.72 6.307 9.149 6.209 8.555 6.116 7.936 6.026 7.299 5.943 6.641 5.867 5.966 5.796 5.276 5.735 4.571 5.681 3.854 5.636 3.128 5.6 2.391 5.574 1.65 5.558.904 5.55.156 5.553-.594 5.566-1.34 5.588-2.085 5.62-2.823 5.662-3.554 5.711-4.275 5.77-4.984 5.836-5.682 5.911-6.363 5.991-7.028 6.078-7.674 6.169-8.301 6.267-8.905 6.366-9.486 6.469-10.044 6.572-10.573 6.678-11.078 6.782-11.553 6.884-11.998 6.984-12.414 7.08-12.799 7.172-13.151 7.255-13.47 7.333-13.758 7.402-14.011 7.461-14.23 7.509-14.416 7.545-14.568 7.567-14.685 7.577-14.768 7.57-14.819 7.547-14.835 7.507-14.82 7.45-14.771 7.372-14.691 7.276-14.58 7.16-14.439 7.021-14.27 6.863-14.072 6.681-13.848 6.478-13.597 6.252-13.322 6.003-13.024 5.731-12.704 5.436-12.364 5.119-12.005 4.779-11.629 4.415-11.235 4.031-10.829 3.625-10.409 3.198-9.979 2.749-9.538 2.283-9.089 1.797-8.635 1.292-8.175.773-7.713.236-7.248-.315-6.783-.879-6.32-1.454-5.86-2.041-5.403-2.635-4.952-3.239-4.507-3.847-4.071-4.459-3.643-5.075-3.227-5.691-2.82-6.305-2.426-6.919-2.044-7.526-1.678-8.127-1.324-8.721-.985-9.305-.663-9.876-.356-10.435-.064-10.978.209-11.504.468-12.011.71-12.498.934-12.963 1.143-13.406 1.335-13.821 1.511-14.213 1.673-14.574 1.818-14.909 1.949-15.211 2.067-15.484 2.171-15.724 2.261-15.93 2.341-16.103 2.41-16.241 2.468-16.343 2.517-16.411 2.557-16.44 2.591-16.435 2.619-16.392 2.64-16.312 2.658-16.197 2.673-16.044 2.686-15.856 2.697-15.632 2.709-15.372 2.722-15.078 2.736-14.75 2.755-14.39 2.777-13.997 2.804-13.573 2.836-13.12 2.877-12.638 2.923-12.129 2.979-11.593 3.044-11.035 3.116-10.452 3.201-9.85 3.295-9.226 3.4-8.587 3.517-7.93 3.644-7.26 3.784-6.578 3.934-5.886 4.098-5.184 4.272-4.477 4.458-3.766 4.654-3.052 4.862-2.336 5.081-1.624 5.308-.913 5.546-.208 5.791.49 6.045 1.178 6.306 1.857 6.573 2.523 6.844 3.176 7.122 3.812 7.401 4.432 7.682 5.032 7.964 5.614 8.247 6.173 8.527 6.712 8.804 7.224 9.077 7.715 9.345 8.178 9.606 8.616 9.857 9.027 10.101 9.409 10.331 9.765 10.551 10.09 10.756 10.388 10.946 10.657 11.12 10.895 11.276 11.105 11.413 11.286 11.53 11.438 11.626 11.562 11.699 11.656 11.75 11.724 11.775 11.765 11.776 11.779 11.751 11.767 11.699 11.731 11.619 11.671 11.513 11.588 11.376 11.483 11.213 11.357 11.019 11.211 10.798 11.048 10.545 10.867 10.265 10.671 9.955 10.459 9.617 10.234 9.25 9.999 8.855 9.751 8.433 9.496 7.984 9.231 7.51 8.962 7.009 8.687 6.485 8.407 5.938 8.127 5.369 7.844 4.779 7.563 4.17 7.281 3.543 7.003 2.899 6.729 2.242 6.458 1.569 6.194.887 5.936.193 5.686-.507 5.443-1.215 5.211-1.927 4.986-2.641 4.772-3.356 4.57-4.069 4.377-4.779 4.196-5.484 4.027-6.181 3.869-6.87 3.723-7.547 3.588-8.212 3.466-8.861 3.354-9.494 3.253-10.108 3.164-10.703 3.084-11.275 3.015-11.825 2.954-12.348 2.903-12.847 2.859-13.317 2.822-13.757 2.791-14.168 2.767-14.547 2.747-14.894 2.73-15.208 2.716-15.487L617.45 531l2.692-15.941 2.68-16.113 2.667-16.251 2.651-16.351 2.632-16.414 2.607-16.442 2.578-16.432 2.541-16.386 2.497-16.304 2.444-16.186 2.382-16.034 2.309-15.847 2.224-15.625 2.128-15.372 2.018-15.087 1.896-14.77 1.758-14.424 1.606-14.049 1.438-13.647 1.255-13.22 1.056-12.769.841-12.293.608-11.798.36-11.282.095-10.748-.186-10.199-.485-9.635-.798-9.057-1.128-8.47-1.472-7.872-1.832-7.268-2.206-6.658-2.592-6.044-2.992-5.429-3.402-4.813-3.824-4.198-4.256-3.587-4.696-2.981-5.143-2.382-5.597-1.79-6.055-1.207-6.517-.637-6.981-.079-7.446.466-7.91.996-8.371 1.51-8.829 2.005-9.281 2.484-9.727 2.943-10.163 3.382-10.589 3.8-11.004 4.198-11.404 4.573-11.791 4.926-12.16 5.256-12.511 5.565-12.843 5.85-13.154 6.111-13.442 6.351-13.707 6.568-13.946 6.761-14.16 6.933-14.345 7.083-14.503 7.211-14.631 7.32-14.729 7.408-14.795 7.476-14.831 7.526-14.832 7.559-14.801 7.575-14.737 7.574-14.639 7.56-14.508 7.531-14.341 7.49-14.141 7.437-13.907 7.373-13.64 7.302-13.338 7.22-13.005 7.133-12.639 7.04-12.24 6.942-11.813 6.841-11.354 6.738-10.866 6.633-10.351 6.528-9.81 6.425-9.241 6.323-8.651 6.225-8.036 6.13-7.402 6.04-6.747 5.956-6.075 5.878-5.387 5.808-4.684 5.744-3.969 5.689-3.243 5.642-2.51 5.606-1.768 5.577-1.023 5.559-.275 5.551.474 5.552 1.222 5.563 1.967 5.584 2.705 5.615 3.438 5.654 4.161 5.703 4.873 5.76 5.571 5.825 6.256 5.898 6.923 5.978 7.573 6.064 8.202 6.155 8.81 6.25 9.396 6.35 9.956 6.453 10.49 6.556 11 6.661 11.479 6.765 11.929 6.868 12.35 6.969 12.74 7.065 13.097 7.157 13.422 7.243 13.714 7.321 13.973 7.392 14.197 7.452 14.389 7.502 14.546 7.539 14.668 7.565 14.758 7.577 14.813 7.572 14.834 7.552 14.824 7.514 14.781 7.46 14.706 7.386 14.6 7.293 14.464 7.18 14.298 7.045 14.106 6.889 13.885 6.712 13.638 6.512 13.368 6.289 13.073 6.044 12.757 5.776 12.419 5.485 12.063 5.171 11.69 4.834 11.299 4.475 10.894 4.094 10.477 3.691 10.048 3.267 9.608 2.822 9.162 2.358 8.707 1.875 8.249 1.375 7.787.856 7.322.322 6.857-.226 6.394-.788 5.932-1.362 5.476-1.946 5.023-2.541 4.578-3.142 4.139-3.749 3.711-4.362 3.292-4.977 2.884-5.592 2.488-6.208 2.105-6.821 1.735-7.43 1.379-8.032 1.038-8.627.713-9.213.404-9.786.11-10.347-.167-10.892-.428-11.421-.672-11.932-.9-12.422-1.11-12.891-1.306-13.337-1.485-13.757-1.647-14.152-1.796-14.519-1.93-14.857-2.049-15.165-2.154-15.443-2.249-15.688-2.329-15.9-2.399-16.077-2.459-16.221-2.51-16.33-2.552-16.402-2.586-16.438-2.614-16.438-2.637-16.401-2.656-16.328-2.671-16.218-2.683-16.071-2.696-15.888-2.707-15.67-2.719-15.415-2.734-15.128-2.752-14.805-2.773-14.449-2.799-14.062-2.831-13.642-2.87-13.194-2.915-12.717-2.97-12.211-3.032-11.681-3.105-11.125-3.186-10.547-3.279-9.946-3.383-9.327-3.497-8.69-3.623-8.036-3.761-7.368-3.91-6.687-4.071-5.996-4.243-5.297-4.428-4.59-4.622-3.88-4.828-3.165-5.045-2.45-5.272-1.737-5.507-1.026-5.752-.32-6.004.379-6.264 1.07-6.529 1.749-6.802 2.418-7.077 3.073-7.356 3.711-7.637 4.335-7.92 4.938-8.201 5.522-8.483 6.086-8.76 6.627-9.034 7.145-9.303 7.638-9.564 8.106-9.819 8.548-10.062 8.964-10.295 9.35-10.517 9.71-10.724 10.04-10.917 10.343-11.094 10.615-11.252 10.86-11.392 11.073-11.513 11.26-11.612 11.415-11.69 11.544-11.743 11.643-11.772 11.716-11.778 11.76-11.757 11.778-11.708 11.771-11.634 11.738-11.532 11.682-11.4 11.603-11.241 11.501-11.052 11.378-10.834 11.236-10.588 11.076-10.311 10.897-10.007 10.702-9.673 10.494-9.31 10.271-8.92 10.037-8.502 9.791-8.057 9.537-7.586 9.274-7.09 9.005-6.571 8.731-6.026 8.452-5.461 8.172-4.875 7.889-4.268 7.607-3.644 7.326-3.003 7.048-2.347 6.772-1.678 6.501-.996 6.236-.304 5.976.395 5.725 1.102 5.482 1.814 5.246 2.527 5.022 3.241 4.806 3.956 4.601 4.666 4.407 5.372 4.224 6.071 4.053 6.761 3.893 7.44 3.746 8.107 3.609 8.759 3.484 9.394 3.371 10.012 3.269 10.609 3.177 11.186 3.097 11.739 3.025 12.267 2.963 12.769 2.91 13.243 2.866 13.689 2.827 14.105 2.796 14.489 2.771 14.841 2.749 15.16 2.733 15.445 2.718 15.694 2.705 15.91 2.695 16.088 2.682 16.231 2.669 16.338 2.654 16.407 2.635 16.439 2.611 16.436 2.583 16.396 2.548 16.32 2.504 16.207 2.454 16.061 2.392 15.878 2.321 15.663 2.239 15.415 2.144 15.134 2.037 14.822 1.915 14.481 1.781 14.111 1.631 13.713 1.466 13.29 1.286 12.841 1.089 12.371.876 11.878.646 11.365.401 10.835.138 10.287-.14 9.726-.436 9.15-.748 8.564-1.074 7.968-1.416 7.364-1.774 6.756-2.145 6.142-2.53 5.527-2.927 4.91-3.337 4.296-3.756 3.684-4.186 3.078-4.626 2.476-5.071 1.883-5.524 1.3-5.982.727-6.443.167-6.907-.38-7.372-.913-7.836-1.429-8.298-1.927-8.757-2.409-9.21-2.871-9.656-3.314-10.094-3.735-10.522-4.135-10.939-4.515-11.341-4.871-11.731-5.206-12.102-5.517-12.457-5.806-12.791-6.071-13.106-6.315-13.398-6.534-13.666-6.732-13.91-6.907-14.127-7.06-14.318-7.193-14.48-7.304-14.613-7.395-14.715-7.466-14.787-7.52-14.827-7.555-14.834-7.573-14.808-7.576-14.75-7.563-14.657-7.536-14.53-7.497-14.37-7.446-14.176-7.385-13.946-7.313-13.685-7.234-13.388-7.147-13.061-7.055-12.699-6.958-12.306-6.857-11.883-6.754-11.429-6.65-10.946-6.545-10.435-6.441-9.897-6.34-9.334-6.24-8.746-6.145-8.136-6.054-7.504-5.969-6.853-5.89-6.183-5.818-5.497-5.753-4.797-5.697-4.084-5.65-3.36-5.611-2.626-5.581-1.887-5.561-1.142L403.644 1l-5.551.355-5.561 1.103-5.58 1.848-5.609 2.589-5.647 3.322-5.694 4.046-5.751 4.76-5.814 5.46-5.886 6.149-5.965 6.818-6.05 7.47-6.14 8.104-6.235 8.715-6.334 9.304-6.436 9.868-6.539 10.408-6.644 10.92-6.749 11.404-6.852 11.86-6.953 12.285-7.05 12.68-7.143 13.042-7.229 13.372-7.309 13.67-7.381 13.934-7.443 14.164-7.495 14.361-7.535 14.523-7.562 14.651-7.575 14.746-7.574 14.806-7.556 14.834-7.522 14.828-7.47 14.789-7.399 14.72-7.309 14.619-7.199 14.487-7.068 14.327-6.915 14.138-6.742 13.922-6.545 13.68-6.326 13.412-6.085 13.122-5.82 12.808-5.533 12.475-5.222 12.121-4.89 11.75-4.533 11.362-4.156 10.96-3.757 10.544-3.336 10.117-2.894 9.679-2.434 9.233-1.953 8.781-1.455 8.322-.94 7.86-.408 7.396.137 6.932.698 6.467 1.27 6.006 1.853 5.548 2.445 5.094 3.046 4.649 3.652 4.209 4.264 3.778 4.879 3.358 5.494 2.948 6.11 2.551 6.724 2.164 7.333 1.793 7.937 1.435 8.533 1.092 9.12.764 9.695.451 10.259.156 10.806-.124 11.339-.388 11.851-.634 12.346-.864 12.817-1.078 13.267-1.276 13.692-1.457 14.091-1.623 14.462-1.773 14.806-1.91 15.118-2.03 15.401-2.139 15.651-2.234 15.868-2.317 16.052-2.389 16.2-2.45 16.315-2.503 16.393-2.545 16.434-2.581 16.441-2.611 16.409-2.633 16.342-2.653 16.238-2.669 16.097-2.681 15.919-2.694 15.707-2.705 15.459-2.718 15.175-2.731 14.859-2.749 14.508-2.769 14.125-2.795 13.712-2.825 13.267-2.863 12.795-2.908 12.293-2.96 11.767-3.022 11.215-3.092 10.64-3.173 10.044-3.264 9.427-3.365 8.792-3.479 8.141-3.602 7.475-3.738 6.797-3.885 6.107-4.045 5.408-4.215 4.704-4.397 3.992-4.591 3.279-4.795 2.565-5.01 1.85-5.234 1.139-5.469.432-5.712-.268-5.964-.96-6.222-1.642-6.487-2.313-6.758-2.969-7.033-3.611-7.311-4.237-7.593-4.843-7.874-5.431-8.157-5.997-8.438-6.543-8.716-7.064-8.991-7.561-9.26-8.033-9.524-8.48-9.778-8.898-10.024-9.291-10.259-9.655-10.483-9.989-10.692-10.297-10.887-10.574-11.067-10.822-11.228-11.042-11.371-11.231-11.496-11.393-11.597-11.525-11.679-11.629-11.736-11.706-11.77-11.755-11.778-11.777-11.762-11.774-11.718-11.745-11.648-11.692-11.549-11.617-11.423-11.518-11.268-11.4-11.085-11.26-10.871-11.102-10.629-10.926-10.357-10.735-10.057-10.528-9.728-10.307-9.37-10.075-8.984-9.831-8.57-9.578-8.13-9.317-7.663-9.048-7.171-8.775-6.655-8.496-6.114-8.217-5.553-7.934-4.969-7.652-4.366-7.371-3.745-7.091-3.106-6.816-2.453-6.544-1.784-6.277-1.106-6.018-.415-5.764.284-5.52.989-5.283 1.7-5.057 2.413-4.839 3.128-4.633 3.842-4.438 4.553-4.252 5.26-4.08 5.96-3.918 6.652-3.768 7.333-3.63 8.001-3.503 8.656-3.389 9.294-3.284 9.915-3.191 10.516-3.109 11.096-3.036 11.652-2.972 12.184-2.918 12.691-2.872 13.17-2.833 13.62-2.801 14.041-2.774 14.43-2.753 14.787-2.735 15.111-2.72 15.402-2.708 15.657-2.696 15.878-2.684 16.062-2.671 16.211-2.657 16.323-2.638 16.398-2.616 16.438-2.587 16.439-2.554 16.404-2.512 16.334-2.462 16.228-2.403 16.086-2.333 15.91-2.252 15.7-2.16 15.456-2.055 15.181-1.936 14.874-1.803 14.537-1.656 14.172-1.494 13.778-1.315 13.359-1.121 12.915-.911 12.447-.684 11.958-.441 11.448-.182 10.92.096 10.376.387 9.816.697 9.242 1.021 8.658 1.361 8.064 1.716 7.461 2.085 6.852 2.468 6.241 2.863 5.624 3.27 5.009 3.689 4.394 4.117 3.781 4.555 3.174 5 2.571 5.452 1.977 5.908 1.393 6.37.817 6.833.255 7.298-.294 7.762-.829 8.225-1.347 8.684-1.85 9.138-2.334 9.585-2.798 10.025-3.244 10.455-3.67 10.873-4.073 11.278-4.456 11.67-4.816 12.044-5.154 12.401-5.469 12.74-5.761 13.057-6.031 13.353-6.277 13.625-6.501 13.873-6.702 14.094-6.88 14.29-7.038 14.456-7.173 14.593-7.287 14.701-7.382 14.778-7.456 14.822-7.513 14.835-7.55 14.815-7.572 14.761-7.576 14.674-7.566 14.553-7.542 14.398-7.504 14.208-7.455 13.986-7.395 13.728-7.325 13.438-7.247 13.115-7.161 12.759-7.071 12.371-6.973 11.952-6.874 11.503-6.77 11.025-6.667 10.518-6.561 9.985-6.458 9.425-6.355 8.841-6.256 8.235-6.16 7.606-6.068 6.957-5.982 6.291-5.902 5.608-5.829 4.909-5.764 4.198-5.705 3.476-5.657 2.744-5.616 2.005-5.585 1.261-5.564.513-5.553"/></svg>