<?xml version="1.0" encoding="UTF-8"?>
<svg id="Logo" xmlns="http://www.w3.org/2000/svg" version="1.1" viewBox="0 0 562.96 564.85">
  <defs>
    <style>
      .cls-1 {
        fill: #ccc;
      }

      .cls-1, .cls-2 {
        stroke-width: 0px;
      }

      .cls-2 {
        fill: #080808;
      }
    </style>
  </defs>
  <rect class="cls-2" x="-.94" width="564.85" height="564.85" rx="87.59" ry="87.59"/>
  <path class="cls-1" d="M396.18,233.66v-111.69l-114.7-66.23-113.73,65.68-.97.55v111.69l-95.77,55.3-.97.55v132.43l114.7,66.23,96.74-55.86,96.73,55.86,113.73-65.67.97-.56v-132.43l-96.73-55.86ZM456.99,330.98v70.23l-78.78,45.48-60.82-35.11,139.6-80.59ZM423.16,299.89c0,5.74-2.97,10.87-7.93,13.74l-188.71,108.95c-4.97,2.88-10.9,2.86-15.87,0-4.97-2.87-7.93-8.01-7.93-13.75v-217.9c0-5.74,2.97-10.88,7.93-13.75,2.48-1.43,5.2-2.15,7.93-2.15s5.45.72,7.93,2.15l188.71,108.95c4.97,2.87,7.93,8.01,7.93,13.75ZM220.65,132.33l60.83-35.12,78.77,45.48v70.23l-139.6-80.6ZM105.96,401.21v-90.97l60.82-35.11v161.19l-60.82-35.12Z"/>
</svg>