<svg width="180" height="180" viewBox="0 0 180 180" fill="none" xmlns="http://www.w3.org/2000/svg">
<g clip-path="url(#clip0_8_36)">
<path d="M0 24C0 10.7452 10.7452 0 24 0H156C169.255 0 180 10.7452 180 24V156C180 169.255 169.255 180 156 180H24C10.7452 180 0 169.255 0 156V24Z" fill="#090909"/>
<path fill-rule="evenodd" clip-rule="evenodd" d="M90.5 48.05C56.1641 48.05 36.6589 74.798 29.3326 87.6184C28.9302 88.3226 28.6423 88.8275 28.4069 89.267C28.2435 89.5721 28.1398 89.7829 28.0729 89.93C28.1581 90.0834 28.2906 90.3043 28.5011 90.6279C28.7835 91.062 29.1253 91.5588 29.5976 92.2441C33.9065 98.4957 41.8474 108.762 52.5243 117.403C63.2246 126.062 76.1174 132.65 90.5 132.65C104.883 132.65 117.776 126.062 128.476 117.403C139.153 108.762 147.094 98.4957 151.402 92.2441C151.875 91.5588 152.217 91.062 152.499 90.6279C152.709 90.3043 152.842 90.0834 152.927 89.93C152.86 89.7829 152.757 89.5721 152.593 89.267C152.358 88.8275 152.07 88.3226 151.667 87.6184C144.341 74.798 124.836 48.05 90.5 48.05ZM28.0076 89.9377L28.0075 89.9372ZM17.0905 80.6226C24.9296 66.9049 48.0721 33.95 90.5 33.95C132.928 33.95 156.071 66.9049 163.91 80.6226C164 80.7806 164.093 80.9425 164.189 81.1084C165.503 83.3833 167.254 86.4129 167.08 90.5314C166.906 94.6538 164.873 97.5721 163.347 99.764C163.232 99.9287 163.12 100.089 163.012 100.246C158.295 107.089 149.472 118.55 137.346 128.363C125.243 138.157 109.295 146.75 90.5 146.75C71.7046 146.75 55.7566 138.157 43.6542 128.363C31.5283 118.55 22.7047 107.089 17.9882 100.246C17.8801 100.089 17.7683 99.9287 17.6535 99.764C16.1267 97.5721 14.094 94.6538 13.9201 90.5314C13.7463 86.4129 15.4966 83.3833 16.8109 81.1084C16.9067 80.9425 17.0002 80.7806 17.0905 80.6226Z" fill="#565656"/>
<path d="M126 101C126 120.882 110.106 137 90.5 137C70.8939 137 55 120.882 55 101C55 81.1177 70.8939 65 90.5 65C110.106 65 126 81.1177 126 101Z" fill="#F63C74"/>
<path d="M126 79C126 98.8823 110.106 115 90.5 115C70.8939 115 55 98.8823 55 79C55 59.1177 70.8939 43 90.5 43C110.106 43 126 59.1177 126 79Z" fill="#2FD7A3"/>
<path fill-rule="evenodd" clip-rule="evenodd" d="M56.688 90C61.2721 75.4978 74.6772 65 90.5002 65C106.323 65 119.728 75.4978 124.312 90C119.728 104.502 106.323 115 90.5002 115C74.6772 115 61.2721 104.502 56.688 90Z" fill="#4987FF"/>
</g>
<defs>
<clipPath id="clip0_8_36">
<rect width="180" height="180" fill="white"/>
</clipPath>
</defs>
</svg>
