<?xml version="1.0" standalone="no"?>
<!DOCTYPE svg PUBLIC "-//W3C//DTD SVG 20010904//EN"
 "http://www.w3.org/TR/2001/REC-SVG-20010904/DTD/svg10.dtd">
<svg version="1.0" xmlns="http://www.w3.org/2000/svg"
 width="631.000000pt" height="631.000000pt" viewBox="0 0 631.000000 631.000000"
 preserveAspectRatio="xMidYMid meet">
<metadata>
Created by potrace 1.14, written by Peter Selinger 2001-2017
</metadata>
<g transform="translate(0.000000,631.000000) scale(0.100000,-0.100000)"
fill="#000000" stroke="none">
<path d="M3013 6144 c-87 -86 -513 -509 -948 -939 -434 -431 -905 -896 -1045
-1035 -140 -138 -427 -422 -637 -631 l-382 -379 391 -388 c443 -439 586 -580
1643 -1627 416 -412 842 -834 946 -937 l189 -188 1570 1570 1570 1570 -783
783 c-430 430 -1136 1136 -1569 1569 l-787 788 -158 -156z m1837 -2063 l925
-921 -1302 -1302 -1303 -1303 0 2600 0 2600 378 -377 c207 -207 793 -791 1302
-1297z"/>
</g>
</svg>
