<svg width="950" height="950" viewBox="0 0 950 950" fill="none" xmlns="http://www.w3.org/2000/svg">
<path d="M153.316 499.761C156.916 501.461 162.616 503.261 166.316 505.161V537.661C166.316 571.661 179.816 622.861 184.316 638.361C184.616 639.261 184.916 640.361 185.216 641.561C190.316 660.161 211.316 710.661 272.316 768.361C333.116 818.361 404.316 831.361 472.316 835.361C480.916 835.861 491.916 835.261 504.316 834.561C543.816 832.461 597.116 829.561 629.316 859.361C648.316 876.961 674.316 892.861 695.816 892.861C705.316 890.561 709.416 883.861 712.916 877.961C717.816 869.761 721.716 863.261 738.316 873.861C744.016 877.461 747.516 872.461 751.816 866.161C755.116 861.361 759.016 855.861 764.816 852.861C769.016 850.661 773.516 851.761 777.616 852.861C783.816 854.461 789.116 855.761 791.316 844.861C794.716 827.961 799.916 829.861 804.916 831.761C808.016 832.961 811.116 834.061 813.816 830.861C827.016 814.561 834.816 779.761 832.816 752.361C829.316 704.761 830.316 692.861 843.316 654.861C853.816 624.261 859.516 594.561 861.116 565.961C861.016 564.261 860.916 562.761 860.816 561.261C860.616 553.161 855.416 546.261 850.616 539.861C847.416 535.561 844.216 531.461 842.816 527.261C840.516 520.261 837.916 501.061 844.316 494.261C849.216 489.061 851.616 477.961 848.616 462.861C839.316 431.861 825.216 402.261 807.316 373.961C840.816 278.461 770.316 203.961 716.816 195.461C719.116 192.961 703.416 158.361 667.316 132.961C635.316 110.461 594.016 103.161 566.816 105.961L554.316 107.961C483.816 27.3607 398.816 77.8607 373.316 111.861C356.816 107.861 319.316 121.861 311.316 135.861C230.316 128.861 186.016 176.561 173.316 206.361C119.216 228.361 108.816 267.061 104.016 284.861C103.316 287.261 102.816 289.361 102.316 290.861C56.3159 329.361 61.5159 387.861 66.3159 410.861C83.4159 465.761 111.016 479.161 153.316 499.761Z" fill="black"/>
<path fill-rule="evenodd" clip-rule="evenodd" d="M257.716 784.861L257.116 784.361C193.316 724.061 170.116 670.061 163.916 647.361C163.616 646.161 163.316 645.261 163.116 644.461C158.716 629.161 144.216 575.161 144.216 537.661V519.861C144.016 519.761 143.716 519.661 143.516 519.561L142.016 518.861C122.016 509.161 102.116 499.461 85.5165 484.561C67.8165 468.661 54.8165 447.861 45.3165 417.361L45.0165 416.361L44.8165 415.361C39.8165 391.361 32.8165 325.261 83.0165 278.561C85.5165 269.261 90.1165 252.361 102.016 234.761C113.316 218.161 130.616 201.761 157.116 189.361C175.916 154.361 223.616 110.661 302.016 113.161C304.716 110.861 307.416 108.861 310.016 107.161C316.516 102.861 323.916 99.2608 331.316 96.4608C338.716 93.6608 346.616 91.3608 354.316 90.1608C357.216 89.6608 360.416 89.2608 363.716 89.1608C381.116 70.7608 409.316 52.0608 442.516 45.2608C480.516 37.4608 523.816 45.6608 562.416 84.1608L564.016 83.9608L564.616 83.8608C596.516 80.5608 643.316 88.8608 680.016 114.761C700.616 129.261 715.416 146.361 724.816 160.361C728.816 166.261 732.016 171.961 734.316 176.861C764.016 186.061 793.616 209.061 813.316 240.161C835.316 274.661 845.916 320.361 831.416 370.961C847.616 398.161 860.716 426.661 869.716 456.461L870.016 457.461L870.216 458.461C873.516 475.061 872.816 493.861 862.416 506.861C862.316 507.661 862.316 508.761 862.316 510.161C862.316 512.261 862.616 514.461 862.916 516.561C863.216 518.461 863.516 519.761 863.716 520.161C863.816 520.261 864.016 520.661 864.516 521.561C865.417 522.861 866.417 524.361 868.216 526.661C868.417 526.961 868.716 527.261 869.016 527.661C873.316 533.261 882.516 545.261 882.916 560.661C882.916 561.761 883.016 562.961 883.116 564.261L883.216 565.761L883.116 567.261C881.416 598.061 875.316 629.661 864.216 662.161C857.816 680.761 855.016 691.361 853.816 702.561C852.616 714.061 853.016 727.061 854.816 750.961C856.016 767.161 854.316 784.961 850.516 801.061C846.816 816.761 840.516 833.161 831.016 844.961C825.917 851.261 818.916 854.761 811.416 855.261C808.916 862.561 803.916 870.961 793.316 874.661C787.616 876.661 782.516 876.361 779.416 875.961C777.016 875.661 774.716 875.061 773.216 874.761C772.316 875.861 771.417 877.161 770.016 879.161C769.917 879.361 769.816 879.561 769.616 879.761C767.916 882.161 764.016 887.961 758.816 891.761C755.316 894.361 750.216 897.061 743.516 897.461C737.917 897.761 733.016 896.261 729.116 894.261C724.716 901.061 716.416 911.061 701.116 914.661L698.616 915.261H695.816C680.016 915.261 664.417 909.561 651.216 902.461C637.716 895.261 625.016 885.661 614.316 875.861C603.016 865.061 586.816 859.261 566.816 856.861C546.816 854.361 525.516 855.461 505.516 856.561L504.616 856.661C493.016 857.261 480.916 857.961 471.116 857.361C401.516 853.261 324.616 839.861 258.416 785.361L257.716 784.861ZM807.316 373.861C836.516 290.561 786.616 223.261 737.916 201.761C730.816 198.561 723.616 196.461 716.816 195.361C717.016 195.161 717.116 194.761 717.016 194.061C716.316 187.061 700.416 156.161 667.316 132.861C635.316 110.361 594.016 103.061 566.816 105.861L554.316 107.861C483.816 27.3608 398.816 77.8608 373.316 111.861C356.816 107.861 319.316 121.861 311.316 135.861C230.316 128.861 186.016 176.561 173.316 206.361C119.216 228.361 108.816 267.061 104.016 284.861C103.316 287.261 102.816 289.361 102.316 290.861C56.3165 329.361 61.5165 387.861 66.3165 410.861C83.4165 465.761 111.016 479.161 153.316 499.761C155.016 500.561 157.316 501.461 159.516 502.361C161.916 503.261 164.416 504.261 166.316 505.161V537.661C166.316 571.661 179.816 622.861 184.316 638.361C184.616 639.261 184.916 640.361 185.216 641.561C190.316 660.161 211.316 710.661 272.316 768.361C333.116 818.361 404.316 831.361 472.316 835.361C480.916 835.861 491.916 835.261 504.316 834.561C543.816 832.461 597.116 829.561 629.316 859.361C648.316 876.961 674.316 892.861 695.816 892.861C705.316 890.561 709.416 883.861 712.916 877.961C717.816 869.761 721.716 863.261 738.316 873.861C744.016 877.461 747.516 872.461 751.816 866.161C755.116 861.361 759.016 855.861 764.816 852.861C769.016 850.661 773.516 851.761 777.616 852.861C783.816 854.461 789.116 855.761 791.316 844.861C794.716 827.961 799.916 829.861 804.916 831.761C808.016 832.961 811.116 834.061 813.816 830.861C827.016 814.561 834.816 779.761 832.816 752.361C829.316 704.761 830.316 692.861 843.316 654.861C853.816 624.261 859.516 594.561 861.116 565.961C861.016 564.261 860.916 562.761 860.816 561.261C860.616 553.161 855.416 546.261 850.616 539.861C847.416 535.561 844.216 531.461 842.816 527.261C840.516 520.261 837.916 501.061 844.316 494.261C849.216 489.061 851.616 477.961 848.616 462.861C839.216 431.861 825.216 402.161 807.316 373.861Z" fill="white"/>
<path fill-rule="evenodd" clip-rule="evenodd" d="M808.474 82.8414C815.674 71.1414 825.574 69.4414 830.774 69.4414C835.274 69.4414 843.774 70.7414 851.174 79.5414C851.174 79.6414 851.274 79.7414 851.374 79.8414C860.474 91.1414 862.074 104.141 863.074 112.941C863.274 114.641 863.574 116.441 863.874 118.241C865.274 126.941 866.674 135.841 867.774 144.841C876.074 145.641 884.974 146.741 893.974 148.741C906.374 150.641 915.674 152.741 922.274 155.141C940.674 161.841 943.374 174.041 943.274 180.741C943.274 185.041 941.874 193.341 933.374 200.141C930.574 202.341 927.174 204.341 922.974 206.141C917.474 208.541 910.474 210.741 901.474 212.941C891.674 215.341 880.974 217.341 871.874 218.841C870.274 227.741 868.174 236.241 866.074 244.641C863.874 253.441 861.874 261.641 860.474 269.941C860.274 270.941 859.974 272.041 859.674 273.041C858.674 275.941 857.774 278.941 856.874 282.141C856.774 282.541 856.649 282.941 856.524 283.341C856.399 283.741 856.274 284.141 856.174 284.541C852.974 296.241 842.174 304.341 829.574 304.341C816.174 304.341 805.074 295.141 802.874 282.541C798.574 264.441 793.874 243.641 790.974 222.241C787.174 221.141 783.574 219.941 780.174 218.741C779.755 218.602 779.337 218.462 778.921 218.323C774.575 216.869 770.425 215.48 766.774 214.841C755.374 212.941 745.474 208.641 736.374 204.141C726.274 200.241 719.874 191.241 719.674 180.641C719.474 169.341 726.774 158.841 737.674 154.641C743.474 152.141 748.774 151.641 752.374 151.341C753.374 151.241 754.274 151.141 754.774 151.041C756.408 150.783 758.263 150.378 760.214 149.951C760.531 149.881 760.852 149.811 761.174 149.741C766.974 148.341 774.174 146.741 782.674 146.741H784.074C785.974 146.441 788.074 146.241 790.574 146.041H790.674C790.974 139.641 792.974 134.541 794.374 131.241C794.674 130.541 795.074 129.441 795.174 129.041C795.274 128.241 795.474 127.341 795.774 126.541C796.074 125.541 796.674 122.441 797.074 120.241C798.374 113.441 800.174 104.241 802.674 96.2414C804.374 90.7414 806.274 86.3414 808.474 82.8414ZM834.874 92.9414C833.374 91.2414 832.074 90.4414 830.774 90.4414C824.372 90.4414 820.353 110.777 817.809 123.648C816.936 128.068 816.236 131.608 815.674 133.141C815.287 135.23 814.466 137.229 813.652 139.214C812.36 142.36 811.083 145.469 811.574 148.841C811.911 151.342 811.23 153.635 810.554 155.908C809.825 158.362 809.103 160.794 809.674 163.441C810.563 165.56 799.49 166.511 791.978 167.156C788.5 167.455 785.785 167.688 785.374 167.941C784.374 167.841 783.374 167.841 782.474 167.841C776.306 167.841 770.828 169.082 765.509 170.286C762.98 170.858 760.488 171.422 757.974 171.841C756.68 172.062 755.356 172.184 754.02 172.306C751.126 172.571 748.18 172.841 745.374 174.141C739.874 175.941 738.274 183.041 744.374 184.841C752.574 188.941 760.774 192.641 769.974 194.141C775.694 195.14 781.188 197.046 786.679 198.951C793.283 201.242 799.885 203.532 806.874 204.241C809.174 204.541 809.674 205.641 810.074 207.741C812.474 231.741 817.574 255.241 823.274 278.641C823.574 281.841 826.474 283.441 829.374 283.441C832.174 283.441 835.074 281.941 835.774 278.941C836.424 276.891 837.049 274.816 837.674 272.741C838.299 270.666 838.924 268.591 839.574 266.541C841.079 257.467 843.306 248.578 845.53 239.699C848.477 227.931 851.42 216.181 852.674 204.041C853.074 201.241 853.774 200.141 856.774 199.741C883.274 196.441 967.874 180.941 889.974 169.441C878.574 166.841 866.974 165.641 855.274 164.841C851.874 164.641 848.374 164.341 847.974 158.941C846.94 145.31 844.757 131.767 842.588 118.312C842.45 117.455 842.312 116.598 842.174 115.741C841.274 107.841 840.274 99.6414 834.874 92.9414Z" fill="black"/>
<path fill-rule="evenodd" clip-rule="evenodd" d="M151.174 592.141C152.074 592.041 152.974 591.941 153.874 591.941C162.374 591.941 170.174 596.441 175.474 604.141C177.474 607.341 179.274 611.141 180.774 615.841C182.8 622.113 184.081 628.85 184.888 633.089L184.974 633.541C185.126 634.152 185.221 634.647 185.301 635.069C185.326 635.2 185.35 635.323 185.374 635.441C185.424 635.691 185.449 635.916 185.474 636.141C185.499 636.366 185.524 636.591 185.574 636.841C186.72 645.63 189.144 654.419 191.712 663.731C191.833 664.167 191.953 664.603 192.074 665.041C192.268 665.765 192.464 666.491 192.66 667.219C194.281 673.235 195.946 679.419 197.374 685.841C198.074 688.841 198.474 691.841 198.774 694.441C198.874 695.041 198.974 695.841 199.074 696.641C201.711 697.244 204.518 697.733 207.41 698.237C208.356 698.402 209.312 698.569 210.274 698.741C217.274 699.841 224.474 701.041 231.974 703.341C232.256 703.422 232.554 703.519 232.862 703.619C233.319 703.767 233.796 703.922 234.274 704.041C241.174 706.141 247.774 708.141 253.474 708.141H256.474C262.455 708.141 267.642 709.533 271.736 710.631L271.774 710.641L271.781 710.643C272.979 710.943 274.176 711.242 275.074 711.441C289.874 713.841 300.274 726.541 299.574 741.341C298.874 755.541 288.274 766.341 273.974 767.541C271.313 767.957 268.584 768.649 265.671 769.388C265.08 769.538 264.481 769.69 263.874 769.841C263.394 769.964 262.914 770.087 262.432 770.211C258.189 771.301 253.823 772.423 248.974 773.141C241.651 774.2 234.329 775.959 226.664 777.801C225.64 778.047 224.61 778.294 223.574 778.541L219.974 779.441C215.274 781.141 209.774 781.841 203.174 782.641C202.694 782.71 202.168 782.778 201.611 782.851C200.541 782.99 199.357 783.144 198.174 783.341C192.774 810.741 186.974 838.941 179.074 866.441C179.024 866.541 178.999 866.641 178.974 866.741C178.949 866.841 178.924 866.941 178.874 867.041C175.274 878.241 164.674 885.741 152.574 885.741C138.174 885.741 126.474 875.341 125.174 861.641C124.727 856.731 123.723 851.661 122.659 846.289C122.531 845.644 122.402 844.995 122.274 844.341C120.474 835.641 118.674 826.741 118.374 816.941C117.974 811.641 117.074 806.141 116.074 800.441C114.974 794.041 113.874 787.041 113.274 779.641C107.074 778.941 100.374 778.041 93.4737 776.141C93.3737 776.091 93.2737 776.066 93.1737 776.041C93.0737 776.016 92.9736 775.991 92.8736 775.941C81.424 772.381 69.2336 770.488 56.3027 768.479C55.7942 768.4 55.2845 768.321 54.7736 768.241C44.9736 766.741 34.8736 765.141 24.8736 762.841C21.4736 762.041 18.2736 760.441 15.6736 758.141C7.77365 751.241 4.67365 741.441 7.37365 732.141C11.9576 716.297 29.8486 711.773 38.5825 709.564L38.6736 709.541C48.1867 707.163 59.369 705.374 69.3015 703.785L69.5736 703.741C71.0628 703.485 72.6904 703.215 74.3363 702.942C79.1007 702.152 84.0182 701.336 86.1737 700.741C86.7737 700.441 87.3737 700.141 87.9737 699.941C93.7737 697.841 99.4737 697.141 103.974 696.641C105.374 696.541 106.774 696.341 107.974 696.141C108.124 696.141 108.274 696.116 108.424 696.091C108.574 696.066 108.724 696.041 108.874 696.041L109.674 695.941C110.374 695.841 111.099 695.766 111.824 695.691C112.549 695.616 113.274 695.541 113.974 695.441C114.474 691.741 115.274 687.141 116.574 681.641C118.232 673.514 119.547 665.387 120.917 656.918C121.199 655.175 121.483 653.417 121.774 651.641C123.774 639.141 125.874 626.141 128.674 613.141C129.074 611.141 129.874 607.141 132.474 603.141C136.574 596.741 143.474 592.641 151.174 592.141ZM164.181 637.253C162.736 629.743 159.505 612.941 153.874 612.941H152.774C150.074 612.941 149.574 615.041 149.174 617.241C146.451 629.655 144.47 642.157 142.488 654.667C140.829 665.135 139.169 675.609 137.074 686.041C133.309 701.754 134.724 708.478 131.996 711.879C129.724 714.713 124.579 715.242 111.174 716.741C109.531 717.015 107.861 717.224 106.191 717.433C102.371 717.911 98.5529 718.389 95.0736 719.641C92.8069 721.142 83.7109 722.602 72.8817 724.34C49.7917 728.045 18.8222 733.015 29.3736 742.341C38.6419 744.464 48.1602 745.921 57.7244 747.384C71.585 749.505 85.5419 751.64 98.9737 755.841C105.098 757.562 111.459 758.24 117.829 758.92C120.716 759.228 123.604 759.536 126.474 759.941C126.78 759.984 127.089 760.023 127.399 760.062C130.725 760.481 134.065 760.901 133.974 765.841C133.219 776.599 134.918 786.842 136.63 797.168C137.64 803.256 138.654 809.373 139.174 815.641C139.398 823.839 141.041 831.942 142.705 840.145C144.004 846.552 145.316 853.02 145.974 859.641C146.274 862.941 149.374 864.741 152.474 864.741C155.174 864.741 157.874 863.441 158.774 860.641C167.247 830.885 173.294 800.352 179.305 769.998L179.574 768.641C179.701 764.446 190.74 763.038 200.461 761.799C206.032 761.089 211.169 760.434 213.574 759.341C214.686 759.071 215.796 758.8 216.906 758.529C226.48 756.191 236.006 753.865 245.774 752.341C250.167 751.677 254.508 750.569 258.864 749.458C263.035 748.394 267.218 747.326 271.474 746.641C281.274 746.341 280.674 733.341 271.274 732.141C269.655 731.811 268.026 731.372 266.393 730.931C263.082 730.038 259.755 729.141 256.474 729.141H255.674C254.874 729.241 254.174 729.241 253.474 729.241C244.851 729.241 236.702 726.792 228.817 724.421C227.832 724.125 226.851 723.83 225.874 723.541C219.674 721.691 213.324 720.616 206.974 719.541C200.624 718.466 194.274 717.391 188.074 715.541C180.023 713.471 178.909 704.757 177.926 697.063C177.627 694.723 177.34 692.477 176.874 690.541C175.407 683.763 173.563 677.094 171.722 670.435C168.919 660.297 166.122 650.183 164.674 639.741C164.542 639.129 164.378 638.277 164.181 637.253Z" fill="black"/>
<path d="M209.816 404.161C201.016 398.161 193.116 391.061 186.216 382.961C184.616 380.961 182.516 379.961 180.316 379.961C178.516 379.961 176.516 380.661 174.716 382.061L174.516 382.261C173.216 383.061 172.016 383.961 170.916 384.961C169.416 386.561 167.816 388.061 166.316 389.461C163.116 392.361 160.216 395.061 158.316 398.961C157.416 400.861 156.416 402.661 155.516 404.361C154.116 407.061 152.616 409.761 151.516 412.561C149.716 417.061 146.816 418.061 144.716 418.061C143.916 418.061 143.016 417.961 142.116 417.661C137.616 416.261 137.716 412.561 137.816 410.261C137.816 409.861 137.816 409.561 137.816 409.161C137.916 406.161 139.116 403.761 140.316 401.461C140.916 400.261 141.516 399.061 141.916 397.861C146.616 383.561 157.216 373.661 165.916 366.561C169.416 363.761 170.116 361.761 168.916 358.361C168.316 356.561 167.516 354.661 166.716 352.861C165.116 349.061 163.416 345.161 163.016 341.061C162.816 338.961 162.516 336.861 162.316 334.761C160.816 322.461 159.316 309.761 161.616 296.961C162.016 294.961 161.816 293.361 161.116 292.561C160.616 291.961 159.716 291.661 158.416 291.661C157.716 291.661 156.816 291.761 155.916 291.961C154.116 292.361 152.316 293.061 150.416 293.761C149.016 294.261 147.616 294.861 146.116 295.261C137.016 298.261 128.516 303.261 121.416 309.861C110.416 319.861 101.816 331.961 95.9164 345.561C90.8164 356.961 88.7164 367.461 89.3164 377.761V377.961C88.0164 396.461 96.1164 420.861 108.016 434.861C118.716 447.361 129.516 456.161 141.216 461.861C160.316 471.061 171.616 472.361 179.216 472.361H179.316C180.416 472.361 180.616 472.361 181.016 471.261C181.816 469.261 182.616 467.161 183.416 465.161C185.016 461.161 186.616 456.961 188.316 452.861C190.016 448.661 192.016 444.661 194.016 440.661C196.116 436.461 198.316 432.061 200.016 427.661C202.416 421.461 205.816 415.661 209.916 410.461C210.816 409.361 212.416 407.261 212.316 406.561C212.616 406.361 212.016 405.661 209.816 404.161Z" fill="#60C177"/>
<path d="M132.816 282.361C141.216 278.461 149.916 274.361 160.016 274.361C160.216 274.361 160.416 274.361 160.516 274.361H160.816C165.816 274.361 169.116 272.461 171.116 268.261C172.216 265.861 173.816 263.561 175.616 261.561C177.316 259.861 177.416 258.161 177.116 255.361C176.216 248.161 175.316 240.061 177.016 231.961C177.016 231.861 177.116 231.761 177.116 231.661C176.816 231.761 176.416 231.961 176.116 232.061C175.916 232.161 175.716 232.261 175.616 232.361C165.416 236.961 156.916 243.861 148.316 251.061C138.216 259.661 131.116 270.561 126.116 285.461C126.216 285.361 126.416 285.361 126.516 285.261C128.616 284.361 130.716 283.361 132.816 282.361Z" fill="#60C177"/>
<path d="M553.716 264.461C553.016 254.361 547.416 246.161 542.516 240.161C536.816 233.061 535.316 230.461 540.816 222.461C550.116 208.761 551.916 193.661 552.016 170.361C552.316 162.861 548.416 149.261 542.316 136.561C536.416 124.361 527.516 113.661 516.616 105.561C512.416 102.361 507.516 98.8607 502.216 96.6607C489.416 91.3607 477.516 88.7607 465.816 88.7607C463.816 88.7607 461.716 88.8607 459.716 88.9607C438.716 90.5607 422.316 97.2607 409.616 109.261C400.916 117.161 393.916 126.461 388.516 136.961C386.616 141.161 384.816 145.461 383.416 149.861L383.016 151.061C381.516 155.061 380.016 159.261 379.816 163.561C379.216 174.661 378.916 189.261 381.816 203.761C382.116 205.461 381.316 206.661 380.816 207.461C380.716 207.561 380.616 207.761 380.516 207.861C378.916 210.561 377.216 213.261 375.616 215.861C372.516 220.861 369.316 225.961 366.616 231.261C358.916 246.161 357.616 262.661 362.616 282.961C362.916 284.061 363.216 285.161 363.616 286.261C364.816 289.861 366.116 293.861 364.416 298.061C363.816 299.561 363.216 301.161 362.716 302.661C361.716 305.461 360.716 308.261 359.216 311.061C358.816 311.761 358.016 313.561 358.516 314.961C358.816 315.761 359.516 316.461 360.716 316.961C362.616 317.761 363.816 319.461 364.816 320.961C365.016 321.261 365.316 321.661 365.516 321.961C367.416 324.461 369.416 328.261 365.716 332.961C363.816 335.361 361.516 336.561 358.816 336.561C357.516 336.561 356.116 336.261 354.516 335.661C350.516 334.161 346.016 332.261 342.616 328.961C338.116 324.561 336.216 320.061 337.116 315.661C338.216 309.961 339.816 303.461 343.816 298.161C345.816 295.561 345.916 293.561 344.316 290.261C344.116 289.761 343.816 289.261 343.516 288.761C341.616 284.961 339.616 281.161 339.116 276.561C336.216 251.461 342.716 228.361 358.416 207.961C359.416 206.661 360.216 205.161 360.616 203.561C361.016 201.961 361.016 200.261 360.616 198.661V198.461C358.616 187.561 358.316 176.561 359.616 165.561C360.216 159.861 362.516 154.761 364.616 149.861C365.216 148.561 365.816 147.161 366.316 145.861C367.216 143.761 367.116 142.161 366.616 141.461C366.516 141.261 366.216 141.061 365.716 141.061C365.516 141.061 365.416 141.061 365.216 141.161C356.416 142.861 348.016 146.561 340.716 151.761C340.016 152.261 339.216 152.861 338.516 153.361C332.916 157.461 327.116 161.661 322.716 167.061C321.816 168.161 320.816 169.261 319.916 170.361C315.916 175.061 312.216 179.461 310.116 185.161C307.816 191.461 306.716 198.561 306.616 207.561C306.616 209.061 306.416 210.561 306.216 212.061C305.816 215.161 305.516 218.061 306.516 220.661C308.716 226.161 307.416 230.761 302.716 234.861C296.916 239.961 292.216 246.161 288.916 253.261C283.816 263.661 278.816 274.961 278.816 287.561C278.816 302.161 282.116 313.361 289.116 322.761C292.116 326.761 295.016 331.561 292.516 338.661C287.516 352.161 286.716 366.661 289.916 380.661C291.716 388.561 295.216 394.761 300.516 399.661C306.516 405.261 313.516 409.661 321.116 412.661C329.516 415.961 336.616 417.461 343.416 417.461C348.316 417.461 352.916 416.661 357.516 415.061C364.216 412.661 370.316 408.861 376.116 405.061C380.516 402.261 385.116 399.361 390.016 396.961C396.016 394.061 400.416 388.861 404.616 383.761C405.716 382.461 406.816 381.161 407.916 379.861C408.816 378.861 409.716 377.861 410.516 376.861C417.816 368.661 425.316 360.161 429.816 349.661C431.416 345.961 433.416 342.261 435.316 338.761C438.516 332.861 441.616 327.261 443.116 320.861C444.816 313.661 446.716 305.261 446.816 296.761C446.816 294.361 447.016 291.961 447.216 289.561C447.516 284.961 447.816 280.561 447.316 276.161V275.961C447.316 274.361 447.816 272.861 448.816 271.561C454.516 262.761 458.516 253.161 462.316 243.961C466.516 233.861 467.916 223.261 468.716 210.561C469.416 199.161 470.316 187.561 471.316 176.161V175.761C471.416 173.861 471.716 169.961 475.616 169.461C475.816 169.461 476.016 169.461 476.216 169.461C479.316 169.461 480.416 172.261 481.116 173.861C481.216 174.161 481.316 174.461 481.516 174.661C485.016 182.361 487.416 190.461 488.916 198.761C492.216 216.861 490.716 233.061 484.116 248.261C483.716 249.461 483.416 250.561 483.116 251.761V251.961C480.316 261.561 476.016 268.961 469.916 274.561C469.416 274.961 469.016 275.461 468.716 276.061C468.416 276.661 468.216 277.261 468.216 277.861C467.416 291.361 465.816 304.961 463.416 318.261C463.216 319.561 462.716 320.661 462.216 321.761C461.716 322.761 461.316 323.761 461.216 324.661C460.716 331.561 458.916 338.161 455.916 344.461C455.516 345.361 455.316 346.261 455.516 346.861C455.616 347.161 455.816 347.361 456.116 347.461C461.316 349.861 465.616 353.461 469.716 356.861C470.516 357.561 471.416 358.261 472.216 358.961C472.516 359.261 472.816 359.361 472.916 359.461C474.816 357.161 477.216 355.761 479.616 354.561C481.116 353.761 482.516 352.961 483.716 351.961C491.516 345.461 501.116 343.661 507.616 342.961C510.616 342.661 510.716 341.961 511.016 339.361C511.416 335.661 511.716 332.061 512.416 328.461C514.516 317.361 519.216 306.661 525.816 297.561C526.716 296.361 527.516 295.161 528.416 293.961C533.916 286.061 539.716 277.961 549.316 273.361C552.616 272.161 554.116 269.161 553.716 264.461Z" fill="#F091A8"/>
<path d="M237.716 347.961C237.016 347.661 236.216 347.361 235.416 347.061C233.116 346.261 230.816 345.361 228.716 343.661C227.516 342.661 226.216 341.661 225.016 340.761C221.116 337.761 217.116 334.561 213.616 331.061C212.216 329.661 210.616 328.261 209.116 326.861C206.316 324.361 203.416 321.761 201.016 318.561C195.216 310.661 190.716 301.961 186.716 294.261C186.016 292.961 185.516 292.361 184.716 292.161C184.616 292.161 184.417 292.261 184.316 292.361C184.216 292.461 184.117 292.661 184.117 292.761C183.917 293.961 183.816 295.061 183.617 296.261C183.117 299.861 182.516 303.561 182.617 307.161C182.816 318.161 185.816 328.961 188.516 338.261C188.716 338.961 188.917 339.661 189.117 340.361C191.316 347.961 193.616 355.761 198.716 361.361C200.916 363.761 202.816 366.461 204.616 368.961C207.716 373.161 210.616 377.161 214.616 380.361C216.016 381.461 217.316 382.561 218.716 383.661C222.416 386.761 226.016 389.761 230.216 391.861C231.216 392.361 231.816 392.561 232.016 392.561C232.116 392.361 232.316 391.761 232.616 390.361C233.316 386.061 233.616 381.661 233.916 377.361C234.616 368.161 235.416 358.661 239.116 349.661C239.716 349.061 239.716 348.861 237.716 347.961Z" fill="#EB5228"/>
<path d="M305.017 427.661C304.617 427.461 304.316 427.261 303.917 426.961C289.716 416.661 280.016 406.461 273.617 394.861C267.217 383.261 265.316 369.461 267.816 352.961C268.816 346.761 270.916 340.861 274.216 335.561C275.716 333.061 274.217 332.161 273.617 331.761C273.016 331.361 272.516 331.161 272.016 331.161C271.816 331.161 271.117 331.161 270.316 332.361C264.716 341.261 261.216 348.861 259.316 356.061C256.016 368.061 254.516 380.561 254.716 392.961V393.561C255.016 399.161 255.516 406.761 257.016 414.061C258.816 422.061 259.816 422.961 268.216 424.161C269.916 424.361 271.516 424.761 273.117 425.161C274.117 425.461 275.117 425.661 276.117 425.861C277.117 426.061 278.216 426.261 279.216 426.461C286.516 427.961 294.116 429.561 301.716 429.561C302.216 429.561 302.716 429.561 303.316 429.561C305.816 429.461 305.916 428.961 306.116 428.361C306.116 428.261 306.116 428.161 306.116 428.161C305.916 428.261 305.316 427.861 305.017 427.661Z" fill="#EB5228"/>
<path d="M256.617 309.661C255.917 289.761 255.916 268.661 264.716 248.761C267.516 242.561 270.216 236.961 275.316 232.361C275.617 232.061 275.916 231.861 276.216 231.561C278.216 229.861 280.717 227.661 280.617 225.761C280.417 221.461 281.217 217.261 281.917 213.261C282.517 210.261 283.016 207.361 283.116 204.361C283.516 197.261 284.316 189.761 288.116 182.561C289.616 179.661 291.417 176.961 293.216 174.361C295.316 171.161 297.417 168.161 298.917 164.861C300.017 162.261 299.816 161.661 299.816 161.661C299.816 161.661 299.417 161.161 296.716 160.761C292.516 160.161 288.316 159.861 284.017 159.861C271.417 159.861 259.117 162.361 247.516 167.361C227.516 175.761 213.116 187.961 203.216 204.461C195.616 217.261 192.117 231.461 192.417 249.261C192.517 270.561 200.217 288.861 215.917 305.161C222.617 312.161 230.616 318.561 241.716 326.161C242.316 326.561 242.917 326.761 243.617 326.861C243.917 326.861 244.217 326.961 244.417 326.961C244.816 326.961 245.217 326.961 245.617 326.861C246.316 326.661 246.916 326.361 247.516 325.961C248.117 325.561 248.517 325.061 248.917 324.461C250.717 321.761 252.416 318.861 254.016 316.061C254.516 315.161 255.016 314.261 255.617 313.461C256.316 312.161 256.617 310.961 256.617 309.661Z" fill="#EB5228"/>
<path d="M452.017 380.961C449.617 377.761 447.117 374.461 443.417 372.861C442.617 372.561 442.017 372.361 441.417 372.361C440.816 372.361 440.016 372.561 438.616 374.261C436.116 377.261 433.816 380.561 431.616 383.761C428.016 388.861 424.316 394.161 419.716 398.761C411.216 407.061 402.117 414.761 392.517 421.561C392.017 421.961 391.417 422.261 390.816 422.561C388.917 423.561 389.016 423.761 389.116 424.261V424.361C389.316 424.361 389.616 424.261 389.816 424.261C390.316 424.161 390.917 424.061 391.517 424.061C392.017 424.061 392.417 424.161 392.816 424.261C396.216 423.661 399.517 423.161 402.917 422.561C413.216 420.861 423.917 419.061 434.316 416.961C437.316 416.361 438.816 414.561 438.816 411.561C438.816 407.061 439.316 403.661 440.616 401.061C441.316 399.561 442.016 398.061 442.716 396.561C444.917 391.561 447.217 386.361 451.517 382.161C452.417 381.461 452.316 381.261 452.017 380.961Z" fill="#EB5228"/>
<path d="M784.017 308.961C783.517 306.861 782.917 304.561 782.717 302.361C781.217 288.461 776.017 275.161 767.817 263.861C766.717 262.461 766.117 260.761 765.417 259.261C764.517 257.161 763.717 255.261 762.117 254.061C759.317 251.961 756.717 249.561 754.217 247.261C751.717 244.961 749.117 242.561 746.317 240.561C728.517 227.261 711.317 220.861 692.117 220.361C677.317 221.661 662.817 225.161 649.017 230.661C635.117 236.061 624.917 242.761 617.017 251.961C616.617 252.361 616.217 252.661 615.817 252.961C615.717 253.061 615.517 253.161 615.317 253.361C615.517 253.761 615.817 254.061 616.217 254.361C616.617 254.561 617.117 254.761 617.517 254.761H617.717C619.717 254.861 621.717 255.061 623.617 255.161C624.917 255.261 626.217 255.361 627.617 255.361C632.817 255.661 637.417 257.661 641.817 259.561C643.617 260.361 645.517 261.161 647.417 261.761C665.817 268.261 678.617 276.761 687.617 288.461C692.217 294.461 697.817 300.261 706.817 301.661C707.717 301.761 708.417 301.961 709.217 302.261C709.617 302.361 710.017 302.461 710.417 302.561C720.017 304.861 725.917 312.261 725.317 321.561C724.617 333.261 719.417 341.961 710.017 347.261C709.617 347.461 709.117 347.661 708.817 347.861C708.517 347.961 707.917 348.261 707.817 348.361C707.817 348.361 707.817 348.461 707.817 348.661C707.917 351.461 706.617 353.461 705.417 355.161C705.117 355.661 704.817 356.061 704.517 356.461C702.117 360.561 699.217 361.361 697.217 361.361C696.617 361.361 696.017 361.261 695.317 361.161C689.817 359.761 690.317 354.361 690.517 352.061C691.717 339.061 686.617 327.061 681.717 315.561C681.317 314.661 680.917 313.761 680.517 312.861C676.817 304.061 670.017 296.161 660.417 289.461C646.317 279.561 629.717 273.561 612.517 272.061C610.517 271.861 608.517 271.761 606.517 271.761C593.417 271.761 579.917 275.861 565.317 284.161C557.617 288.561 552.017 295.061 546.117 301.961C544.817 303.461 543.417 305.061 542.017 306.561C539.017 310.061 536.817 313.961 535.317 318.361C531.917 327.461 530.517 337.461 530.717 350.961C530.817 360.861 528.617 363.361 518.317 364.961C517.717 365.061 517.117 365.161 516.517 365.261C510.017 366.261 503.217 367.261 497.517 370.561C483.817 378.461 468.917 388.961 461.717 407.061C461.517 407.461 461.317 407.861 461.117 408.261C460.917 408.561 460.717 408.961 460.717 409.161C460.717 409.161 460.717 409.161 460.717 409.261C460.817 409.361 460.917 409.461 461.417 409.461C461.817 409.461 462.417 409.361 462.917 409.261C463.117 409.261 463.317 409.161 463.417 409.161C464.917 408.861 466.417 408.661 467.817 408.561C471.417 408.061 474.817 407.561 478.217 406.461C483.017 404.761 487.917 403.961 492.717 403.161C497.617 402.361 502.717 401.461 507.417 399.761C508.117 399.461 508.817 399.261 509.517 398.961C512.317 397.861 515.117 396.661 518.417 396.661C518.517 396.661 518.617 396.661 518.717 396.661C518.817 396.661 518.917 396.661 519.017 396.661C522.217 396.661 525.217 395.661 528.417 394.561C530.717 393.761 533.017 392.961 535.517 392.561C540.917 391.661 546.217 389.861 551.317 388.261C554.217 387.361 557.117 386.361 560.117 385.561C573.517 381.861 576.117 376.661 576.917 371.661C578.217 363.361 583.717 359.461 588.917 355.761L589.417 355.361C595.217 351.161 600.517 345.661 606.017 338.061C607.817 335.561 609.017 332.761 610.217 329.861C611.217 327.461 612.217 325.061 613.717 322.661C614.717 320.961 616.017 318.861 618.317 318.861C620.217 318.861 621.717 320.461 622.917 321.961C627.917 328.361 626.617 335.361 625.017 340.861C623.017 347.961 619.617 354.561 614.917 360.261C610.217 365.961 604.517 370.661 597.917 374.061C596.917 374.561 596.817 374.861 596.817 374.861C596.717 375.161 597.117 376.161 597.217 376.561C598.517 380.561 601.217 383.461 604.217 386.561C605.517 387.961 606.917 389.361 608.117 390.961C613.317 397.361 619.617 402.661 626.917 406.661C630.017 408.461 633.617 409.861 636.917 411.361C639.217 412.361 641.517 413.361 643.817 414.361C650.717 417.461 657.917 420.061 665.317 422.061C670.417 423.561 676.017 424.261 682.417 424.261C689.317 424.261 696.317 423.461 703.617 422.561C709.117 421.861 714.317 420.061 719.817 418.061C721.717 417.361 723.717 416.661 725.617 416.061C732.517 413.861 738.617 409.961 743.817 406.561C749.617 402.661 753.917 396.861 758.017 391.261C759.717 388.961 761.417 386.661 763.217 384.461C771.217 374.761 777.017 363.161 780.017 350.961C780.317 349.861 780.517 348.761 780.817 347.661C783.117 338.361 785.417 328.661 785.717 318.861C785.617 315.261 784.817 312.161 784.017 308.961Z" fill="#ECA640"/>
<path d="M703.217 316.761C703.017 317.161 702.917 317.661 702.917 318.061C703.517 323.461 704.217 328.861 704.917 334.261C705.017 335.061 704.617 336.061 705.517 336.461C706.617 337.061 707.317 335.961 708.017 335.361C714.517 329.261 712.217 320.361 703.217 316.761Z" fill="#9BD0D7"/>
<path d="M674.517 177.061C666.417 166.361 656.517 157.261 645.317 150.061C635.517 143.761 624.717 138.961 613.517 135.761C607.017 133.961 600.117 133.061 592.317 133.061C590.017 133.061 587.517 133.161 585.017 133.261H584.617C583.717 133.061 582.717 133.061 581.817 133.061C578.317 133.061 574.917 134.061 571.417 135.261C569.817 135.761 568.117 136.261 566.417 136.761C564.717 137.161 564.417 137.661 564.417 137.761C564.417 137.861 564.217 138.461 565.417 140.261C569.517 146.861 571.917 154.461 572.417 162.261C573.117 171.161 572.117 180.261 571.117 189.061L571.017 190.161C569.617 203.361 567.517 217.361 561.117 230.461C560.817 231.161 560.717 231.461 561.717 232.961C562.717 234.561 563.817 235.961 565.017 237.561C568.517 242.161 572.117 246.861 572.317 253.761C572.317 255.761 573.217 255.761 573.817 255.761C574.517 255.761 575.417 255.461 576.317 255.061C580.517 253.061 584.917 251.861 589.617 251.661C592.717 251.461 594.817 250.061 596.917 246.961C606.317 233.061 615.917 223.961 627.117 218.061C628.217 217.461 628.617 216.961 628.617 216.561C628.617 216.261 628.317 215.661 627.717 215.161C627.117 214.661 626.517 214.161 626.017 213.661C624.317 212.161 622.717 210.761 620.817 209.661C613.317 205.761 605.417 202.661 597.217 200.561C592.817 199.361 592.117 196.261 592.117 194.461C592.017 193.061 592.417 191.561 593.217 190.461C594.017 189.261 595.217 188.361 596.617 187.861L597.417 187.561C599.417 186.861 601.717 186.161 604.117 186.161C604.917 186.161 605.717 186.261 606.417 186.361C620.417 189.161 633.017 196.161 642.817 206.561C643.617 207.361 643.917 207.361 644.117 207.361C644.417 207.361 645.017 207.161 645.317 207.061C655.317 203.261 666.217 199.661 678.117 199.661C679.117 199.661 680.217 199.661 681.217 199.761C681.617 199.761 681.917 199.761 682.217 199.761C684.317 199.761 684.717 199.361 684.817 199.261C685.017 199.061 685.317 198.261 684.517 195.161C682.817 188.461 678.717 182.461 674.517 177.061Z" fill="#9BD0D7"/>
<path fill-rule="evenodd" clip-rule="evenodd" d="M296.321 753.256C297.766 754.367 299.231 755.469 300.716 756.561C301.016 756.861 301.316 757.161 301.716 757.461C311.916 765.461 323.216 771.661 334.616 777.761C359.216 790.961 385.516 799.061 412.816 804.161C431.187 807.655 449.858 808.458 468.429 809.257L468.516 809.261C471.266 809.411 474.041 809.536 476.816 809.661C479.591 809.786 482.366 809.911 485.116 810.061C493.267 810.558 501.418 810.067 509.667 809.57L510.244 809.535C514.996 809.244 519.659 808.958 524.416 808.861C529.516 808.761 534.716 808.461 539.816 808.161L539.899 808.156C551.971 807.458 563.944 806.765 576.116 808.561C577.543 808.833 579.017 809.012 580.505 809.193C581.206 809.279 581.911 809.365 582.616 809.461C589.816 810.261 596.816 811.161 603.616 814.161C604.466 814.511 605.291 814.886 606.116 815.261C606.941 815.636 607.766 816.011 608.616 816.361C615.416 819.361 622.216 822.361 628.816 825.761C629.916 826.361 630.916 826.861 632.016 827.361C635.616 829.161 639.216 830.961 642.316 833.261C645.25 835.461 648.184 837.751 651.119 840.04C652.584 841.184 654.05 842.328 655.516 843.461C664.016 850.161 672.516 856.761 681.516 862.761C683.816 864.361 686.616 865.361 689.416 865.661C692.316 865.861 695.116 865.361 697.716 864.161C702.216 862.161 703.216 857.361 702.716 853.061C702.152 847.801 702.912 842.805 703.67 837.826C703.719 837.504 703.767 837.183 703.816 836.861L703.883 836.405C704.36 833.165 704.825 830.009 705.016 826.761C705.316 822.261 708.016 820.061 712.716 820.061C718.816 820.061 721.716 824.161 724.616 828.461C726.416 831.161 727.916 834.061 729.316 837.061C731.316 841.261 733.316 845.461 736.516 849.061C740.516 853.561 745.516 852.861 747.716 847.261C749.116 843.761 749.016 840.161 748.916 836.562C748.816 835.662 748.816 834.861 748.816 833.961C748.816 831.261 748.616 828.461 748.316 825.761C747.816 820.261 747.316 814.761 748.716 809.161C749.716 805.161 751.716 801.961 755.616 801.761C759.516 801.561 762.416 803.961 763.716 807.961L763.717 807.963C765.217 812.362 766.716 816.762 768.516 821.061L768.616 821.261L768.75 821.578C770.115 824.805 771.653 828.445 775.816 827.961C780.116 827.361 780.916 823.261 781.116 819.461C781.116 819.311 781.141 819.136 781.166 818.961C781.191 818.786 781.216 818.611 781.216 818.461C781.316 818.161 781.316 817.761 781.316 817.461V799.061H780.516V791.061C780.616 787.161 781.516 783.161 785.816 782.561C789.916 782.061 793.016 784.561 794.516 788.661C794.566 788.861 794.641 789.061 794.716 789.261C794.791 789.461 794.866 789.661 794.916 789.861C795.916 792.861 797.016 795.861 798.416 798.761C799.816 801.861 803.616 802.561 804.816 800.161C808.616 792.861 811.816 785.061 810.016 776.461C808.416 768.561 807.416 760.561 807.016 752.461C806.816 748.261 806.816 744.061 806.916 739.861C807.016 735.661 807.016 731.461 806.816 727.261C806.016 712.761 807.516 698.361 809.116 684.061C809.816 677.261 811.916 670.861 814.016 664.461C815.216 660.862 816.416 657.261 817.316 653.561C818.448 649.034 820.034 644.659 821.613 640.303C821.848 639.656 822.083 639.008 822.316 638.361C824.016 633.761 825.716 629.161 827.016 624.361C827.166 623.761 827.341 623.136 827.516 622.511C827.691 621.886 827.866 621.261 828.016 620.661C831.716 607.061 835.416 593.461 836.316 579.261C836.416 577.761 836.516 576.261 836.716 574.761C837.216 570.361 837.716 565.861 837.016 561.361C837.016 561.261 836.991 561.161 836.966 561.061C836.941 560.961 836.916 560.861 836.916 560.761C836.816 559.461 836.616 558.161 834.816 558.061C833.116 558.261 832.216 559.361 832.016 561.061C831.916 561.661 831.816 562.286 831.716 562.911C831.616 563.536 831.516 564.161 831.416 564.761L831.366 565.048C830.983 567.245 830.616 569.353 830.616 571.461C830.516 584.161 826.816 595.961 822.016 607.561C819.216 614.361 814.916 619.961 808.516 622.861C799.016 627.161 792.416 621.761 786.316 613.761C783.716 610.361 781.916 606.461 780.116 602.561C779.944 602.196 779.773 601.831 779.602 601.467C778.085 598.236 776.583 595.037 774.516 592.161C772.316 588.961 770.816 585.461 769.816 581.761C766.316 569.361 763.016 557.061 760.216 544.461C759.216 539.761 758.316 535.061 757.516 530.261L757.412 529.663C756.346 523.556 755.265 517.365 753.716 511.361C752.116 505.061 752.116 498.461 752.116 491.861V491.857C752.116 488.259 752.116 484.66 751.916 481.161C751.216 470.761 752.316 459.961 753.916 449.561C754.216 448.061 754.316 446.561 754.416 444.961L754.422 444.885C754.92 438.607 755.448 431.95 763.516 429.161C763.916 429.061 764.116 428.661 764.316 428.261C764.366 428.161 764.441 428.061 764.516 427.961C764.591 427.861 764.666 427.761 764.716 427.661C769.916 420.861 775.616 420.461 782.716 425.261C784.316 426.361 785.416 427.761 786.416 429.161C787.216 430.261 788.116 431.461 789.316 432.461C793.516 435.761 797.016 439.761 799.716 444.261C800.581 445.805 801.522 447.311 802.468 448.826C803.054 449.764 803.643 450.705 804.216 451.661C807.316 456.561 810.416 461.561 812.916 466.861C814.416 470.061 818.216 469.761 820.016 466.561C822.416 462.261 820.716 458.161 819.116 454.461C819.016 454.161 818.916 453.961 818.816 453.761C814.216 442.861 809.316 432.061 804.316 421.361C804.076 420.847 803.824 420.321 803.569 419.787C803.079 418.764 802.576 417.712 802.116 416.661C801.916 416.161 801.716 415.686 801.516 415.211C801.316 414.736 801.116 414.261 800.916 413.761L800.862 413.632C798.681 408.477 796.555 403.451 789.216 402.261C784.616 401.561 780.716 401.061 776.916 403.961C776.426 404.241 775.984 404.57 775.523 404.914C775.326 405.061 775.126 405.211 774.916 405.361C773.416 406.461 771.916 407.561 770.516 408.661C766.016 412.261 761.016 415.061 756.016 417.861C753.616 419.161 751.216 420.461 748.916 421.861C740.916 426.761 732.316 430.761 723.416 433.761C715.316 436.461 707.016 438.361 698.516 439.261C697.566 439.361 696.616 439.486 695.666 439.611C694.716 439.736 693.766 439.861 692.816 439.961C687.316 440.661 681.716 441.361 676.516 441.161C675.916 441.161 675.316 441.136 674.716 441.111C674.116 441.086 673.516 441.061 672.916 441.061L672.818 441.058C666.747 440.859 660.384 440.65 654.516 438.661C652.723 438.009 650.798 437.623 648.848 437.231C648.405 437.142 647.96 437.053 647.516 436.961C643.916 436.261 640.416 435.561 637.516 433.861L637.514 433.859C635.615 432.76 633.715 431.66 631.716 430.661C625.716 427.561 619.716 424.361 614.916 419.161C613.298 417.363 611.276 415.807 609.285 414.276C609.061 414.104 608.838 413.933 608.616 413.761C608.452 413.633 608.289 413.505 608.125 413.378C605.092 411.013 602.109 408.687 600.116 405.461C595.516 398.261 588.316 397.861 581.616 397.561H581.116C574.316 397.261 567.916 399.861 561.716 402.461C559.316 403.561 556.916 404.561 554.416 405.361C541.797 409.535 528.895 412.955 516.076 416.353L514.916 416.661C513.577 417.051 512.206 417.411 510.822 417.774C509.726 418.062 508.621 418.351 507.516 418.661C500.601 420.472 493.482 421.944 486.383 423.412C484.859 423.728 483.336 424.043 481.816 424.361C481.317 424.461 480.817 424.56 480.315 424.66C477.292 425.262 474.217 425.875 471.216 426.561C451.116 430.861 430.916 434.061 410.716 437.261C408.616 437.611 406.54 437.936 404.465 438.261C402.39 438.586 400.316 438.911 398.216 439.261C386.062 441.237 373.81 442.432 361.654 443.618L361.216 443.661C360.416 443.761 359.591 443.836 358.766 443.911C357.941 443.986 357.116 444.061 356.316 444.161C352.53 444.539 348.802 444.746 345.044 444.954C343.838 445.021 342.63 445.088 341.416 445.161C336.916 445.361 332.516 445.561 328.116 445.961C321.463 446.661 314.733 446.825 307.994 446.989C307.035 447.013 306.075 447.036 305.116 447.061C303.816 447.111 302.541 447.136 301.265 447.161C299.991 447.186 298.716 447.211 297.416 447.261C283.916 447.561 270.416 446.561 257.116 444.161C247.216 442.461 237.216 440.361 229.416 432.861C225.816 429.461 223.216 430.061 220.616 434.261C217.416 439.361 215.316 444.861 213.216 450.461C212.216 453.261 211.116 456.061 209.916 458.761C205.808 468.028 203.525 477.842 201.237 487.681C201.13 488.141 201.023 488.601 200.916 489.061C200.841 489.408 200.765 489.757 200.689 490.107C200.263 492.082 199.826 494.108 199.316 496.061C194.816 514.661 194.416 533.761 194.416 552.761C194.416 562.061 195.916 571.161 197.416 580.261C197.566 581.111 197.691 581.961 197.816 582.811C197.941 583.661 198.066 584.511 198.216 585.361C201.316 604.961 206.116 624.161 213.616 642.661C214.966 645.911 216.316 649.186 217.666 652.461C219.016 655.736 220.366 659.011 221.716 662.261C224.716 669.261 228.516 675.661 232.616 681.961C237.588 690.212 243.579 699.022 250.642 707.993C251.608 708.089 252.552 708.141 253.474 708.141H256.474C262.455 708.141 267.642 709.533 271.736 710.631L271.774 710.641L271.781 710.643L271.785 710.644L271.789 710.645C272.984 710.944 274.178 711.242 275.074 711.441C289.874 713.841 300.274 726.541 299.574 741.341C299.359 745.691 298.216 749.722 296.321 753.256ZM636.266 615.46C636.191 616.485 636.116 617.51 636.016 618.561C635.216 628.261 634.416 637.961 631.916 647.261C631.53 648.484 631.226 649.748 630.926 651.001C630.76 651.694 630.594 652.384 630.416 653.061C630.328 653.413 630.241 653.764 630.153 654.114C629.05 658.549 627.969 662.891 626.116 667.061C619.216 682.461 609.716 695.361 591.916 699.461C590.916 699.761 589.916 699.861 588.916 699.961H585.916C574.916 699.061 564.616 696.661 554.716 691.461C537.416 682.461 524.816 668.461 512.716 653.761C504.663 643.865 498.964 632.557 493.243 621.206L492.716 620.161L490.316 615.361C483.816 602.461 481.616 588.961 479.416 575.361L479.316 574.961C478.316 567.561 478.516 560.061 479.916 552.761C481.416 543.861 483.016 535.161 486.516 526.961C489.616 520.261 493.516 513.961 498.116 508.261C498.466 507.811 498.816 507.336 499.166 506.861C499.516 506.386 499.866 505.911 500.216 505.461C503.116 501.561 506.116 497.661 509.416 494.061C517.916 484.661 526.816 475.861 539.516 472.561C544.316 471.361 549.116 470.261 554.416 470.361C560.416 470.461 566.416 471.361 572.216 473.061C579.216 475.261 585.616 478.961 591.116 483.861C598.516 490.361 605.016 497.761 610.616 505.761C615.683 513.113 619.17 521.057 622.746 529.2L622.816 529.361L622.916 529.461C625.816 536.361 628.216 543.361 630.216 550.561C632.616 559.061 634.016 567.861 635.316 576.661C637.116 588.461 637.516 600.461 636.516 612.361C636.416 613.41 636.341 614.435 636.266 615.46ZM713.516 799.461C713.616 800.961 713.116 802.361 712.116 803.461C711.116 804.561 709.816 805.261 708.416 805.261C705.216 805.661 702.516 804.761 700.716 801.761C696.416 794.761 694.716 787.161 694.216 779.161C693.616 775.761 693.616 772.261 694.216 768.861C694.616 766.361 695.216 763.361 698.616 763.061H699.116C702.216 762.761 704.916 762.561 707.316 766.061C713.92 775.523 713.723 785.956 713.525 796.499L713.516 796.961V799.461ZM777.816 701.461C777.616 706.161 774.416 709.361 769.416 710.761C764.116 712.261 761.216 709.161 758.316 705.961L757.116 704.761C750.816 698.661 748.516 690.561 746.216 682.461C745.816 680.861 745.416 679.361 744.916 677.861C744.666 677.111 744.416 676.336 744.166 675.561C743.916 674.786 743.666 674.011 743.416 673.261C743.336 673.021 743.256 672.781 743.175 672.54C741.649 667.97 740.091 663.306 739.616 658.461C739.616 657.761 739.416 657.161 738.916 656.661C738.416 656.161 737.816 655.861 737.116 655.861C735.416 655.861 734.516 656.761 734.116 658.561C732.316 667.461 730.916 676.461 730.016 685.561C728.516 698.961 723.816 710.861 714.616 720.761C710.916 724.761 706.116 726.361 701.016 724.261C695.916 722.161 692.416 716.061 692.416 708.261C690.816 700.661 690.716 691.361 691.716 682.361C692.122 678.711 692.436 675.016 692.751 671.306C692.902 669.526 693.054 667.744 693.216 665.961C694.316 652.261 695.516 638.461 698.816 625.061C703.316 606.861 708.616 588.761 717.416 571.961C718.916 569.061 721.716 568.661 724.316 568.361C724.516 568.311 724.716 568.286 724.916 568.261C725.116 568.236 725.316 568.211 725.516 568.161C730.016 567.461 734.416 568.961 736.616 573.261C738.316 576.661 739.916 580.061 741.416 583.461C743.416 588.061 745.516 592.661 748.016 597.061C750.784 601.883 752.755 607.023 754.711 612.127C754.946 612.739 755.18 613.35 755.416 613.961C756.916 617.961 758.416 621.961 760.216 625.861C765.416 637.461 768.816 649.761 771.816 662.161C772.709 665.815 773.867 669.404 775.02 672.98C775.286 673.808 775.553 674.634 775.816 675.461C775.916 675.711 775.991 675.936 776.066 676.161C776.141 676.386 776.216 676.611 776.316 676.861C778.735 684.119 778.345 691.377 777.955 698.635L777.916 699.361C777.916 699.711 777.891 700.061 777.866 700.411C777.841 700.761 777.816 701.111 777.816 701.461Z" fill="white"/>
<path d="M278.33 738.037C276.299 736.153 274.32 734.255 272.391 732.348C275.657 733.151 277.665 735.483 278.33 738.037Z" fill="#60C177"/>
<path d="M139.174 815.841C137.774 798.941 132.774 783.141 133.974 766.041C134.074 760.641 130.074 760.641 126.474 760.141C117.274 758.841 107.874 758.541 98.974 756.041C76.274 748.941 52.074 747.741 29.374 742.541C13.874 728.841 87.974 724.541 95.074 719.841C100.074 718.041 105.774 717.841 111.174 716.941C140.674 713.641 130.174 715.041 137.074 686.241C141.674 663.341 144.174 640.241 149.174 617.441C149.574 615.241 150.074 613.041 152.974 613.141C159.874 611.341 163.374 634.541 164.474 639.841C166.874 657.141 172.974 673.541 176.674 690.641C178.674 698.941 177.374 712.941 187.874 715.641C200.274 719.341 213.274 719.941 225.674 723.641C235.174 726.441 244.874 729.741 255.374 729.241C260.474 729.041 265.774 731.241 270.974 732.241C280.374 733.441 280.974 746.441 271.174 746.741C262.474 748.141 254.074 751.141 245.474 752.441C234.574 754.141 223.974 756.841 213.274 759.441C206.674 762.441 179.474 762.141 179.274 768.741C173.174 799.541 167.074 830.541 158.474 860.741C156.474 866.841 146.274 865.941 145.674 859.841C144.474 844.741 139.574 830.441 139.174 815.841Z" fill="#ECA640"/>
<path d="M785.574 167.841C786.874 167.041 811.174 166.441 809.874 163.341C808.774 158.241 812.474 153.941 811.774 148.741C810.974 143.241 814.874 138.441 815.874 133.041C818.174 126.341 823.474 79.1414 834.974 92.9414C840.374 99.6414 841.374 107.841 842.274 115.741C844.574 130.041 846.974 144.441 848.074 158.941C848.474 164.341 851.974 164.641 855.374 164.841C867.074 165.641 878.674 166.841 890.074 169.441C967.974 180.941 883.374 196.441 856.874 199.741C853.874 200.141 853.174 201.241 852.774 204.041C850.574 225.341 843.174 245.441 839.674 266.541C838.374 270.641 837.174 274.841 835.874 278.941C834.374 285.041 823.974 284.841 823.474 278.541C817.774 255.141 812.674 231.641 810.274 207.641C809.874 205.541 809.374 204.441 806.974 204.141C794.174 202.841 782.674 196.241 770.074 194.041C760.874 192.541 752.674 188.841 744.474 184.741C738.374 182.941 739.974 175.841 745.474 174.041C749.574 172.141 753.974 172.441 758.074 171.741C766.774 170.341 775.174 167.141 785.574 167.841Z" fill="#60C177"/>
</svg>
