<svg width="116" height="116" viewBox="0 0 116 116" fill="none" xmlns="http://www.w3.org/2000/svg">
<rect width="116" height="116" fill="#040404"/>
<path d="M7.49844 58L58 7.49844L108.502 58L58 108.502L7.49844 58Z" fill="#1D1511" stroke="#E2C4A1" stroke-width="3.53333"/>
<path opacity="0.6" d="M27.4005 54.5353V47.8786C28.3762 47.8786 29.1672 47.0876 29.1672 46.1119V44.4136C29.1672 44.1801 29.1825 43.949 29.2124 43.7215C29.3299 42.8284 28.7584 42.0035 27.9087 41.782C28.1583 41.1602 28.4952 40.5767 28.9089 40.0496C29.5256 40.6747 30.5257 40.7572 31.2404 40.2089C31.4225 40.0692 31.6149 39.9404 31.8172 39.8237L33.288 38.9745C34.1329 38.4866 34.4225 37.4062 33.9346 36.5612L39.6995 33.2328C40.1873 34.0778 41.2678 34.3673 42.1128 33.8795L45.0544 32.1811C45.8994 31.6933 46.1889 30.6128 45.7011 29.7678L51.4659 26.4395C51.9538 27.2844 53.0343 27.574 53.8792 27.0861L55.3501 26.2369C55.5523 26.1202 55.7601 26.0179 55.972 25.9301C56.8042 25.5853 57.2328 24.6779 56.9998 23.8313C57.6632 23.7365 58.3369 23.7365 59.0003 23.8313C58.7673 24.6779 59.1959 25.5853 60.0281 25.9301C60.24 26.0179 60.4478 26.1202 60.6501 26.2369L62.1209 27.0861C62.9658 27.574 64.0463 27.2845 64.5342 26.4395L70.2991 29.7678C69.8112 30.6128 70.1007 31.6933 70.9457 32.1811L73.8873 33.8795C74.7323 34.3673 75.8128 34.0778 76.3006 33.2328L82.0655 36.5612C81.5777 37.4062 81.8672 38.4866 82.7122 38.9745L84.183 39.8237C84.3852 39.9404 84.5776 40.0692 84.7597 40.2089C85.4744 40.7572 86.4745 40.6747 87.0912 40.0496C87.505 40.5767 87.8418 41.1602 88.0914 41.782C87.2417 42.0035 86.6702 42.8284 86.7877 43.7215C86.8176 43.949 86.833 44.1801 86.833 44.4136V46.1119C86.833 47.0876 87.6239 47.8786 88.5996 47.8786V54.5353C87.6239 54.5353 86.833 55.3263 86.833 56.302V59.6987C86.833 60.6744 87.6239 61.4653 88.5996 61.4653V68.1221C87.6239 68.1221 86.833 68.913 86.833 69.8887V71.5871C86.833 71.8206 86.8176 72.0516 86.7877 72.2791C86.6702 73.1722 87.2417 73.9971 88.0914 74.2186C87.8418 74.8405 87.5049 75.424 87.0912 75.9511C86.4745 75.326 85.4744 75.2435 84.7597 75.7918C84.5776 75.9314 84.3852 76.0602 84.183 76.177L82.7122 77.0262C81.8672 77.514 81.5777 78.5945 82.0655 79.4395L76.3006 82.7678C75.8128 81.9228 74.7323 81.6333 73.8873 82.1212L70.9457 83.8195C70.1007 84.3074 69.8112 85.3879 70.2991 86.2328L64.5342 89.5612C64.0463 88.7162 62.9658 88.4267 62.1209 88.9145L60.6501 89.7637C60.4478 89.8805 60.24 89.9827 60.0281 90.0706C59.1959 90.4154 58.7673 91.3228 59.0003 92.1694C58.3369 92.2641 57.6632 92.2641 56.9998 92.1694C57.2328 91.3228 56.8042 90.4154 55.972 90.0706C55.7601 89.9827 55.5523 89.8805 55.3501 89.7637L53.8792 88.9145C53.0343 88.4267 51.9538 88.7162 51.4659 89.5612L45.7011 86.2328C46.1889 85.3878 45.8994 84.3074 45.0544 83.8195L42.1128 82.1212C41.2678 81.6333 40.1873 81.9228 39.6995 82.7678L33.9346 79.4395C34.4225 78.5945 34.1329 77.514 33.288 77.0262L31.8171 76.177C31.6149 76.0602 31.4225 75.9314 31.2404 75.7918C30.5257 75.2435 29.5256 75.326 28.9089 75.9511C28.4952 75.424 28.1583 74.8405 27.9087 74.2186C28.7584 73.9971 29.3299 73.1722 29.2124 72.2791C29.1825 72.0516 29.1672 71.8206 29.1672 71.5871V69.8887C29.1672 68.913 28.3762 68.122 27.4005 68.122V61.4653C28.3762 61.4653 29.1672 60.6744 29.1672 59.6987V56.302C29.1672 55.3263 28.3762 54.5353 27.4005 54.5353Z" fill="#1D1511" stroke="#7B6B5B" stroke-width="3.53333" stroke-linecap="round" stroke-dasharray="3.53 10.6"/>
<path d="M47.5268 51.9529L58 45.9062L68.4732 51.9529V64.0462L58 70.0929L47.5268 64.0462V51.9529Z" fill="#1D1511" stroke="#E2C4A1" stroke-width="3.53333"/>
<circle cx="57.9999" cy="57.9995" r="48.1157" stroke="#E2C4A1" stroke-width="3.53333"/>
</svg>
